%
M48
M72
T01C0.0197
T02C0.0400
%
T01
X20252Y14450
X21552Y15950
X22552Y16450
X23552Y16950
X25352Y15650
X24652Y15350
X27052Y13950
X27052Y12850
X27052Y11750
X27052Y10650
X27052Y9750
X25352Y8350
X27052Y6750
X23052Y11350
X22052Y11350
X18752Y15950
X17452Y16750
X16152Y16750
X14752Y16750
X13352Y16750
X11952Y16750
T02
X9052Y2250
X10052Y2250
X11052Y2250
X12052Y2250
X13752Y2350
X14752Y2350
X15752Y2350
X16752Y2350
X17752Y2350
X18752Y2350
X19752Y2350
X20752Y2350
X22752Y2350
X23752Y2350
X24752Y2350
X25752Y2350
X26752Y2350
X27752Y2350
X31052Y2250
X32052Y2250
X33052Y2250
X33052Y4250
X33052Y5250
X33052Y6250
X33052Y7250
X33052Y9300
X33052Y10300
X33052Y11300
X33052Y12300
X33052Y13300
X33052Y14300
X33052Y15300
X33052Y16300
X33052Y18350
X33052Y19350
X33052Y20350
X33052Y21350
X27752Y21350
X26752Y21350
X25752Y21350
X24752Y21350
X23752Y21350
X22752Y21350
X21752Y21350
X20752Y21350
X19252Y21350
X18252Y21350
X17252Y21350
X16252Y21350
X15252Y21350
X14252Y21350
X13252Y21350
X12252Y21350
X11252Y21350
X10252Y21350
X12052Y4250
X13052Y4250
M30
