G75*
%MOIN*%
%OFA0B0*%
%FSLAX24Y24*%
%IPPOS*%
%LPD*%
%AMOC8*
5,1,8,0,0,1.08239X$1,22.5*
%
%ADD10C,0.0820*%
%ADD11R,0.0820X0.0820*%
%ADD12C,0.0437*%
D10*
X009052Y002250D03*
X010052Y002250D03*
X011052Y002250D03*
X012052Y002250D03*
X013752Y002350D03*
X014752Y002350D03*
X015752Y002350D03*
X016752Y002350D03*
X017752Y002350D03*
X018752Y002350D03*
X019752Y002350D03*
X020752Y002350D03*
X022752Y002350D03*
X023752Y002350D03*
X024752Y002350D03*
X025752Y002350D03*
X026752Y002350D03*
X027752Y002350D03*
X031052Y002250D03*
X032052Y002250D03*
X033052Y002250D03*
X033052Y004250D03*
X033052Y005250D03*
X033052Y006250D03*
X033052Y009300D03*
X033052Y010300D03*
X033052Y011300D03*
X033052Y012300D03*
X033052Y013300D03*
X033052Y014300D03*
X033052Y015300D03*
X033052Y018350D03*
X033052Y019350D03*
X033052Y020350D03*
X033052Y021350D03*
X027752Y021350D03*
X026752Y021350D03*
X025752Y021350D03*
X024752Y021350D03*
X023752Y021350D03*
X022752Y021350D03*
X021752Y021350D03*
X020752Y021350D03*
X019252Y021350D03*
X018252Y021350D03*
X017252Y021350D03*
X016252Y021350D03*
X015252Y021350D03*
X014252Y021350D03*
X013252Y021350D03*
X012252Y021350D03*
X011252Y021350D03*
X010252Y021350D03*
X012052Y004250D03*
X013052Y004250D03*
D11*
X033052Y007250D03*
X033052Y016300D03*
D12*
X027052Y013950D03*
X027052Y012850D03*
X027052Y011750D03*
X027052Y010650D03*
X027052Y009750D03*
X025352Y008350D03*
X027052Y006750D03*
X023052Y011350D03*
X022052Y011350D03*
X020252Y014450D03*
X021552Y015950D03*
X022552Y016450D03*
X023552Y016950D03*
X025352Y015650D03*
X024652Y015350D03*
X018752Y015950D03*
X017452Y016750D03*
X016152Y016750D03*
X014752Y016750D03*
X013352Y016750D03*
X011952Y016750D03*
M02*
