G75*
%MOIN*%
%OFA0B0*%
%FSLAX24Y24*%
%IPPOS*%
%LPD*%
%AMOC8*
5,1,8,0,0,1.08239X$1,22.5*
%
%ADD10C,0.0040*%
%ADD11C,0.0060*%
%ADD12C,0.0020*%
%ADD13C,0.0080*%
%ADD14R,0.0965X0.0266*%
%ADD15R,0.0180X0.0300*%
%ADD16C,0.0100*%
D10*
X008812Y003100D02*
X009119Y003100D01*
X008965Y003254D02*
X008965Y002947D01*
X008891Y003370D02*
X009198Y003370D01*
X009352Y003370D02*
X009659Y003370D01*
X009812Y003370D02*
X010042Y003370D01*
X010119Y003447D01*
X010119Y003754D01*
X010042Y003830D01*
X009812Y003830D01*
X009812Y003370D01*
X009850Y003423D02*
X010003Y003270D01*
X010157Y003423D01*
X010157Y003730D01*
X010310Y003730D02*
X010310Y003270D01*
X010540Y003270D01*
X010617Y003347D01*
X010617Y003500D01*
X010540Y003577D01*
X010310Y003577D01*
X009850Y003730D02*
X009850Y003423D01*
X009712Y003100D02*
X010019Y003100D01*
X010712Y003000D02*
X011019Y003000D01*
X011077Y003270D02*
X010847Y003270D01*
X010770Y003347D01*
X010847Y003423D01*
X011077Y003423D01*
X011077Y003500D02*
X011077Y003270D01*
X011077Y003500D02*
X011001Y003577D01*
X010847Y003577D01*
X011231Y003577D02*
X011384Y003577D01*
X011308Y003654D02*
X011308Y003347D01*
X011384Y003270D01*
X011614Y003347D02*
X011691Y003270D01*
X011614Y003347D02*
X011614Y003654D01*
X011538Y003577D02*
X011691Y003577D01*
X012305Y003577D02*
X012382Y003577D01*
X012382Y003270D01*
X012458Y003270D02*
X012305Y003270D01*
X012465Y003154D02*
X012465Y002847D01*
X012312Y003000D02*
X012619Y003000D01*
X012612Y003270D02*
X012612Y003577D01*
X012842Y003577D01*
X012919Y003500D01*
X012919Y003270D01*
X012382Y003730D02*
X012382Y003807D01*
X014170Y004770D02*
X014477Y004770D01*
X014324Y004770D02*
X014324Y005230D01*
X014170Y005077D01*
X013819Y005330D02*
X013512Y005330D01*
X013512Y004870D01*
X013512Y005100D02*
X013665Y005100D01*
X013358Y005330D02*
X013052Y005330D01*
X013052Y004870D01*
X012898Y004947D02*
X012898Y005254D01*
X012821Y005330D01*
X012668Y005330D01*
X012591Y005254D01*
X012591Y004947D01*
X012668Y004870D01*
X012821Y004870D01*
X012898Y004947D01*
X013052Y005100D02*
X013205Y005100D01*
X012438Y005330D02*
X012131Y004870D01*
X011977Y004870D02*
X011977Y005330D01*
X011670Y005330D02*
X011670Y004870D01*
X011517Y004947D02*
X011517Y005254D01*
X011440Y005330D01*
X011287Y005330D01*
X011210Y005254D01*
X011210Y004947D01*
X011287Y004870D01*
X011440Y004870D01*
X011517Y004947D01*
X011670Y005330D02*
X011977Y004870D01*
X013728Y006270D02*
X014035Y006270D01*
X013882Y006270D02*
X013882Y006730D01*
X013728Y006577D01*
X014189Y006730D02*
X014189Y006270D01*
X014189Y006423D02*
X014419Y006577D01*
X014189Y006423D02*
X014419Y006270D01*
X014708Y005230D02*
X014861Y005230D01*
X014938Y005154D01*
X014631Y004847D01*
X014708Y004770D01*
X014861Y004770D01*
X014938Y004847D01*
X014938Y005154D01*
X014708Y005230D02*
X014631Y005154D01*
X014631Y004847D01*
X015552Y004847D02*
X015628Y004770D01*
X015859Y004770D01*
X015859Y005077D01*
X016012Y005000D02*
X016165Y005000D01*
X016012Y004770D02*
X016012Y005230D01*
X016319Y005230D01*
X015552Y005077D02*
X015552Y004847D01*
X017491Y004700D02*
X017798Y004700D01*
X017952Y004700D02*
X018105Y004777D01*
X018182Y004777D01*
X018259Y004700D01*
X018259Y004547D01*
X018182Y004470D01*
X018028Y004470D01*
X017952Y004547D01*
X017952Y004700D02*
X017952Y004930D01*
X018259Y004930D01*
X018412Y004930D02*
X018412Y004623D01*
X018565Y004470D01*
X018719Y004623D01*
X018719Y004930D01*
X019170Y005470D02*
X019477Y005470D01*
X019324Y005470D02*
X019324Y005930D01*
X019170Y005777D01*
X019631Y005854D02*
X019631Y005547D01*
X019938Y005854D01*
X019938Y005547D01*
X019861Y005470D01*
X019708Y005470D01*
X019631Y005547D01*
X019631Y005854D02*
X019708Y005930D01*
X019861Y005930D01*
X019938Y005854D01*
X020552Y005777D02*
X020552Y005547D01*
X020628Y005470D01*
X020859Y005470D01*
X020859Y005777D01*
X021012Y005700D02*
X021165Y005700D01*
X021012Y005470D02*
X021012Y005930D01*
X021319Y005930D01*
X020982Y006770D02*
X020828Y006770D01*
X020752Y006847D01*
X020752Y007000D02*
X020905Y007077D01*
X020982Y007077D01*
X021058Y007000D01*
X021058Y006847D01*
X020982Y006770D01*
X020752Y007000D02*
X020752Y007230D01*
X021058Y007230D01*
X020598Y007000D02*
X020291Y007000D01*
X020138Y006923D02*
X020138Y006847D01*
X020061Y006770D01*
X019908Y006770D01*
X019831Y006847D01*
X019677Y006847D02*
X019601Y006770D01*
X019447Y006770D01*
X019370Y006847D01*
X019370Y006923D01*
X019447Y007000D01*
X019601Y007000D01*
X019677Y006923D01*
X019677Y006847D01*
X019601Y007000D02*
X019677Y007077D01*
X019677Y007154D01*
X019601Y007230D01*
X019447Y007230D01*
X019370Y007154D01*
X019370Y007077D01*
X019447Y007000D01*
X019217Y007000D02*
X018987Y007000D01*
X018910Y007077D01*
X018910Y007154D01*
X018987Y007230D01*
X019140Y007230D01*
X019217Y007154D01*
X019217Y006847D01*
X019140Y006770D01*
X018987Y006770D01*
X018910Y006847D01*
X018757Y006770D02*
X018450Y006770D01*
X018603Y006770D02*
X018603Y007230D01*
X018450Y007077D01*
X018296Y007154D02*
X018219Y007230D01*
X018066Y007230D01*
X017989Y007154D01*
X017989Y006847D01*
X018066Y006770D01*
X018219Y006770D01*
X018296Y006847D01*
X017682Y006770D02*
X017682Y007230D01*
X017529Y007230D02*
X017836Y007230D01*
X017375Y006770D02*
X017068Y006770D01*
X017068Y007230D01*
X017028Y008070D02*
X017259Y008070D01*
X017259Y008377D01*
X017412Y008300D02*
X017565Y008300D01*
X017412Y008070D02*
X017412Y008530D01*
X017719Y008530D01*
X018191Y008300D02*
X018498Y008300D01*
X018652Y008300D02*
X018805Y008377D01*
X018882Y008377D01*
X018959Y008300D01*
X018959Y008147D01*
X018882Y008070D01*
X018728Y008070D01*
X018652Y008147D01*
X018652Y008300D02*
X018652Y008530D01*
X018959Y008530D01*
X019112Y008530D02*
X019112Y008223D01*
X019265Y008070D01*
X019419Y008223D01*
X019419Y008530D01*
X019908Y007230D02*
X020061Y007230D01*
X020138Y007154D01*
X020138Y007077D01*
X020061Y007000D01*
X020138Y006923D01*
X020061Y007000D02*
X019984Y007000D01*
X019831Y007154D02*
X019908Y007230D01*
X017028Y008070D02*
X016952Y008147D01*
X016952Y008377D01*
X016338Y008070D02*
X016031Y008070D01*
X016184Y008070D02*
X016184Y008530D01*
X016031Y008377D01*
X017645Y004854D02*
X017645Y004547D01*
X009659Y003830D02*
X009352Y003830D01*
X009352Y003370D01*
X009352Y003600D02*
X009505Y003600D01*
X008891Y003830D02*
X008891Y003370D01*
X011972Y012670D02*
X012279Y012670D01*
X012126Y012670D02*
X012126Y013130D01*
X011972Y012977D01*
X012433Y013054D02*
X012509Y013130D01*
X012663Y013130D01*
X012740Y013054D01*
X012433Y012747D01*
X012509Y012670D01*
X012663Y012670D01*
X012740Y012747D01*
X012740Y013054D01*
X012893Y013130D02*
X012893Y012670D01*
X012893Y012823D02*
X013123Y012977D01*
X012893Y012823D02*
X013123Y012670D01*
X012433Y012747D02*
X012433Y013054D01*
X013172Y013570D02*
X013479Y013570D01*
X013326Y013570D02*
X013326Y014030D01*
X013172Y013877D01*
X013633Y013954D02*
X013633Y013647D01*
X013940Y013954D01*
X013940Y013647D01*
X013863Y013570D01*
X013709Y013570D01*
X013633Y013647D01*
X013633Y013954D02*
X013709Y014030D01*
X013863Y014030D01*
X013940Y013954D01*
X014093Y014030D02*
X014093Y013570D01*
X014093Y013723D02*
X014323Y013877D01*
X014093Y013723D02*
X014323Y013570D01*
X014672Y014370D02*
X014979Y014370D01*
X014826Y014370D02*
X014826Y014830D01*
X014672Y014677D01*
X015133Y014754D02*
X015133Y014447D01*
X015440Y014754D01*
X015440Y014447D01*
X015363Y014370D01*
X015209Y014370D01*
X015133Y014447D01*
X015133Y014754D02*
X015209Y014830D01*
X015363Y014830D01*
X015440Y014754D01*
X015593Y014830D02*
X015593Y014370D01*
X015593Y014523D02*
X015823Y014677D01*
X015593Y014523D02*
X015823Y014370D01*
X015872Y015170D02*
X016179Y015170D01*
X016026Y015170D02*
X016026Y015630D01*
X015872Y015477D01*
X016333Y015554D02*
X016333Y015247D01*
X016640Y015554D01*
X016640Y015247D01*
X016563Y015170D01*
X016409Y015170D01*
X016333Y015247D01*
X016793Y015323D02*
X017023Y015477D01*
X016793Y015630D02*
X016793Y015170D01*
X016793Y015323D02*
X017023Y015170D01*
X016640Y015554D02*
X016563Y015630D01*
X016409Y015630D01*
X016333Y015554D01*
X017072Y016070D02*
X017379Y016070D01*
X017226Y016070D02*
X017226Y016530D01*
X017072Y016377D01*
X017533Y016454D02*
X017533Y016147D01*
X017840Y016454D01*
X017840Y016147D01*
X017763Y016070D01*
X017609Y016070D01*
X017533Y016147D01*
X017533Y016454D02*
X017609Y016530D01*
X017763Y016530D01*
X017840Y016454D01*
X017993Y016530D02*
X017993Y016070D01*
X017993Y016223D02*
X018223Y016377D01*
X017993Y016223D02*
X018223Y016070D01*
X019672Y016670D02*
X019979Y016670D01*
X019826Y016670D02*
X019826Y017130D01*
X019672Y016977D01*
X020133Y017054D02*
X020133Y016747D01*
X020440Y017054D01*
X020440Y016747D01*
X020363Y016670D01*
X020209Y016670D01*
X020133Y016747D01*
X020593Y016823D02*
X020823Y016977D01*
X020593Y017130D02*
X020593Y016670D01*
X020593Y016823D02*
X020823Y016670D01*
X020440Y017054D02*
X020363Y017130D01*
X020209Y017130D01*
X020133Y017054D01*
X020279Y017670D02*
X019972Y017670D01*
X020279Y017977D01*
X019972Y017977D01*
X020433Y017900D02*
X020433Y017747D01*
X020509Y017670D01*
X020663Y017670D01*
X020740Y017823D02*
X020433Y017823D01*
X020433Y017900D02*
X020509Y017977D01*
X020663Y017977D01*
X020740Y017900D01*
X020740Y017823D01*
X020893Y017670D02*
X020893Y017977D01*
X021123Y017977D01*
X021200Y017900D01*
X021200Y017670D01*
X021354Y017747D02*
X021354Y017900D01*
X021430Y017977D01*
X021584Y017977D01*
X021660Y017900D01*
X021660Y017823D01*
X021354Y017823D01*
X021354Y017747D02*
X021430Y017670D01*
X021584Y017670D01*
X021814Y017670D02*
X021814Y017977D01*
X021967Y017977D02*
X021814Y017823D01*
X021967Y017977D02*
X022044Y017977D01*
X022198Y017900D02*
X022274Y017977D01*
X022505Y017977D01*
X022428Y017823D02*
X022274Y017823D01*
X022198Y017900D01*
X022198Y017670D02*
X022428Y017670D01*
X022505Y017747D01*
X022428Y017823D01*
X022505Y018420D02*
X022581Y018497D01*
X022505Y018420D02*
X022351Y018420D01*
X022274Y018497D01*
X022274Y018804D01*
X022351Y018880D01*
X022505Y018880D01*
X022581Y018804D01*
X022735Y018880D02*
X022735Y018650D01*
X022888Y018727D01*
X022965Y018727D01*
X023042Y018650D01*
X023042Y018497D01*
X022965Y018420D01*
X022811Y018420D01*
X022735Y018497D01*
X023195Y018573D02*
X023349Y018420D01*
X023502Y018573D01*
X023502Y018880D01*
X023656Y018727D02*
X023809Y018880D01*
X023809Y018420D01*
X023656Y018420D02*
X023962Y018420D01*
X024116Y018497D02*
X024193Y018420D01*
X024346Y018420D01*
X024423Y018497D01*
X024423Y018650D01*
X024269Y018650D01*
X024116Y018497D02*
X024116Y018804D01*
X024193Y018880D01*
X024346Y018880D01*
X024423Y018804D01*
X024576Y018880D02*
X024730Y018880D01*
X024653Y018880D02*
X024653Y018420D01*
X024576Y018420D02*
X024730Y018420D01*
X024883Y018497D02*
X024960Y018420D01*
X025113Y018420D01*
X025190Y018497D01*
X025190Y018804D02*
X025113Y018880D01*
X024960Y018880D01*
X024883Y018804D01*
X024883Y018497D01*
X025344Y018880D02*
X025651Y018880D01*
X025497Y018880D02*
X025497Y018420D01*
X025804Y018650D02*
X026111Y018650D01*
X026264Y018420D02*
X026264Y018880D01*
X026571Y018420D01*
X026571Y018880D01*
X026725Y018880D02*
X026955Y018880D01*
X027032Y018804D01*
X027032Y018497D01*
X026955Y018420D01*
X026725Y018420D01*
X026725Y018880D01*
X023195Y018880D02*
X023195Y018573D01*
X023042Y018880D02*
X022735Y018880D01*
X022121Y018880D02*
X021814Y018880D01*
X021814Y018650D01*
X021967Y018727D01*
X022044Y018727D01*
X022121Y018650D01*
X022121Y018497D01*
X022044Y018420D01*
X021891Y018420D01*
X021814Y018497D01*
X021660Y018497D02*
X021584Y018420D01*
X021430Y018420D01*
X021354Y018497D01*
X021660Y018804D01*
X021660Y018497D01*
X021354Y018497D02*
X021354Y018804D01*
X021430Y018880D01*
X021584Y018880D01*
X021660Y018804D01*
X021200Y018804D02*
X021123Y018880D01*
X020970Y018880D01*
X020893Y018804D01*
X020893Y018497D01*
X020970Y018420D01*
X021123Y018420D01*
X021200Y018497D01*
X021200Y018650D01*
X021047Y018650D01*
X020740Y018804D02*
X020433Y018497D01*
X020433Y018420D01*
X020740Y018420D01*
X020740Y018804D02*
X020740Y018880D01*
X020433Y018880D01*
X020279Y018804D02*
X020279Y018727D01*
X020203Y018650D01*
X019972Y018650D01*
X019972Y018420D02*
X020203Y018420D01*
X020279Y018497D01*
X020279Y018573D01*
X020203Y018650D01*
X020279Y018804D02*
X020203Y018880D01*
X019972Y018880D01*
X019972Y018420D01*
X019982Y013630D02*
X019828Y013630D01*
X019752Y013554D01*
X019752Y013247D01*
X020058Y013554D01*
X020058Y013247D01*
X019982Y013170D01*
X019828Y013170D01*
X019752Y013247D01*
X019598Y013247D02*
X019521Y013170D01*
X019368Y013170D01*
X019291Y013247D01*
X019291Y013554D01*
X019368Y013630D01*
X019521Y013630D01*
X019598Y013554D01*
X019982Y013630D02*
X020058Y013554D01*
X020212Y013400D02*
X020519Y013400D01*
X020442Y013170D02*
X020442Y013630D01*
X020212Y013400D01*
X019138Y013400D02*
X018831Y013400D01*
X018677Y013400D02*
X018370Y013400D01*
X018601Y013630D01*
X018601Y013170D01*
X018831Y013170D02*
X018831Y013630D01*
X019138Y013630D02*
X019138Y013170D01*
X018217Y013554D02*
X017910Y013247D01*
X017910Y013170D01*
X017910Y013630D02*
X018217Y013630D01*
X018217Y013554D01*
X029891Y012430D02*
X029891Y011970D01*
X030121Y011970D01*
X030198Y012047D01*
X030198Y012354D01*
X030121Y012430D01*
X029891Y012430D01*
X030352Y012277D02*
X030505Y012430D01*
X030505Y011970D01*
X030352Y011970D02*
X030659Y011970D01*
X030812Y012047D02*
X030812Y012354D01*
X030889Y012430D01*
X031042Y012430D01*
X031119Y012354D01*
X030812Y012047D01*
X030889Y011970D01*
X031042Y011970D01*
X031119Y012047D01*
X031119Y012354D01*
X031512Y012354D02*
X031589Y012430D01*
X031742Y012430D01*
X031819Y012354D01*
X031819Y012277D01*
X031742Y012200D01*
X031819Y012123D01*
X031819Y012047D01*
X031742Y011970D01*
X031589Y011970D01*
X031512Y012047D01*
X031665Y012200D02*
X031742Y012200D01*
X031742Y011430D02*
X031512Y011200D01*
X031819Y011200D01*
X031742Y010970D02*
X031742Y011430D01*
X031119Y010970D02*
X030812Y010970D01*
X030965Y010970D02*
X030965Y011430D01*
X030812Y011277D01*
X030505Y011430D02*
X030505Y010970D01*
X030352Y010970D02*
X030659Y010970D01*
X030352Y011277D02*
X030505Y011430D01*
X030198Y011354D02*
X030198Y011047D01*
X030121Y010970D01*
X029891Y010970D01*
X029891Y011430D01*
X030121Y011430D01*
X030198Y011354D01*
X030121Y010530D02*
X029891Y010530D01*
X029891Y010070D01*
X030121Y010070D01*
X030198Y010147D01*
X030198Y010454D01*
X030121Y010530D01*
X030352Y010377D02*
X030505Y010530D01*
X030505Y010070D01*
X030352Y010070D02*
X030659Y010070D01*
X030812Y010070D02*
X031119Y010377D01*
X031119Y010454D01*
X031042Y010530D01*
X030889Y010530D01*
X030812Y010454D01*
X030812Y010070D02*
X031119Y010070D01*
X031512Y010147D02*
X031589Y010070D01*
X031742Y010070D01*
X031819Y010147D01*
X031819Y010300D01*
X031742Y010377D01*
X031665Y010377D01*
X031512Y010300D01*
X031512Y010530D01*
X031819Y010530D01*
X031819Y009430D02*
X031665Y009354D01*
X031512Y009200D01*
X031742Y009200D01*
X031819Y009123D01*
X031819Y009047D01*
X031742Y008970D01*
X031589Y008970D01*
X031512Y009047D01*
X031512Y009200D01*
X031119Y009123D02*
X031119Y009047D01*
X031042Y008970D01*
X030889Y008970D01*
X030812Y009047D01*
X030659Y008970D02*
X030352Y008970D01*
X030505Y008970D02*
X030505Y009430D01*
X030352Y009277D01*
X030198Y009354D02*
X030198Y009047D01*
X030121Y008970D01*
X029891Y008970D01*
X029891Y009430D01*
X030121Y009430D01*
X030198Y009354D01*
X030812Y009354D02*
X030889Y009430D01*
X031042Y009430D01*
X031119Y009354D01*
X031119Y009277D01*
X031042Y009200D01*
X031119Y009123D01*
X031042Y009200D02*
X030965Y009200D01*
X031552Y007730D02*
X031782Y007730D01*
X031859Y007654D01*
X031859Y007347D01*
X031782Y007270D01*
X031552Y007270D01*
X031552Y007730D01*
X032012Y007577D02*
X032165Y007730D01*
X032319Y007577D01*
X032319Y007270D01*
X032319Y007500D02*
X032012Y007500D01*
X032012Y007577D02*
X032012Y007270D01*
X032012Y006530D02*
X032012Y006070D01*
X032319Y006070D01*
X031859Y006147D02*
X031782Y006070D01*
X031628Y006070D01*
X031552Y006147D01*
X031552Y006454D01*
X031628Y006530D01*
X031782Y006530D01*
X031859Y006454D01*
X031032Y006510D02*
X031032Y006740D01*
X030956Y006817D01*
X030879Y006740D01*
X030879Y006586D01*
X030802Y006510D01*
X030725Y006586D01*
X030725Y006817D01*
X030725Y006356D02*
X031032Y006356D01*
X031032Y006126D01*
X030956Y006049D01*
X030725Y006049D01*
X030802Y005896D02*
X030725Y005819D01*
X030725Y005589D01*
X030572Y005589D02*
X031032Y005589D01*
X031032Y005819D01*
X030956Y005896D01*
X030802Y005896D01*
X031712Y005300D02*
X032019Y005300D01*
X031865Y004354D02*
X031865Y004047D01*
X031712Y004200D02*
X032019Y004200D01*
X032189Y003430D02*
X032342Y003430D01*
X032419Y003354D01*
X032112Y003047D01*
X032189Y002970D01*
X032342Y002970D01*
X032419Y003047D01*
X032419Y003354D01*
X032189Y003430D02*
X032112Y003354D01*
X032112Y003047D01*
X031959Y002970D02*
X031959Y003277D01*
X031805Y003430D01*
X031652Y003277D01*
X031652Y002970D01*
X031652Y003200D02*
X031959Y003200D01*
X032812Y003100D02*
X033119Y003100D01*
X032965Y003254D02*
X032965Y002947D01*
X031019Y003100D02*
X030712Y003100D01*
X030572Y003901D02*
X030572Y004054D01*
X030572Y003977D02*
X031032Y003977D01*
X031032Y003901D02*
X031032Y004054D01*
X031032Y004208D02*
X030725Y004515D01*
X030649Y004515D01*
X030572Y004438D01*
X030572Y004284D01*
X030649Y004208D01*
X031032Y004208D02*
X031032Y004515D01*
X030956Y004668D02*
X030649Y004668D01*
X030572Y004745D01*
X030572Y004898D01*
X030649Y004975D01*
X030956Y004975D02*
X031032Y004898D01*
X031032Y004745D01*
X030956Y004668D01*
X030942Y013070D02*
X031019Y013147D01*
X031019Y013454D01*
X030942Y013530D01*
X030789Y013530D01*
X030712Y013454D01*
X030712Y013377D01*
X030789Y013300D01*
X031019Y013300D01*
X030942Y013070D02*
X030789Y013070D01*
X030712Y013147D01*
X030559Y013147D02*
X030559Y013454D01*
X030482Y013530D01*
X030252Y013530D01*
X030252Y013070D01*
X030482Y013070D01*
X030559Y013147D01*
X031512Y013070D02*
X031819Y013377D01*
X031819Y013454D01*
X031742Y013530D01*
X031589Y013530D01*
X031512Y013454D01*
X031512Y013070D02*
X031819Y013070D01*
X031819Y014070D02*
X031512Y014070D01*
X031665Y014070D02*
X031665Y014530D01*
X031512Y014377D01*
X031019Y014377D02*
X030942Y014300D01*
X030789Y014300D01*
X030712Y014377D01*
X030712Y014454D01*
X030789Y014530D01*
X030942Y014530D01*
X031019Y014454D01*
X031019Y014377D01*
X030942Y014300D02*
X031019Y014223D01*
X031019Y014147D01*
X030942Y014070D01*
X030789Y014070D01*
X030712Y014147D01*
X030712Y014223D01*
X030789Y014300D01*
X030559Y014147D02*
X030559Y014454D01*
X030482Y014530D01*
X030252Y014530D01*
X030252Y014070D01*
X030482Y014070D01*
X030559Y014147D01*
X031633Y015147D02*
X031709Y015070D01*
X031863Y015070D01*
X031940Y015147D01*
X031940Y015300D01*
X031863Y015377D01*
X031786Y015377D01*
X031633Y015300D01*
X031633Y015530D01*
X031940Y015530D01*
X032093Y015530D02*
X032093Y015223D01*
X032247Y015070D01*
X032400Y015223D01*
X032400Y015530D01*
X032342Y016170D02*
X032112Y016170D01*
X032112Y016630D01*
X032342Y016630D01*
X032419Y016554D01*
X032419Y016247D01*
X032342Y016170D01*
X031959Y016170D02*
X031959Y016630D01*
X031652Y016630D02*
X031959Y016170D01*
X031652Y016170D02*
X031652Y016630D01*
X031498Y016554D02*
X031421Y016630D01*
X031268Y016630D01*
X031191Y016554D01*
X031191Y016247D01*
X031268Y016170D01*
X031421Y016170D01*
X031498Y016247D01*
X031498Y016400D01*
X031345Y016400D01*
X031479Y015300D02*
X031172Y015300D01*
X030932Y018247D02*
X030472Y018247D01*
X030472Y018477D01*
X030549Y018554D01*
X030625Y018554D01*
X030702Y018477D01*
X030702Y018247D01*
X030932Y018247D02*
X030932Y018477D01*
X030856Y018554D01*
X030779Y018554D01*
X030702Y018477D01*
X030856Y018708D02*
X030472Y018708D01*
X030472Y019015D02*
X030856Y019015D01*
X030932Y018938D01*
X030932Y018784D01*
X030856Y018708D01*
X031452Y018730D02*
X031682Y018730D01*
X031759Y018654D01*
X031759Y018347D01*
X031682Y018270D01*
X031452Y018270D01*
X031452Y018730D01*
X031912Y018654D02*
X031989Y018730D01*
X032142Y018730D01*
X032219Y018654D01*
X032219Y018577D01*
X031912Y018270D01*
X032219Y018270D01*
X030932Y019321D02*
X030472Y019321D01*
X030472Y019168D02*
X030472Y019475D01*
X030472Y019628D02*
X030472Y019935D01*
X030472Y019782D02*
X030932Y019782D01*
X031172Y019877D02*
X031326Y020030D01*
X031326Y019570D01*
X031479Y019570D02*
X031172Y019570D01*
X031633Y019647D02*
X031940Y019954D01*
X031940Y019647D01*
X031863Y019570D01*
X031709Y019570D01*
X031633Y019647D01*
X031633Y019954D01*
X031709Y020030D01*
X031863Y020030D01*
X031940Y019954D01*
X032093Y020030D02*
X032093Y019570D01*
X032093Y019723D02*
X032323Y019877D01*
X032093Y019723D02*
X032323Y019570D01*
X030932Y020166D02*
X030856Y020089D01*
X030549Y020089D01*
X030472Y020166D01*
X030472Y020319D01*
X030549Y020396D01*
X030856Y020396D01*
X030932Y020319D01*
X030932Y020166D01*
X030932Y020549D02*
X030472Y020549D01*
X030932Y020856D01*
X030472Y020856D01*
X030549Y021010D02*
X030625Y021010D01*
X030702Y021086D01*
X030702Y021240D01*
X030779Y021317D01*
X030856Y021317D01*
X030932Y021240D01*
X030932Y021086D01*
X030856Y021010D01*
X030549Y021010D02*
X030472Y021086D01*
X030472Y021240D01*
X030549Y021317D01*
X031452Y021330D02*
X031452Y020870D01*
X031682Y020870D01*
X031759Y020947D01*
X031759Y021254D01*
X031682Y021330D01*
X031452Y021330D01*
X031912Y021254D02*
X031989Y021330D01*
X032142Y021330D01*
X032219Y021254D01*
X032219Y021177D01*
X032142Y021100D01*
X032219Y021023D01*
X032219Y020947D01*
X032142Y020870D01*
X031989Y020870D01*
X031912Y020947D01*
X032065Y021100D02*
X032142Y021100D01*
D11*
X027922Y020739D02*
X027582Y020512D01*
X027639Y020370D02*
X027752Y020370D01*
X027809Y020314D01*
X027809Y020143D01*
X027922Y020143D02*
X027582Y020143D01*
X027582Y020314D01*
X027639Y020370D01*
X027809Y020257D02*
X027922Y020370D01*
X027922Y020512D02*
X027582Y020739D01*
X026922Y020739D02*
X026582Y020512D01*
X026582Y020370D02*
X026582Y020143D01*
X026582Y020257D02*
X026922Y020257D01*
X026922Y020512D02*
X026582Y020739D01*
X025922Y020739D02*
X025922Y020512D01*
X025696Y020739D01*
X025639Y020739D01*
X025582Y020682D01*
X025582Y020568D01*
X025639Y020512D01*
X024922Y020568D02*
X024866Y020512D01*
X024922Y020568D02*
X024922Y020682D01*
X024866Y020739D01*
X024809Y020739D01*
X024752Y020682D01*
X024752Y020625D01*
X024752Y020682D02*
X024696Y020739D01*
X024639Y020739D01*
X024582Y020682D01*
X024582Y020568D01*
X024639Y020512D01*
X023922Y020682D02*
X023582Y020682D01*
X023752Y020512D01*
X023752Y020739D01*
X022922Y020682D02*
X022922Y020568D01*
X022866Y020512D01*
X022752Y020512D02*
X022696Y020625D01*
X022696Y020682D01*
X022752Y020739D01*
X022866Y020739D01*
X022922Y020682D01*
X022752Y020512D02*
X022582Y020512D01*
X022582Y020739D01*
X021922Y020682D02*
X021922Y020568D01*
X021866Y020512D01*
X021752Y020512D01*
X021752Y020682D01*
X021809Y020739D01*
X021866Y020739D01*
X021922Y020682D01*
X021752Y020512D02*
X021639Y020625D01*
X021582Y020739D01*
X020922Y020512D02*
X020866Y020512D01*
X020639Y020739D01*
X020582Y020739D01*
X020582Y020512D01*
X019422Y020568D02*
X019366Y020512D01*
X019309Y020512D01*
X019252Y020568D01*
X019252Y020682D01*
X019309Y020739D01*
X019366Y020739D01*
X019422Y020682D01*
X019422Y020568D01*
X019252Y020568D02*
X019196Y020512D01*
X019139Y020512D01*
X019082Y020568D01*
X019082Y020682D01*
X019139Y020739D01*
X019196Y020739D01*
X019252Y020682D01*
X018422Y020682D02*
X018422Y020568D01*
X018366Y020512D01*
X018252Y020568D02*
X018252Y020739D01*
X018139Y020739D02*
X018082Y020682D01*
X018082Y020568D01*
X018139Y020512D01*
X018196Y020512D01*
X018252Y020568D01*
X018139Y020739D02*
X018366Y020739D01*
X018422Y020682D01*
X017422Y020682D02*
X017422Y020568D01*
X017366Y020512D01*
X017139Y020739D01*
X017366Y020739D01*
X017422Y020682D01*
X017366Y020512D02*
X017139Y020512D01*
X017082Y020568D01*
X017082Y020682D01*
X017139Y020739D01*
X017422Y020370D02*
X017422Y020143D01*
X017422Y020257D02*
X017082Y020257D01*
X017196Y020143D01*
X016422Y020143D02*
X016422Y020370D01*
X016422Y020257D02*
X016082Y020257D01*
X016196Y020143D01*
X016196Y020512D02*
X016082Y020625D01*
X016422Y020625D01*
X016422Y020512D02*
X016422Y020739D01*
X015422Y020739D02*
X015422Y020512D01*
X015196Y020739D01*
X015139Y020739D01*
X015082Y020682D01*
X015082Y020568D01*
X015139Y020512D01*
X015082Y020257D02*
X015422Y020257D01*
X015422Y020370D02*
X015422Y020143D01*
X015196Y020143D02*
X015082Y020257D01*
X014422Y020257D02*
X014082Y020257D01*
X014196Y020143D01*
X014422Y020143D02*
X014422Y020370D01*
X014366Y020512D02*
X014422Y020568D01*
X014422Y020682D01*
X014366Y020739D01*
X014309Y020739D01*
X014252Y020682D01*
X014252Y020625D01*
X014252Y020682D02*
X014196Y020739D01*
X014139Y020739D01*
X014082Y020682D01*
X014082Y020568D01*
X014139Y020512D01*
X013422Y020512D02*
X013422Y020682D01*
X013366Y020739D01*
X013139Y020739D01*
X013082Y020682D01*
X013082Y020512D01*
X013422Y020512D01*
X013422Y020370D02*
X013082Y020370D01*
X013082Y020143D02*
X013422Y020370D01*
X013422Y020143D02*
X013082Y020143D01*
X013139Y020002D02*
X013082Y019945D01*
X013082Y019832D01*
X013139Y019775D01*
X013366Y019775D01*
X013422Y019832D01*
X013422Y019945D01*
X013366Y020002D01*
X013252Y020002D01*
X013252Y019888D01*
X012422Y019775D02*
X012082Y019775D01*
X012082Y019945D01*
X012139Y020002D01*
X012252Y020002D01*
X012309Y019945D01*
X012309Y019775D01*
X012309Y019888D02*
X012422Y020002D01*
X012422Y020143D02*
X012082Y020143D01*
X012082Y020370D01*
X012082Y020512D02*
X012082Y020739D01*
X012252Y020625D02*
X012252Y020512D01*
X012422Y020512D02*
X012082Y020512D01*
X012252Y020257D02*
X012252Y020143D01*
X012422Y020143D02*
X012422Y020370D01*
X012422Y019634D02*
X012196Y019634D01*
X012082Y019520D01*
X012196Y019407D01*
X012422Y019407D01*
X012252Y019407D02*
X012252Y019634D01*
X011422Y019832D02*
X011366Y019775D01*
X011422Y019832D02*
X011422Y019945D01*
X011366Y020002D01*
X011309Y020002D01*
X011252Y019945D01*
X011252Y019832D01*
X011196Y019775D01*
X011139Y019775D01*
X011082Y019832D01*
X011082Y019945D01*
X011139Y020002D01*
X011082Y020143D02*
X011082Y020314D01*
X011139Y020370D01*
X011366Y020370D01*
X011422Y020314D01*
X011422Y020143D01*
X011082Y020143D01*
X011196Y020512D02*
X011082Y020625D01*
X011196Y020739D01*
X011422Y020739D01*
X011252Y020739D02*
X011252Y020512D01*
X011196Y020512D02*
X011422Y020512D01*
X010422Y020512D02*
X010422Y020739D01*
X010422Y020512D02*
X010082Y020512D01*
X010139Y020370D02*
X010082Y020314D01*
X010082Y020200D01*
X010139Y020143D01*
X010366Y020143D01*
X010422Y020200D01*
X010422Y020314D01*
X010366Y020370D01*
X010366Y020002D02*
X010422Y019945D01*
X010422Y019832D01*
X010366Y019775D01*
X010252Y019832D02*
X010252Y019945D01*
X010309Y020002D01*
X010366Y020002D01*
X010252Y019832D02*
X010196Y019775D01*
X010139Y019775D01*
X010082Y019832D01*
X010082Y019945D01*
X010139Y020002D01*
X020802Y014270D02*
X020802Y013030D01*
X020804Y013007D01*
X020809Y012984D01*
X020818Y012962D01*
X020831Y012942D01*
X020846Y012924D01*
X020864Y012909D01*
X020884Y012896D01*
X020906Y012887D01*
X020929Y012882D01*
X020952Y012880D01*
X024152Y012880D01*
X024175Y012882D01*
X024198Y012887D01*
X024220Y012896D01*
X024240Y012909D01*
X024258Y012924D01*
X024273Y012942D01*
X024286Y012962D01*
X024295Y012984D01*
X024300Y013007D01*
X024302Y013030D01*
X024302Y013450D01*
X024302Y013850D01*
X024302Y014270D01*
X024300Y014293D01*
X024295Y014316D01*
X024286Y014338D01*
X024273Y014358D01*
X024258Y014376D01*
X024240Y014391D01*
X024220Y014404D01*
X024198Y014413D01*
X024175Y014418D01*
X024152Y014420D01*
X020952Y014420D01*
X020929Y014418D01*
X020906Y014413D01*
X020884Y014404D01*
X020864Y014391D01*
X020846Y014376D01*
X020831Y014358D01*
X020818Y014338D01*
X020809Y014316D01*
X020804Y014293D01*
X020802Y014270D01*
X024302Y013850D02*
X024275Y013848D01*
X024248Y013843D01*
X024222Y013833D01*
X024198Y013821D01*
X024176Y013805D01*
X024156Y013787D01*
X024139Y013765D01*
X024124Y013742D01*
X024114Y013717D01*
X024106Y013691D01*
X024102Y013664D01*
X024102Y013636D01*
X024106Y013609D01*
X024114Y013583D01*
X024124Y013558D01*
X024139Y013535D01*
X024156Y013513D01*
X024176Y013495D01*
X024198Y013479D01*
X024222Y013467D01*
X024248Y013457D01*
X024275Y013452D01*
X024302Y013450D01*
X024143Y011707D02*
X023822Y011707D01*
X023716Y011600D01*
X023822Y011494D01*
X024036Y011494D01*
X024143Y011387D01*
X024036Y011280D01*
X023716Y011280D01*
X023498Y011387D02*
X023391Y011494D01*
X023178Y011494D01*
X023071Y011600D01*
X023178Y011707D01*
X023498Y011707D01*
X023498Y011387D02*
X023391Y011280D01*
X023071Y011280D01*
X022853Y011494D02*
X022426Y011494D01*
X022426Y011600D02*
X022533Y011707D01*
X022747Y011707D01*
X022853Y011600D01*
X022853Y011494D01*
X022747Y011280D02*
X022533Y011280D01*
X022426Y011387D01*
X022426Y011600D01*
X022209Y011600D02*
X022209Y011280D01*
X022209Y011600D02*
X022102Y011707D01*
X021782Y011707D01*
X021782Y011280D01*
X021564Y011280D02*
X021244Y011280D01*
X021137Y011387D01*
X021137Y011600D01*
X021244Y011707D01*
X021564Y011707D01*
X021564Y011921D02*
X021564Y011280D01*
X020920Y011280D02*
X020600Y011280D01*
X020493Y011387D01*
X020600Y011494D01*
X020920Y011494D01*
X020920Y011600D02*
X020920Y011280D01*
X020920Y011600D02*
X020813Y011707D01*
X020600Y011707D01*
X020275Y011921D02*
X020275Y011280D01*
X019848Y011280D02*
X019848Y011921D01*
X020062Y011707D01*
X020275Y011921D01*
X018987Y011707D02*
X018774Y011707D01*
X018881Y011814D02*
X018881Y011387D01*
X018987Y011280D01*
X018556Y011280D02*
X018556Y011600D01*
X018450Y011707D01*
X018129Y011707D01*
X018129Y011280D01*
X017912Y011494D02*
X017485Y011494D01*
X017485Y011600D02*
X017592Y011707D01*
X017805Y011707D01*
X017912Y011600D01*
X017912Y011494D01*
X017805Y011280D02*
X017592Y011280D01*
X017485Y011387D01*
X017485Y011600D01*
X017267Y011600D02*
X017267Y011280D01*
X017054Y011280D02*
X017054Y011600D01*
X017161Y011707D01*
X017267Y011600D01*
X017054Y011600D02*
X016947Y011707D01*
X016840Y011707D01*
X016840Y011280D01*
X016840Y010977D02*
X016840Y010871D01*
X016840Y010657D02*
X016840Y010230D01*
X016946Y010230D02*
X016733Y010230D01*
X016515Y010337D02*
X016409Y010230D01*
X016088Y010230D01*
X016088Y010016D02*
X016088Y010657D01*
X016409Y010657D01*
X016515Y010550D01*
X016515Y010337D01*
X016733Y010657D02*
X016840Y010657D01*
X017163Y010550D02*
X017163Y010337D01*
X017269Y010230D01*
X017483Y010230D01*
X017590Y010444D02*
X017163Y010444D01*
X017163Y010550D02*
X017269Y010657D01*
X017483Y010657D01*
X017590Y010550D01*
X017590Y010444D01*
X017807Y010657D02*
X018021Y010657D01*
X017914Y010764D02*
X017914Y010337D01*
X018021Y010230D01*
X018237Y010230D02*
X018664Y010230D01*
X018664Y010657D02*
X018237Y010657D01*
X018664Y010657D02*
X018237Y010230D01*
X017914Y009927D02*
X017914Y009821D01*
X017914Y009607D02*
X017914Y009180D01*
X017807Y009180D02*
X018021Y009180D01*
X018237Y009287D02*
X018237Y009500D01*
X018344Y009607D01*
X018557Y009607D01*
X018664Y009500D01*
X018664Y009394D01*
X018237Y009394D01*
X018237Y009287D02*
X018344Y009180D01*
X018557Y009180D01*
X018881Y009180D02*
X019095Y009180D01*
X018988Y009180D02*
X018988Y009821D01*
X018881Y009821D01*
X019311Y009500D02*
X019418Y009607D01*
X019738Y009607D01*
X019738Y009821D02*
X019738Y009180D01*
X019418Y009180D01*
X019311Y009287D01*
X019311Y009500D01*
X019956Y009500D02*
X020383Y009500D01*
X020600Y009607D02*
X020814Y009180D01*
X021027Y009607D01*
X021245Y009714D02*
X021351Y009821D01*
X021565Y009821D01*
X021672Y009714D01*
X021672Y009607D01*
X021245Y009180D01*
X021672Y009180D01*
X021135Y010016D02*
X021029Y010016D01*
X021135Y010016D02*
X021242Y010123D01*
X021242Y010657D01*
X020815Y010657D02*
X020815Y010337D01*
X020922Y010230D01*
X021242Y010230D01*
X020598Y010230D02*
X020277Y010230D01*
X020170Y010337D01*
X020277Y010444D01*
X020598Y010444D01*
X020598Y010550D02*
X020598Y010230D01*
X020598Y010550D02*
X020491Y010657D01*
X020277Y010657D01*
X019953Y010871D02*
X019953Y010230D01*
X019526Y010230D02*
X019526Y010871D01*
X019739Y010657D01*
X019953Y010871D01*
X017914Y009607D02*
X017807Y009607D01*
X017590Y009500D02*
X017590Y009180D01*
X017590Y009500D02*
X017483Y009607D01*
X017269Y009607D01*
X017163Y009500D01*
X016945Y009607D02*
X016625Y009607D01*
X016518Y009500D01*
X016625Y009394D01*
X016838Y009394D01*
X016945Y009287D01*
X016838Y009180D01*
X016518Y009180D01*
X016301Y009500D02*
X015873Y009500D01*
X015657Y009607D02*
X015550Y009607D01*
X015336Y009394D01*
X015336Y009607D02*
X015336Y009180D01*
X015119Y009394D02*
X014692Y009394D01*
X014692Y009500D02*
X014692Y009287D01*
X014799Y009180D01*
X015012Y009180D01*
X015119Y009394D02*
X015119Y009500D01*
X015012Y009607D01*
X014799Y009607D01*
X014692Y009500D01*
X014474Y009607D02*
X014261Y009180D01*
X014047Y009607D01*
X013724Y009607D02*
X013724Y009180D01*
X013618Y009180D02*
X013831Y009180D01*
X013724Y009607D02*
X013618Y009607D01*
X013401Y009607D02*
X013294Y009607D01*
X013080Y009394D01*
X013080Y009607D02*
X013080Y009180D01*
X012863Y009180D02*
X012543Y009180D01*
X012436Y009287D01*
X012436Y009500D01*
X012543Y009607D01*
X012863Y009607D01*
X012863Y009821D02*
X012863Y009180D01*
X013724Y009821D02*
X013724Y009927D01*
X013832Y010230D02*
X013832Y010764D01*
X013939Y010871D01*
X013939Y010550D02*
X013725Y010550D01*
X013507Y010550D02*
X013507Y010230D01*
X013187Y010230D01*
X013080Y010337D01*
X013187Y010444D01*
X013507Y010444D01*
X013507Y010550D02*
X013401Y010657D01*
X013187Y010657D01*
X012863Y010230D02*
X012436Y010230D01*
X012436Y010871D01*
X012436Y011280D02*
X012436Y011921D01*
X012649Y011707D01*
X012863Y011921D01*
X012863Y011280D01*
X013080Y011387D02*
X013080Y011600D01*
X013187Y011707D01*
X013401Y011707D01*
X013507Y011600D01*
X013507Y011494D01*
X013080Y011494D01*
X013080Y011387D02*
X013187Y011280D01*
X013401Y011280D01*
X013725Y011387D02*
X013832Y011494D01*
X014152Y011494D01*
X014152Y011600D02*
X014152Y011280D01*
X013832Y011280D01*
X013725Y011387D01*
X014045Y011707D02*
X014152Y011600D01*
X014045Y011707D02*
X013832Y011707D01*
X014370Y011600D02*
X014476Y011707D01*
X014797Y011707D01*
X015014Y011707D02*
X015014Y011387D01*
X015121Y011280D01*
X015441Y011280D01*
X015441Y011707D01*
X015659Y011707D02*
X015659Y011280D01*
X015659Y011494D02*
X015872Y011707D01*
X015979Y011707D01*
X016196Y011600D02*
X016303Y011707D01*
X016516Y011707D01*
X016623Y011600D01*
X016623Y011494D01*
X016196Y011494D01*
X016196Y011600D02*
X016196Y011387D01*
X016303Y011280D01*
X016516Y011280D01*
X015871Y010764D02*
X015764Y010871D01*
X015551Y010871D01*
X015444Y010764D01*
X015444Y010657D01*
X015551Y010550D01*
X015764Y010550D01*
X015871Y010444D01*
X015871Y010337D01*
X015764Y010230D01*
X015551Y010230D01*
X015444Y010337D01*
X014582Y010444D02*
X014155Y010444D01*
X014155Y010550D02*
X014261Y010657D01*
X014475Y010657D01*
X014582Y010550D01*
X014582Y010444D01*
X014475Y010230D02*
X014261Y010230D01*
X014155Y010337D01*
X014155Y010550D01*
X014370Y011280D02*
X014690Y011280D01*
X014797Y011387D01*
X014690Y011494D01*
X014476Y011494D01*
X014370Y011600D01*
X017163Y009821D02*
X017163Y009180D01*
X017270Y007986D02*
X017034Y007986D01*
X017034Y007514D02*
X017270Y007514D01*
X019116Y005868D02*
X019116Y005632D01*
X019589Y005632D02*
X019589Y005868D01*
X016922Y004328D02*
X016809Y004441D01*
X016582Y004441D01*
X016582Y004214D02*
X016809Y004214D01*
X016922Y004328D01*
X016866Y004073D02*
X016922Y004016D01*
X016922Y003903D01*
X016866Y003846D01*
X016866Y003718D02*
X016922Y003718D01*
X016922Y003662D01*
X016866Y003662D01*
X016866Y003718D01*
X016866Y003520D02*
X016922Y003463D01*
X016922Y003350D01*
X016866Y003293D01*
X016752Y003407D02*
X016752Y003463D01*
X016809Y003520D01*
X016866Y003520D01*
X016752Y003463D02*
X016696Y003520D01*
X016639Y003520D01*
X016582Y003463D01*
X016582Y003350D01*
X016639Y003293D01*
X016752Y003152D02*
X016752Y002925D01*
X016639Y003038D02*
X016866Y003038D01*
X017582Y003293D02*
X017582Y003520D01*
X017696Y003463D02*
X017752Y003520D01*
X017866Y003520D01*
X017922Y003463D01*
X017922Y003350D01*
X017866Y003293D01*
X017752Y003293D02*
X017696Y003407D01*
X017696Y003463D01*
X017752Y003293D02*
X017582Y003293D01*
X017752Y003152D02*
X017752Y002925D01*
X017639Y003038D02*
X017866Y003038D01*
X018582Y002982D02*
X018639Y002925D01*
X018866Y002925D01*
X018922Y002982D01*
X018922Y003095D01*
X018866Y003152D01*
X018752Y003152D01*
X018752Y003038D01*
X018639Y003152D02*
X018582Y003095D01*
X018582Y002982D01*
X018582Y003293D02*
X018922Y003520D01*
X018582Y003520D01*
X018582Y003662D02*
X018582Y003832D01*
X018639Y003888D01*
X018866Y003888D01*
X018922Y003832D01*
X018922Y003662D01*
X018582Y003662D01*
X018582Y003293D02*
X018922Y003293D01*
X019582Y003293D02*
X019922Y003520D01*
X019582Y003520D01*
X019582Y003662D02*
X019582Y003832D01*
X019639Y003888D01*
X019866Y003888D01*
X019922Y003832D01*
X019922Y003662D01*
X019582Y003662D01*
X019582Y003293D02*
X019922Y003293D01*
X019866Y003152D02*
X019752Y003152D01*
X019752Y003038D01*
X019639Y002925D02*
X019866Y002925D01*
X019922Y002982D01*
X019922Y003095D01*
X019866Y003152D01*
X019639Y003152D02*
X019582Y003095D01*
X019582Y002982D01*
X019639Y002925D01*
X020582Y002925D02*
X020809Y002925D01*
X020922Y003038D01*
X020809Y003152D01*
X020582Y003152D01*
X020582Y003293D02*
X020582Y003407D01*
X020582Y003350D02*
X020922Y003350D01*
X020922Y003293D02*
X020922Y003407D01*
X020922Y003539D02*
X020582Y003539D01*
X020922Y003766D01*
X020582Y003766D01*
X022582Y003095D02*
X022582Y002982D01*
X022639Y002925D01*
X022866Y002925D01*
X022639Y003152D01*
X022866Y003152D01*
X022922Y003095D01*
X022922Y002982D01*
X022866Y002925D01*
X022639Y003152D02*
X022582Y003095D01*
X023582Y003038D02*
X023922Y003038D01*
X023922Y002925D02*
X023922Y003152D01*
X023696Y002925D02*
X023582Y003038D01*
X023763Y003525D02*
X023763Y003752D01*
X023877Y003865D01*
X023990Y003752D01*
X023990Y003525D01*
X024131Y003525D02*
X024131Y003752D01*
X024302Y003752D01*
X024358Y003695D01*
X024358Y003525D01*
X024500Y003582D02*
X024556Y003525D01*
X024727Y003525D01*
X024727Y003695D01*
X024670Y003752D01*
X024556Y003752D01*
X024556Y003638D02*
X024727Y003638D01*
X024556Y003638D02*
X024500Y003582D01*
X024868Y003525D02*
X024981Y003525D01*
X024925Y003525D02*
X024925Y003865D01*
X024868Y003865D01*
X025114Y003695D02*
X025114Y003582D01*
X025170Y003525D01*
X025284Y003525D01*
X025340Y003582D01*
X025340Y003695D01*
X025284Y003752D01*
X025170Y003752D01*
X025114Y003695D01*
X025482Y003695D02*
X025482Y003582D01*
X025539Y003525D01*
X025709Y003525D01*
X025709Y003468D02*
X025709Y003752D01*
X025539Y003752D01*
X025482Y003695D01*
X025595Y003412D02*
X025652Y003412D01*
X025709Y003468D01*
X025696Y003152D02*
X025752Y003095D01*
X025809Y003152D01*
X025866Y003152D01*
X025922Y003095D01*
X025922Y002982D01*
X025866Y002925D01*
X025752Y003038D02*
X025752Y003095D01*
X025696Y003152D02*
X025639Y003152D01*
X025582Y003095D01*
X025582Y002982D01*
X025639Y002925D01*
X024922Y002925D02*
X024696Y003152D01*
X024639Y003152D01*
X024582Y003095D01*
X024582Y002982D01*
X024639Y002925D01*
X024922Y002925D02*
X024922Y003152D01*
X023990Y003695D02*
X023763Y003695D01*
X026219Y003525D02*
X026332Y003525D01*
X026275Y003525D02*
X026275Y003865D01*
X026219Y003865D02*
X026332Y003865D01*
X026464Y003752D02*
X026634Y003752D01*
X026691Y003695D01*
X026691Y003525D01*
X026464Y003525D02*
X026464Y003752D01*
X026752Y003152D02*
X026752Y002925D01*
X026582Y003095D01*
X026922Y003095D01*
X027582Y003152D02*
X027582Y002925D01*
X027752Y002925D01*
X027696Y003038D01*
X027696Y003095D01*
X027752Y003152D01*
X027866Y003152D01*
X027922Y003095D01*
X027922Y002982D01*
X027866Y002925D01*
X028882Y007467D02*
X028882Y007961D01*
X028882Y007714D02*
X029622Y007714D01*
X029499Y008204D02*
X029005Y008204D01*
X028882Y008327D01*
X028882Y008574D01*
X029005Y008698D01*
X029499Y008698D01*
X029622Y008574D01*
X029622Y008327D01*
X029499Y008204D01*
X029622Y009677D02*
X028882Y009677D01*
X029252Y009677D02*
X029252Y010171D01*
X028882Y010171D02*
X029622Y010171D01*
X029622Y010414D02*
X028882Y010414D01*
X029129Y010661D01*
X028882Y010907D01*
X029622Y010907D01*
X029499Y011150D02*
X029622Y011274D01*
X029622Y011521D01*
X029499Y011644D01*
X029252Y011887D02*
X029252Y012381D01*
X029005Y012624D02*
X028882Y012747D01*
X028882Y012994D01*
X029005Y013117D01*
X029129Y013117D01*
X029622Y012624D01*
X029622Y013117D01*
X029252Y013360D02*
X029252Y013854D01*
X029252Y014097D02*
X029252Y014591D01*
X029129Y014591D02*
X028882Y014344D01*
X029129Y014097D01*
X029622Y014097D01*
X029622Y013731D02*
X028882Y013731D01*
X029252Y013360D01*
X028882Y012257D02*
X029252Y011887D01*
X029005Y011644D02*
X028882Y011521D01*
X028882Y011274D01*
X029005Y011150D01*
X029499Y011150D01*
X029622Y012257D02*
X028882Y012257D01*
X029129Y014591D02*
X029622Y014591D01*
X029622Y014833D02*
X029622Y015327D01*
X029622Y015570D02*
X028882Y015570D01*
X028882Y015940D01*
X029005Y016064D01*
X029252Y016064D01*
X029375Y015940D01*
X029375Y015570D01*
X029499Y016307D02*
X029622Y016430D01*
X029622Y016677D01*
X029499Y016800D01*
X029375Y016800D01*
X029252Y016677D01*
X029252Y016554D01*
X029252Y016677D02*
X029129Y016800D01*
X029005Y016800D01*
X028882Y016677D01*
X028882Y016430D01*
X029005Y016307D01*
X028882Y017043D02*
X029622Y017043D01*
X029622Y017537D01*
X029252Y017290D02*
X029252Y017043D01*
X028882Y017043D02*
X028882Y017537D01*
X028882Y014833D02*
X029622Y014833D01*
X024465Y010871D02*
X024038Y010871D01*
X024038Y010550D01*
X024251Y010657D01*
X024358Y010657D01*
X024465Y010550D01*
X024465Y010337D01*
X024358Y010230D01*
X024145Y010230D01*
X024038Y010337D01*
X023820Y010230D02*
X023393Y010230D01*
X023607Y010230D02*
X023607Y010871D01*
X023393Y010657D01*
X023176Y010764D02*
X022749Y010337D01*
X022855Y010230D01*
X023069Y010230D01*
X023176Y010337D01*
X023176Y010764D01*
X023069Y010871D01*
X022855Y010871D01*
X022749Y010764D01*
X022749Y010337D01*
X022531Y010230D02*
X022104Y010230D01*
X022531Y010657D01*
X022531Y010764D01*
X022424Y010871D01*
X022211Y010871D01*
X022104Y010764D01*
X015889Y005768D02*
X015889Y005532D01*
X015416Y005532D02*
X015416Y005768D01*
X014582Y004502D02*
X014582Y004275D01*
X014922Y004275D01*
X014922Y004134D02*
X014922Y003907D01*
X014582Y003907D01*
X014582Y004134D01*
X014752Y004021D02*
X014752Y003907D01*
X014752Y003766D02*
X014809Y003709D01*
X014809Y003539D01*
X014809Y003652D02*
X014922Y003766D01*
X014752Y003766D02*
X014639Y003766D01*
X014582Y003709D01*
X014582Y003539D01*
X014922Y003539D01*
X014866Y003397D02*
X014639Y003397D01*
X014582Y003341D01*
X014582Y003227D01*
X014639Y003171D01*
X014866Y003171D01*
X014922Y003227D01*
X014922Y003341D01*
X014866Y003397D01*
X014922Y003038D02*
X014922Y002925D01*
X014922Y002982D02*
X014582Y002982D01*
X014582Y003038D02*
X014582Y002925D01*
X015582Y002925D02*
X015582Y003095D01*
X015639Y003152D01*
X015752Y003152D01*
X015809Y003095D01*
X015809Y002925D01*
X015922Y002925D02*
X015582Y002925D01*
X015809Y003038D02*
X015922Y003152D01*
X015866Y003293D02*
X015922Y003350D01*
X015922Y003463D01*
X015866Y003520D01*
X015809Y003520D01*
X015752Y003463D01*
X015752Y003350D01*
X015696Y003293D01*
X015639Y003293D01*
X015582Y003350D01*
X015582Y003463D01*
X015639Y003520D01*
X015582Y003662D02*
X015582Y003888D01*
X015582Y003775D02*
X015922Y003775D01*
X016582Y003903D02*
X016582Y004016D01*
X016639Y004073D01*
X016696Y004073D01*
X016752Y004016D01*
X016809Y004073D01*
X016866Y004073D01*
X016752Y004016D02*
X016752Y003959D01*
X016639Y003846D02*
X016582Y003903D01*
X017582Y003888D02*
X017809Y003888D01*
X017922Y003775D01*
X017809Y003662D01*
X017582Y003662D01*
X014752Y004275D02*
X014752Y004389D01*
D12*
X020802Y014280D02*
X024302Y014280D01*
D13*
X008802Y001750D02*
X008552Y002000D01*
X008552Y002500D01*
X008802Y002750D01*
X009302Y002750D01*
X009552Y002500D01*
X009802Y002750D01*
X010302Y002750D01*
X010552Y002500D01*
X010802Y002750D01*
X011302Y002750D01*
X011552Y002500D01*
X011802Y002750D01*
X012302Y002750D01*
X012552Y002500D01*
X012552Y002000D01*
X012302Y001750D01*
X011802Y001750D01*
X011552Y002000D01*
X011302Y001750D01*
X010802Y001750D01*
X010552Y002000D01*
X010552Y002500D01*
X010552Y002000D01*
X010302Y001750D01*
X009802Y001750D01*
X009552Y002000D01*
X009302Y001750D01*
X008802Y001750D01*
X011552Y004000D02*
X011802Y003750D01*
X012302Y003750D01*
X012552Y004000D01*
X012802Y003750D01*
X013302Y003750D01*
X013552Y004000D01*
X013552Y004500D01*
X013302Y004750D01*
X012802Y004750D01*
X012552Y004500D01*
X012302Y004750D01*
X011802Y004750D01*
X011552Y004500D01*
X011552Y004000D01*
X016833Y005890D02*
X016833Y005927D01*
X016833Y005890D02*
X017471Y005890D01*
X017471Y005927D01*
X017471Y006973D02*
X017471Y007010D01*
X016833Y007010D01*
X016833Y006973D01*
X030552Y002500D02*
X030552Y002000D01*
X030802Y001750D01*
X031302Y001750D01*
X031552Y002000D01*
X031802Y001750D01*
X032302Y001750D01*
X032552Y002000D01*
X032802Y001750D01*
X033302Y001750D01*
X033552Y002000D01*
X033552Y002500D01*
X033302Y002750D01*
X032802Y002750D01*
X032552Y002500D01*
X032302Y002750D01*
X031802Y002750D01*
X031552Y002500D01*
X031302Y002750D01*
X030802Y002750D01*
X030552Y002500D01*
X032552Y004000D02*
X032552Y004500D01*
X032802Y004750D01*
X032552Y005000D01*
X032552Y005500D01*
X032802Y005750D01*
X032552Y006000D01*
X032552Y006500D01*
X032802Y006750D01*
X032552Y007000D01*
X032552Y007500D01*
X032802Y007750D01*
X033302Y007750D01*
X033552Y007500D01*
X033552Y007000D01*
X033302Y006750D01*
X033552Y006500D01*
X033552Y006000D01*
X033302Y005750D01*
X033552Y005500D01*
X033552Y005000D01*
X033302Y004750D01*
X033552Y004500D01*
X033552Y004000D01*
X033302Y003750D01*
X032802Y003750D01*
X032552Y004000D01*
X032802Y008800D02*
X032552Y009050D01*
X032552Y009550D01*
X032802Y009800D01*
X032552Y010050D01*
X032552Y010550D01*
X032802Y010800D01*
X032552Y011050D01*
X032552Y011550D01*
X032802Y011800D01*
X032552Y012050D01*
X032552Y012550D01*
X032802Y012800D01*
X032552Y013050D01*
X032552Y013550D01*
X032802Y013800D01*
X032552Y014050D01*
X032552Y014550D01*
X032802Y014800D01*
X032552Y015050D01*
X032552Y015550D01*
X032802Y015800D01*
X032552Y016050D01*
X032552Y016550D01*
X032802Y016800D01*
X033302Y016800D01*
X033552Y016550D01*
X033552Y016050D01*
X033302Y015800D01*
X033552Y015550D01*
X033552Y015050D01*
X033302Y014800D01*
X033552Y014550D01*
X033552Y014050D01*
X033302Y013800D01*
X033552Y013550D01*
X033552Y013050D01*
X033302Y012800D01*
X033552Y012550D01*
X033552Y012050D01*
X033302Y011800D01*
X033552Y011550D01*
X033552Y011050D01*
X033302Y010800D01*
X033552Y010550D01*
X033552Y010050D01*
X033302Y009800D01*
X033552Y009550D01*
X033552Y009050D01*
X033302Y008800D01*
X032802Y008800D01*
X032802Y017850D02*
X032552Y018100D01*
X032552Y018600D01*
X032802Y018850D01*
X032552Y019100D01*
X032552Y019600D01*
X032802Y019850D01*
X033302Y019850D01*
X033552Y020100D01*
X033552Y020600D01*
X033302Y020850D01*
X033552Y021100D01*
X033552Y021600D01*
X033302Y021850D01*
X032802Y021850D01*
X032552Y021600D01*
X032552Y021100D01*
X032802Y020850D01*
X032552Y020600D01*
X032552Y020100D01*
X032802Y019850D01*
X033302Y019850D01*
X033552Y019600D01*
X033552Y019100D01*
X033302Y018850D01*
X033552Y018600D01*
X033552Y018100D01*
X033302Y017850D01*
X032802Y017850D01*
X019764Y017946D02*
X019764Y018757D01*
X018741Y018757D02*
X018741Y017946D01*
X018464Y017946D02*
X018464Y018757D01*
X017441Y018757D02*
X017441Y017946D01*
X017164Y017946D02*
X017164Y018757D01*
X016141Y018757D02*
X016141Y017946D01*
X015864Y017946D02*
X015864Y018757D01*
X014841Y018757D02*
X014841Y017946D01*
X014564Y017946D02*
X014564Y018757D01*
X013541Y018757D02*
X013541Y017946D01*
X013164Y017946D02*
X013164Y018757D01*
X012141Y018757D02*
X012141Y017946D01*
D14*
X012652Y018636D03*
X014052Y018636D03*
X015352Y018636D03*
X016652Y018636D03*
X017952Y018636D03*
X019252Y018636D03*
D15*
X019102Y016500D03*
X017752Y015550D03*
X016452Y014700D03*
X015252Y013850D03*
X013752Y013100D03*
X012477Y012175D03*
X014352Y005950D03*
X031752Y019350D03*
X031752Y020350D03*
D16*
X017283Y006035D02*
X017285Y006042D01*
X017290Y006047D01*
X017297Y006049D01*
X017304Y006047D01*
X017309Y006042D01*
X017311Y006035D01*
X017309Y006028D01*
X017304Y006023D01*
X017297Y006021D01*
X017290Y006023D01*
X017285Y006028D01*
X017283Y006035D01*
M02*
