G75*
%MOIN*%
%OFA0B0*%
%FSLAX24Y24*%
%IPPOS*%
%LPD*%
%AMOC8*
5,1,8,0,0,1.08239X$1,22.5*
%
%ADD10C,0.0000*%
%ADD11R,0.0260X0.0800*%
%ADD12R,0.0945X0.0709*%
%ADD13R,0.0433X0.0394*%
%ADD14C,0.0740*%
%ADD15R,0.0472X0.0217*%
%ADD16R,0.0315X0.0472*%
%ADD17R,0.0472X0.0315*%
%ADD18R,0.0740X0.0740*%
%ADD19C,0.0100*%
%ADD20C,0.0357*%
%ADD21C,0.0160*%
D10*
X008552Y001250D02*
X008552Y022500D01*
X033802Y022500D01*
X033802Y001250D01*
X008552Y001250D01*
D11*
X021052Y012440D03*
X021552Y012440D03*
X022052Y012440D03*
X022552Y012440D03*
X023052Y012440D03*
X023552Y012440D03*
X024052Y012440D03*
X024052Y014860D03*
X023552Y014860D03*
X023052Y014860D03*
X022552Y014860D03*
X022052Y014860D03*
X021552Y014860D03*
X021052Y014860D03*
D12*
X019252Y017553D03*
X017952Y017553D03*
X016652Y017553D03*
X015352Y017553D03*
X014052Y017553D03*
X012652Y017553D03*
X012652Y019147D03*
X014052Y019147D03*
X015352Y019147D03*
X016652Y019147D03*
X017952Y019147D03*
X019252Y019147D03*
D13*
X019437Y016500D03*
X018768Y016500D03*
X018087Y015550D03*
X017418Y015550D03*
X016787Y014700D03*
X016118Y014700D03*
X015587Y013850D03*
X014918Y013850D03*
X014087Y013100D03*
X013418Y013100D03*
X012812Y012175D03*
X012143Y012175D03*
X014018Y005950D03*
X014687Y005950D03*
X031418Y019350D03*
X032087Y019350D03*
X032087Y020350D03*
X031418Y020350D03*
D14*
X033052Y020350D03*
X033052Y019350D03*
X033052Y018350D03*
X033052Y021350D03*
X027752Y021350D03*
X026752Y021350D03*
X025752Y021350D03*
X024752Y021350D03*
X023752Y021350D03*
X022752Y021350D03*
X021752Y021350D03*
X020752Y021350D03*
X019252Y021350D03*
X018252Y021350D03*
X017252Y021350D03*
X016252Y021350D03*
X015252Y021350D03*
X014252Y021350D03*
X013252Y021350D03*
X012252Y021350D03*
X011252Y021350D03*
X010252Y021350D03*
X033052Y015300D03*
X033052Y014300D03*
X033052Y013300D03*
X033052Y012300D03*
X033052Y011300D03*
X033052Y010300D03*
X033052Y009300D03*
X033052Y006250D03*
X033052Y005250D03*
X033052Y004250D03*
X033052Y002250D03*
X032052Y002250D03*
X031052Y002250D03*
X027752Y002350D03*
X026752Y002350D03*
X025752Y002350D03*
X024752Y002350D03*
X023752Y002350D03*
X022752Y002350D03*
X020752Y002350D03*
X019752Y002350D03*
X018752Y002350D03*
X017752Y002350D03*
X016752Y002350D03*
X015752Y002350D03*
X014752Y002350D03*
X013752Y002350D03*
X012052Y002250D03*
X011052Y002250D03*
X010052Y002250D03*
X009052Y002250D03*
X012052Y004250D03*
X013052Y004250D03*
D15*
X016641Y006076D03*
X016641Y006450D03*
X016641Y006824D03*
X017664Y006824D03*
X017664Y006450D03*
X017664Y006076D03*
D16*
X017507Y007750D03*
X016798Y007750D03*
D17*
X015652Y006004D03*
X015652Y005296D03*
X019352Y005396D03*
X019352Y006104D03*
D18*
X033052Y007250D03*
X033052Y016300D03*
D19*
X033002Y016328D02*
X025532Y016328D01*
X025532Y016230D02*
X032532Y016230D01*
X032532Y016250D02*
X032532Y015910D01*
X032543Y015872D01*
X032562Y015838D01*
X032590Y015810D01*
X032624Y015790D01*
X032663Y015780D01*
X032905Y015780D01*
X032769Y015724D01*
X032628Y015583D01*
X032586Y015480D01*
X025616Y015480D01*
X025661Y015589D01*
X025661Y015711D01*
X025614Y015825D01*
X025532Y015906D01*
X025532Y018170D01*
X032586Y018170D01*
X032628Y018067D01*
X032769Y017926D01*
X032953Y017850D01*
X033152Y017850D01*
X033336Y017926D01*
X033352Y017943D01*
X033352Y016820D01*
X033102Y016820D01*
X033102Y016350D01*
X033002Y016350D01*
X033002Y016250D01*
X032532Y016250D01*
X032532Y016350D02*
X033002Y016350D01*
X033002Y016820D01*
X032663Y016820D01*
X032624Y016810D01*
X032590Y016790D01*
X032562Y016762D01*
X032543Y016728D01*
X032532Y016690D01*
X032532Y016350D01*
X032532Y016427D02*
X025532Y016427D01*
X025532Y016525D02*
X032532Y016525D01*
X032532Y016624D02*
X025532Y016624D01*
X025532Y016722D02*
X032541Y016722D01*
X033002Y016722D02*
X033102Y016722D01*
X033102Y016624D02*
X033002Y016624D01*
X033002Y016525D02*
X033102Y016525D01*
X033102Y016427D02*
X033002Y016427D01*
X032532Y016131D02*
X025532Y016131D01*
X025532Y016033D02*
X032532Y016033D01*
X032532Y015934D02*
X025532Y015934D01*
X025603Y015836D02*
X032565Y015836D01*
X032684Y015639D02*
X025661Y015639D01*
X025650Y015737D02*
X032801Y015737D01*
X032611Y015540D02*
X025641Y015540D01*
X025352Y015650D02*
X025352Y018350D01*
X033052Y018350D01*
X032687Y018692D02*
X032184Y018692D01*
X032162Y018670D02*
X032267Y018775D01*
X032267Y019023D01*
X032357Y019023D01*
X032434Y019099D01*
X032434Y019140D01*
X032598Y019140D01*
X032628Y019067D01*
X032769Y018926D01*
X032953Y018850D01*
X032769Y018774D01*
X032628Y018633D01*
X032586Y018530D01*
X025278Y018530D01*
X025172Y018425D01*
X025172Y015906D01*
X025091Y015825D01*
X025044Y015711D01*
X025044Y015589D01*
X025089Y015480D01*
X024932Y015480D01*
X024914Y015525D01*
X024827Y015611D01*
X024714Y015658D01*
X024591Y015658D01*
X024478Y015611D01*
X024391Y015525D01*
X024344Y015411D01*
X024344Y015289D01*
X024391Y015175D01*
X024478Y015089D01*
X024591Y015042D01*
X024714Y015042D01*
X024827Y015089D01*
X024859Y015120D01*
X032586Y015120D01*
X032628Y015017D01*
X032769Y014876D01*
X032953Y014800D01*
X032769Y014724D01*
X032628Y014583D01*
X032586Y014480D01*
X024478Y014480D01*
X024372Y014375D01*
X024372Y014130D01*
X023732Y014130D01*
X023732Y014330D01*
X023736Y014330D01*
X023802Y014396D01*
X023869Y014330D01*
X024236Y014330D01*
X024312Y014406D01*
X024312Y015314D01*
X024236Y015390D01*
X024232Y015390D01*
X024232Y017725D01*
X024127Y017830D01*
X021278Y017830D01*
X021172Y017725D01*
X020128Y016680D01*
X019784Y016680D01*
X019784Y016751D01*
X019707Y016827D01*
X019617Y016827D01*
X019617Y017068D01*
X019779Y017068D01*
X019855Y017145D01*
X019855Y017961D01*
X019779Y018037D01*
X018726Y018037D01*
X018650Y017961D01*
X018650Y017145D01*
X018726Y017068D01*
X019257Y017068D01*
X019257Y016827D01*
X019167Y016827D01*
X019102Y016763D01*
X019038Y016827D01*
X018497Y016827D01*
X018421Y016751D01*
X018421Y016249D01*
X018497Y016173D01*
X018539Y016173D01*
X018491Y016125D01*
X018444Y016011D01*
X018444Y015889D01*
X018491Y015775D01*
X018536Y015730D01*
X018434Y015730D01*
X018434Y015801D01*
X018357Y015877D01*
X018267Y015877D01*
X018267Y017068D01*
X018479Y017068D01*
X018555Y017145D01*
X018555Y017961D01*
X018479Y018037D01*
X017426Y018037D01*
X017350Y017961D01*
X017350Y017145D01*
X017426Y017068D01*
X017907Y017068D01*
X017907Y015877D01*
X017817Y015877D01*
X017752Y015813D01*
X017688Y015877D01*
X017632Y015877D01*
X017632Y016494D01*
X017714Y016575D01*
X017761Y016689D01*
X017761Y016811D01*
X017714Y016925D01*
X017627Y017011D01*
X017514Y017058D01*
X017391Y017058D01*
X017278Y017011D01*
X017191Y016925D01*
X017144Y016811D01*
X017144Y016689D01*
X017191Y016575D01*
X017272Y016494D01*
X017272Y015877D01*
X017147Y015877D01*
X017071Y015801D01*
X017071Y015299D01*
X017147Y015223D01*
X017688Y015223D01*
X017752Y015287D01*
X017817Y015223D01*
X018357Y015223D01*
X018434Y015299D01*
X018434Y015370D01*
X019927Y015370D01*
X021527Y016970D01*
X022872Y016970D01*
X022872Y015390D01*
X022869Y015390D01*
X022802Y015324D01*
X022736Y015390D01*
X022732Y015390D01*
X022732Y016194D01*
X022814Y016275D01*
X022861Y016389D01*
X022861Y016511D01*
X022814Y016625D01*
X022727Y016711D01*
X022614Y016758D01*
X022491Y016758D01*
X022378Y016711D01*
X022291Y016625D01*
X022244Y016511D01*
X022244Y016389D01*
X022291Y016275D01*
X022372Y016194D01*
X022372Y015390D01*
X022369Y015390D01*
X022302Y015324D01*
X022236Y015390D01*
X022232Y015390D01*
X022232Y016725D01*
X022127Y016830D01*
X021478Y016830D01*
X021372Y016725D01*
X019528Y014880D01*
X017134Y014880D01*
X017134Y014951D01*
X017057Y015027D01*
X016967Y015027D01*
X016967Y017068D01*
X017179Y017068D01*
X017255Y017145D01*
X017255Y017961D01*
X017179Y018037D01*
X016126Y018037D01*
X016050Y017961D01*
X016050Y017145D01*
X016126Y017068D01*
X016607Y017068D01*
X016607Y015027D01*
X016517Y015027D01*
X016452Y014963D01*
X016388Y015027D01*
X016332Y015027D01*
X016332Y016494D01*
X016414Y016575D01*
X016461Y016689D01*
X016461Y016811D01*
X016414Y016925D01*
X016327Y017011D01*
X016214Y017058D01*
X016091Y017058D01*
X015978Y017011D01*
X015891Y016925D01*
X015844Y016811D01*
X015844Y016689D01*
X015891Y016575D01*
X015972Y016494D01*
X015972Y015027D01*
X015847Y015027D01*
X015771Y014951D01*
X015771Y014449D01*
X015847Y014373D01*
X016388Y014373D01*
X016452Y014437D01*
X016517Y014373D01*
X017057Y014373D01*
X017134Y014449D01*
X017134Y014520D01*
X019677Y014520D01*
X021627Y016470D01*
X021872Y016470D01*
X021872Y015390D01*
X021869Y015390D01*
X021802Y015324D01*
X021736Y015390D01*
X021732Y015390D01*
X021732Y015694D01*
X021814Y015775D01*
X021861Y015889D01*
X021861Y016011D01*
X021814Y016125D01*
X021727Y016211D01*
X021614Y016258D01*
X021491Y016258D01*
X021378Y016211D01*
X021291Y016125D01*
X021244Y016011D01*
X021244Y015889D01*
X021291Y015775D01*
X021372Y015694D01*
X021372Y015390D01*
X021369Y015390D01*
X021302Y015324D01*
X021236Y015390D01*
X020869Y015390D01*
X020792Y015314D01*
X020792Y014630D01*
X020509Y014630D01*
X020427Y014711D01*
X020314Y014758D01*
X020191Y014758D01*
X020078Y014711D01*
X019991Y014625D01*
X019944Y014511D01*
X019944Y014389D01*
X019991Y014275D01*
X020078Y014189D01*
X020191Y014142D01*
X020314Y014142D01*
X020427Y014189D01*
X020509Y014270D01*
X021127Y014270D01*
X021187Y014330D01*
X021236Y014330D01*
X021302Y014396D01*
X021369Y014330D01*
X021736Y014330D01*
X021802Y014396D01*
X021869Y014330D01*
X022236Y014330D01*
X022302Y014396D01*
X022369Y014330D01*
X022736Y014330D01*
X022802Y014396D01*
X022869Y014330D01*
X023236Y014330D01*
X023302Y014396D01*
X023369Y014330D01*
X023372Y014330D01*
X023372Y013875D01*
X023418Y013830D01*
X020978Y013830D01*
X020872Y013725D01*
X020872Y012970D01*
X020869Y012970D01*
X020792Y012894D01*
X020792Y011986D01*
X020869Y011910D01*
X021236Y011910D01*
X021302Y011976D01*
X021369Y011910D01*
X021472Y011910D01*
X021472Y011030D01*
X015767Y011030D01*
X015767Y013523D01*
X015857Y013523D01*
X015934Y013599D01*
X015934Y014101D01*
X015857Y014177D01*
X015767Y014177D01*
X015767Y017068D01*
X015879Y017068D01*
X015955Y017145D01*
X015955Y017961D01*
X015879Y018037D01*
X014826Y018037D01*
X014750Y017961D01*
X014750Y017145D01*
X014826Y017068D01*
X015407Y017068D01*
X015407Y014177D01*
X015317Y014177D01*
X015252Y014113D01*
X015188Y014177D01*
X014932Y014177D01*
X014932Y016494D01*
X015014Y016575D01*
X015061Y016689D01*
X015061Y016811D01*
X015014Y016925D01*
X014927Y017011D01*
X014814Y017058D01*
X014691Y017058D01*
X014578Y017011D01*
X014491Y016925D01*
X014444Y016811D01*
X014444Y016689D01*
X014491Y016575D01*
X014572Y016494D01*
X014572Y014102D01*
X014571Y014101D01*
X014571Y013599D01*
X014647Y013523D01*
X015188Y013523D01*
X015252Y013587D01*
X015317Y013523D01*
X015407Y013523D01*
X015407Y010830D01*
X014332Y010830D01*
X014332Y012773D01*
X014357Y012773D01*
X014434Y012849D01*
X014434Y013351D01*
X014357Y013427D01*
X014232Y013427D01*
X014232Y017068D01*
X014579Y017068D01*
X014655Y017145D01*
X014655Y017961D01*
X014579Y018037D01*
X013526Y018037D01*
X013450Y017961D01*
X013450Y017145D01*
X013526Y017068D01*
X013872Y017068D01*
X013872Y013427D01*
X013817Y013427D01*
X013752Y013363D01*
X013688Y013427D01*
X013532Y013427D01*
X013532Y016494D01*
X013614Y016575D01*
X013661Y016689D01*
X013661Y016811D01*
X013614Y016925D01*
X013527Y017011D01*
X013414Y017058D01*
X013291Y017058D01*
X013178Y017011D01*
X013091Y016925D01*
X013044Y016811D01*
X013044Y016689D01*
X013091Y016575D01*
X013172Y016494D01*
X013172Y013427D01*
X013147Y013427D01*
X013071Y013351D01*
X013071Y012849D01*
X013147Y012773D01*
X013688Y012773D01*
X013752Y012837D01*
X013817Y012773D01*
X013972Y012773D01*
X013972Y010630D01*
X013032Y010630D01*
X013032Y011848D01*
X013082Y011848D01*
X013159Y011924D01*
X013159Y012426D01*
X013082Y012502D01*
X012992Y012502D01*
X012992Y017068D01*
X013179Y017068D01*
X013255Y017145D01*
X013255Y017961D01*
X013179Y018037D01*
X012126Y018037D01*
X012050Y017961D01*
X012050Y017145D01*
X012126Y017068D01*
X012632Y017068D01*
X012632Y012502D01*
X012542Y012502D01*
X012477Y012438D01*
X012413Y012502D01*
X012132Y012502D01*
X012132Y016494D01*
X012214Y016575D01*
X012261Y016689D01*
X012261Y016811D01*
X012214Y016925D01*
X012127Y017011D01*
X012014Y017058D01*
X011891Y017058D01*
X011778Y017011D01*
X011691Y016925D01*
X011644Y016811D01*
X011644Y016689D01*
X011691Y016575D01*
X011772Y016494D01*
X011772Y012075D01*
X011796Y012052D01*
X011796Y011924D01*
X011872Y011848D01*
X011963Y011848D01*
X011963Y009375D01*
X012068Y009270D01*
X018172Y009270D01*
X018172Y006630D01*
X018013Y006630D01*
X018006Y006637D01*
X018030Y006662D01*
X018030Y006986D01*
X017954Y007062D01*
X017844Y007062D01*
X017844Y007825D01*
X017794Y007875D01*
X017794Y008040D01*
X017718Y008116D01*
X017295Y008116D01*
X017219Y008040D01*
X017219Y007460D01*
X017295Y007384D01*
X017484Y007384D01*
X017484Y007062D01*
X017374Y007062D01*
X017298Y006986D01*
X017298Y006662D01*
X017323Y006637D01*
X017298Y006612D01*
X017298Y006288D01*
X017323Y006263D01*
X017316Y006256D01*
X017000Y006256D01*
X017017Y006284D01*
X017027Y006322D01*
X017027Y006446D01*
X016645Y006446D01*
X016645Y006454D01*
X017027Y006454D01*
X017027Y006578D01*
X017017Y006616D01*
X016997Y006650D01*
X016996Y006651D01*
X017007Y006662D01*
X017007Y006986D01*
X016931Y007062D01*
X016732Y007062D01*
X016732Y007384D01*
X017009Y007384D01*
X017086Y007460D01*
X017086Y008040D01*
X017009Y008116D01*
X016587Y008116D01*
X016511Y008040D01*
X016511Y007930D01*
X016478Y007930D01*
X016372Y007825D01*
X016372Y007062D01*
X016350Y007062D01*
X016274Y006986D01*
X016274Y006662D01*
X016285Y006651D01*
X016284Y006650D01*
X016265Y006616D01*
X016254Y006578D01*
X016254Y006454D01*
X016636Y006454D01*
X016636Y006446D01*
X016254Y006446D01*
X016254Y006322D01*
X016265Y006284D01*
X016284Y006250D01*
X016285Y006249D01*
X016274Y006238D01*
X016274Y006184D01*
X016019Y006184D01*
X016019Y006216D01*
X015942Y006292D01*
X015362Y006292D01*
X015286Y006216D01*
X015286Y006130D01*
X015034Y006130D01*
X015034Y006201D01*
X014957Y006277D01*
X014417Y006277D01*
X014352Y006213D01*
X014288Y006277D01*
X013747Y006277D01*
X013671Y006201D01*
X013671Y006130D01*
X009002Y006130D01*
X009002Y022050D01*
X033352Y022050D01*
X033352Y021757D01*
X033336Y021774D01*
X033152Y021850D01*
X032953Y021850D01*
X032769Y021774D01*
X032628Y021633D01*
X032552Y021449D01*
X032552Y021251D01*
X032628Y021067D01*
X032769Y020926D01*
X032953Y020850D01*
X032769Y020774D01*
X032628Y020633D01*
X032586Y020530D01*
X032434Y020530D01*
X032434Y020601D01*
X032357Y020677D01*
X031817Y020677D01*
X031763Y020623D01*
X031754Y020639D01*
X031726Y020667D01*
X031692Y020687D01*
X031654Y020697D01*
X031466Y020697D01*
X031466Y020398D01*
X031369Y020398D01*
X031369Y020302D01*
X031051Y020302D01*
X031051Y020133D01*
X031061Y020095D01*
X031081Y020061D01*
X031109Y020033D01*
X031143Y020013D01*
X031181Y020003D01*
X031369Y020003D01*
X031369Y020302D01*
X031466Y020302D01*
X031466Y020003D01*
X031654Y020003D01*
X031692Y020013D01*
X031726Y020033D01*
X031754Y020061D01*
X031763Y020077D01*
X031817Y020023D01*
X032357Y020023D01*
X032434Y020099D01*
X032434Y020170D01*
X032586Y020170D01*
X032628Y020067D01*
X032769Y019926D01*
X032953Y019850D01*
X032769Y019774D01*
X032628Y019633D01*
X032598Y019560D01*
X032434Y019560D01*
X032434Y019601D01*
X032357Y019677D01*
X031817Y019677D01*
X031763Y019623D01*
X031754Y019639D01*
X031726Y019667D01*
X031692Y019687D01*
X031654Y019697D01*
X031466Y019697D01*
X031466Y019398D01*
X031369Y019398D01*
X031369Y019302D01*
X031051Y019302D01*
X031051Y019133D01*
X031061Y019095D01*
X031081Y019061D01*
X031109Y019033D01*
X031114Y019030D01*
X025932Y019030D01*
X025932Y020883D01*
X026036Y020926D01*
X026176Y021067D01*
X026252Y021251D01*
X026252Y021449D01*
X026176Y021633D01*
X026036Y021774D01*
X025852Y021850D01*
X025653Y021850D01*
X025469Y021774D01*
X025328Y021633D01*
X025252Y021449D01*
X025176Y021633D01*
X025036Y021774D01*
X024852Y021850D01*
X024653Y021850D01*
X024469Y021774D01*
X024328Y021633D01*
X024252Y021449D01*
X024176Y021633D01*
X024036Y021774D01*
X023852Y021850D01*
X023653Y021850D01*
X023469Y021774D01*
X023328Y021633D01*
X023252Y021449D01*
X023176Y021633D01*
X023036Y021774D01*
X022852Y021850D01*
X022653Y021850D01*
X022469Y021774D01*
X022328Y021633D01*
X022252Y021449D01*
X022176Y021633D01*
X022036Y021774D01*
X021852Y021850D01*
X021653Y021850D01*
X021469Y021774D01*
X021328Y021633D01*
X021252Y021449D01*
X021176Y021633D01*
X021036Y021774D01*
X020852Y021850D01*
X020653Y021850D01*
X020469Y021774D01*
X020328Y021633D01*
X020252Y021449D01*
X020252Y021251D01*
X020328Y021067D01*
X020469Y020926D01*
X020653Y020850D01*
X020852Y020850D01*
X021036Y020926D01*
X021176Y021067D01*
X021252Y021251D01*
X021252Y021449D01*
X021252Y021251D01*
X021328Y021067D01*
X021469Y020926D01*
X021653Y020850D01*
X021852Y020850D01*
X022036Y020926D01*
X022176Y021067D01*
X022252Y021251D01*
X022252Y021449D01*
X022252Y021251D01*
X022328Y021067D01*
X022469Y020926D01*
X022653Y020850D01*
X022852Y020850D01*
X023036Y020926D01*
X023176Y021067D01*
X023252Y021251D01*
X023252Y021449D01*
X023252Y021251D01*
X023328Y021067D01*
X023469Y020926D01*
X023653Y020850D01*
X023852Y020850D01*
X024036Y020926D01*
X024176Y021067D01*
X024252Y021251D01*
X024252Y021449D01*
X024252Y021251D01*
X024328Y021067D01*
X024469Y020926D01*
X024653Y020850D01*
X024852Y020850D01*
X025036Y020926D01*
X025176Y021067D01*
X025252Y021251D01*
X025252Y021449D01*
X025252Y021251D01*
X025328Y021067D01*
X025469Y020926D01*
X025572Y020883D01*
X025572Y018775D01*
X025678Y018670D01*
X032162Y018670D01*
X032267Y018791D02*
X032809Y018791D01*
X032859Y018889D02*
X032267Y018889D01*
X032267Y018988D02*
X032708Y018988D01*
X032620Y019086D02*
X032420Y019086D01*
X032087Y018850D02*
X032087Y019350D01*
X032434Y019579D02*
X032606Y019579D01*
X032672Y019677D02*
X031709Y019677D01*
X031466Y019677D02*
X031369Y019677D01*
X031369Y019697D02*
X031181Y019697D01*
X031143Y019687D01*
X031109Y019667D01*
X031081Y019639D01*
X031061Y019605D01*
X031051Y019567D01*
X031051Y019398D01*
X031369Y019398D01*
X031369Y019697D01*
X031369Y019579D02*
X031466Y019579D01*
X031466Y019480D02*
X031369Y019480D01*
X031369Y019382D02*
X025932Y019382D01*
X025932Y019480D02*
X031051Y019480D01*
X031054Y019579D02*
X025932Y019579D01*
X025932Y019677D02*
X031127Y019677D01*
X031075Y020071D02*
X025932Y020071D01*
X025932Y019973D02*
X032723Y019973D01*
X032627Y020071D02*
X032405Y020071D01*
X032434Y020170D02*
X032586Y020170D01*
X032600Y020564D02*
X032434Y020564D01*
X032372Y020662D02*
X032657Y020662D01*
X032756Y020761D02*
X025932Y020761D01*
X025932Y020859D02*
X026631Y020859D01*
X026653Y020850D02*
X026852Y020850D01*
X027036Y020926D01*
X027176Y021067D01*
X027252Y021251D01*
X027252Y021449D01*
X027176Y021633D01*
X027036Y021774D01*
X026852Y021850D01*
X026653Y021850D01*
X026469Y021774D01*
X026328Y021633D01*
X026252Y021449D01*
X026252Y021251D01*
X026328Y021067D01*
X026469Y020926D01*
X026653Y020850D01*
X026874Y020859D02*
X027631Y020859D01*
X027653Y020850D02*
X027469Y020926D01*
X027328Y021067D01*
X027252Y021251D01*
X027252Y021449D01*
X027328Y021633D01*
X027469Y021774D01*
X027653Y021850D01*
X027852Y021850D01*
X028036Y021774D01*
X028176Y021633D01*
X028252Y021449D01*
X028252Y021251D01*
X028176Y021067D01*
X028036Y020926D01*
X027852Y020850D01*
X027653Y020850D01*
X027874Y020859D02*
X032931Y020859D01*
X032953Y020850D02*
X033152Y020850D01*
X033336Y020774D01*
X033352Y020757D01*
X033352Y020943D01*
X033336Y020926D01*
X033152Y020850D01*
X032953Y020850D01*
X033174Y020859D02*
X033352Y020859D01*
X033349Y020761D02*
X033352Y020761D01*
X032738Y020958D02*
X028067Y020958D01*
X028166Y021056D02*
X032639Y021056D01*
X032592Y021155D02*
X028213Y021155D01*
X028252Y021253D02*
X032552Y021253D01*
X032552Y021352D02*
X028252Y021352D01*
X028252Y021450D02*
X032553Y021450D01*
X032593Y021549D02*
X028211Y021549D01*
X028162Y021647D02*
X032642Y021647D01*
X032741Y021746D02*
X028064Y021746D01*
X027866Y021844D02*
X032939Y021844D01*
X033166Y021844D02*
X033352Y021844D01*
X033352Y021943D02*
X009002Y021943D01*
X009002Y022041D02*
X033352Y022041D01*
X031802Y020662D02*
X031731Y020662D01*
X031466Y020662D02*
X031369Y020662D01*
X031369Y020697D02*
X031181Y020697D01*
X031143Y020687D01*
X031109Y020667D01*
X031081Y020639D01*
X031061Y020605D01*
X031051Y020567D01*
X031051Y020398D01*
X031369Y020398D01*
X031369Y020697D01*
X031369Y020564D02*
X031466Y020564D01*
X031466Y020465D02*
X031369Y020465D01*
X031369Y020367D02*
X025932Y020367D01*
X025932Y020465D02*
X031051Y020465D01*
X031051Y020564D02*
X025932Y020564D01*
X025932Y020662D02*
X031104Y020662D01*
X031051Y020268D02*
X025932Y020268D01*
X025932Y020170D02*
X031051Y020170D01*
X031369Y020170D02*
X031466Y020170D01*
X031466Y020268D02*
X031369Y020268D01*
X031369Y020071D02*
X031466Y020071D01*
X031760Y020071D02*
X031769Y020071D01*
X032087Y020350D02*
X033052Y020350D01*
X032895Y019874D02*
X025932Y019874D01*
X025932Y019776D02*
X032773Y019776D01*
X032953Y019850D02*
X033152Y019850D01*
X033336Y019774D01*
X033352Y019757D01*
X033352Y019943D01*
X033336Y019926D01*
X033152Y019850D01*
X032953Y019850D01*
X033210Y019874D02*
X033352Y019874D01*
X033352Y019776D02*
X033332Y019776D01*
X033352Y018943D02*
X033352Y018757D01*
X033336Y018774D01*
X033152Y018850D01*
X032953Y018850D01*
X033152Y018850D01*
X033336Y018926D01*
X033352Y018943D01*
X033352Y018889D02*
X033246Y018889D01*
X033295Y018791D02*
X033352Y018791D01*
X032612Y018594D02*
X009002Y018594D01*
X009002Y018692D02*
X012097Y018692D01*
X012126Y018663D02*
X012050Y018739D01*
X012050Y019555D01*
X012126Y019632D01*
X012779Y019632D01*
X014043Y020895D01*
X013969Y020926D01*
X013828Y021067D01*
X013760Y021232D01*
X013760Y021228D01*
X013734Y021150D01*
X013697Y021077D01*
X013649Y021011D01*
X013591Y020953D01*
X013525Y020905D01*
X013452Y020868D01*
X013374Y020843D01*
X013302Y020831D01*
X013302Y021300D01*
X013202Y021300D01*
X013202Y020831D01*
X013131Y020843D01*
X013053Y020868D01*
X012980Y020905D01*
X012914Y020953D01*
X012856Y021011D01*
X012808Y021077D01*
X012770Y021150D01*
X012745Y021228D01*
X012745Y021232D01*
X012676Y021067D01*
X012536Y020926D01*
X012352Y020850D01*
X012153Y020850D01*
X011969Y020926D01*
X011828Y021067D01*
X011752Y021251D01*
X011676Y021067D01*
X011536Y020926D01*
X011352Y020850D01*
X011153Y020850D01*
X010969Y020926D01*
X010828Y021067D01*
X010752Y021251D01*
X010676Y021067D01*
X010536Y020926D01*
X010352Y020850D01*
X010153Y020850D01*
X009969Y020926D01*
X009828Y021067D01*
X009752Y021251D01*
X009752Y021449D01*
X009828Y021633D01*
X009969Y021774D01*
X010153Y021850D01*
X010352Y021850D01*
X010536Y021774D01*
X010676Y021633D01*
X010752Y021449D01*
X010752Y021251D01*
X010752Y021449D01*
X010828Y021633D01*
X010969Y021774D01*
X011153Y021850D01*
X011352Y021850D01*
X011536Y021774D01*
X011676Y021633D01*
X011752Y021449D01*
X011752Y021251D01*
X011752Y021449D01*
X011828Y021633D01*
X011969Y021774D01*
X012153Y021850D01*
X012352Y021850D01*
X012536Y021774D01*
X012676Y021633D01*
X012745Y021468D01*
X012745Y021472D01*
X012770Y021550D01*
X012808Y021623D01*
X012856Y021689D01*
X012914Y021747D01*
X012980Y021795D01*
X013053Y021832D01*
X013131Y021857D01*
X013202Y021869D01*
X013202Y021400D01*
X013302Y021400D01*
X013302Y021869D01*
X013374Y021857D01*
X013452Y021832D01*
X013525Y021795D01*
X013591Y021747D01*
X013649Y021689D01*
X013697Y021623D01*
X013734Y021550D01*
X013760Y021472D01*
X013760Y021468D01*
X013828Y021633D01*
X013969Y021774D01*
X014153Y021850D01*
X014352Y021850D01*
X014536Y021774D01*
X014676Y021633D01*
X014752Y021449D01*
X014752Y021251D01*
X014676Y021067D01*
X014536Y020926D01*
X014432Y020883D01*
X014432Y020775D01*
X014327Y020670D01*
X013234Y019577D01*
X013255Y019555D01*
X013255Y018739D01*
X013179Y018663D01*
X012126Y018663D01*
X012050Y018791D02*
X009002Y018791D01*
X009002Y018889D02*
X012050Y018889D01*
X012050Y018988D02*
X009002Y018988D01*
X009002Y019086D02*
X012050Y019086D01*
X012050Y019185D02*
X009002Y019185D01*
X009002Y019283D02*
X012050Y019283D01*
X012050Y019382D02*
X009002Y019382D01*
X009002Y019480D02*
X012050Y019480D01*
X012073Y019579D02*
X009002Y019579D01*
X009002Y019677D02*
X012825Y019677D01*
X012923Y019776D02*
X009002Y019776D01*
X009002Y019874D02*
X013022Y019874D01*
X013120Y019973D02*
X009002Y019973D01*
X009002Y020071D02*
X013219Y020071D01*
X013317Y020170D02*
X009002Y020170D01*
X009002Y020268D02*
X013416Y020268D01*
X013514Y020367D02*
X009002Y020367D01*
X009002Y020465D02*
X013613Y020465D01*
X013711Y020564D02*
X009002Y020564D01*
X009002Y020662D02*
X013810Y020662D01*
X013908Y020761D02*
X009002Y020761D01*
X009002Y020859D02*
X010131Y020859D01*
X009938Y020958D02*
X009002Y020958D01*
X009002Y021056D02*
X009839Y021056D01*
X009792Y021155D02*
X009002Y021155D01*
X009002Y021253D02*
X009752Y021253D01*
X009752Y021352D02*
X009002Y021352D01*
X009002Y021450D02*
X009753Y021450D01*
X009793Y021549D02*
X009002Y021549D01*
X009002Y021647D02*
X009842Y021647D01*
X009941Y021746D02*
X009002Y021746D01*
X009002Y021844D02*
X010139Y021844D01*
X010366Y021844D02*
X011139Y021844D01*
X010941Y021746D02*
X010564Y021746D01*
X010662Y021647D02*
X010842Y021647D01*
X010793Y021549D02*
X010711Y021549D01*
X010752Y021450D02*
X010753Y021450D01*
X010752Y021352D02*
X010752Y021352D01*
X010752Y021253D02*
X010752Y021253D01*
X010713Y021155D02*
X010792Y021155D01*
X010839Y021056D02*
X010666Y021056D01*
X010567Y020958D02*
X010938Y020958D01*
X011131Y020859D02*
X010374Y020859D01*
X011374Y020859D02*
X012131Y020859D01*
X011938Y020958D02*
X011567Y020958D01*
X011666Y021056D02*
X011839Y021056D01*
X011792Y021155D02*
X011713Y021155D01*
X011752Y021253D02*
X011752Y021253D01*
X011752Y021352D02*
X011752Y021352D01*
X011752Y021450D02*
X011753Y021450D01*
X011793Y021549D02*
X011711Y021549D01*
X011662Y021647D02*
X011842Y021647D01*
X011941Y021746D02*
X011564Y021746D01*
X011366Y021844D02*
X012139Y021844D01*
X012366Y021844D02*
X013090Y021844D01*
X013202Y021844D02*
X013302Y021844D01*
X013302Y021746D02*
X013202Y021746D01*
X013202Y021647D02*
X013302Y021647D01*
X013302Y021549D02*
X013202Y021549D01*
X013202Y021450D02*
X013302Y021450D01*
X013302Y021253D02*
X013202Y021253D01*
X013202Y021155D02*
X013302Y021155D01*
X013302Y021056D02*
X013202Y021056D01*
X013202Y020958D02*
X013302Y020958D01*
X013302Y020859D02*
X013202Y020859D01*
X013081Y020859D02*
X012374Y020859D01*
X012567Y020958D02*
X012909Y020958D01*
X012823Y021056D02*
X012666Y021056D01*
X012713Y021155D02*
X012769Y021155D01*
X012770Y021549D02*
X012711Y021549D01*
X012662Y021647D02*
X012825Y021647D01*
X012913Y021746D02*
X012564Y021746D01*
X013415Y021844D02*
X014139Y021844D01*
X013941Y021746D02*
X013592Y021746D01*
X013679Y021647D02*
X013842Y021647D01*
X013793Y021549D02*
X013735Y021549D01*
X013736Y021155D02*
X013792Y021155D01*
X013839Y021056D02*
X013682Y021056D01*
X013595Y020958D02*
X013938Y020958D01*
X014007Y020859D02*
X013424Y020859D01*
X013925Y020268D02*
X014416Y020268D01*
X014514Y020367D02*
X014023Y020367D01*
X014122Y020465D02*
X014613Y020465D01*
X014711Y020564D02*
X014220Y020564D01*
X014319Y020662D02*
X014810Y020662D01*
X014908Y020761D02*
X014417Y020761D01*
X014432Y020859D02*
X015007Y020859D01*
X015043Y020895D02*
X014969Y020926D01*
X014828Y021067D01*
X014752Y021251D01*
X014752Y021449D01*
X014828Y021633D01*
X014969Y021774D01*
X015153Y021850D01*
X015352Y021850D01*
X015536Y021774D01*
X015676Y021633D01*
X015752Y021449D01*
X015752Y021251D01*
X015676Y021067D01*
X015536Y020926D01*
X015432Y020883D01*
X015432Y020775D01*
X015327Y020670D01*
X014288Y019632D01*
X014579Y019632D01*
X014655Y019555D01*
X014655Y018739D01*
X014579Y018663D01*
X013526Y018663D01*
X013450Y018739D01*
X013450Y019555D01*
X013526Y019632D01*
X013872Y019632D01*
X013872Y019725D01*
X015043Y020895D01*
X014938Y020958D02*
X014567Y020958D01*
X014666Y021056D02*
X014839Y021056D01*
X014792Y021155D02*
X014713Y021155D01*
X014752Y021253D02*
X014752Y021253D01*
X014752Y021352D02*
X014752Y021352D01*
X014752Y021450D02*
X014753Y021450D01*
X014793Y021549D02*
X014711Y021549D01*
X014662Y021647D02*
X014842Y021647D01*
X014941Y021746D02*
X014564Y021746D01*
X014366Y021844D02*
X015139Y021844D01*
X015366Y021844D02*
X016139Y021844D01*
X016153Y021850D02*
X015969Y021774D01*
X015828Y021633D01*
X015752Y021449D01*
X015752Y021251D01*
X015828Y021067D01*
X015969Y020926D01*
X016043Y020895D01*
X015172Y020025D01*
X015172Y019632D01*
X014826Y019632D01*
X014750Y019555D01*
X014750Y018739D01*
X014826Y018663D01*
X015879Y018663D01*
X015955Y018739D01*
X015955Y019555D01*
X015879Y019632D01*
X015532Y019632D01*
X015532Y019875D01*
X016327Y020670D01*
X016432Y020775D01*
X016432Y020883D01*
X016536Y020926D01*
X016676Y021067D01*
X016752Y021251D01*
X016752Y021449D01*
X016676Y021633D01*
X016536Y021774D01*
X016352Y021850D01*
X016153Y021850D01*
X016366Y021844D02*
X017139Y021844D01*
X017153Y021850D02*
X016969Y021774D01*
X016828Y021633D01*
X016752Y021449D01*
X016752Y021251D01*
X016828Y021067D01*
X016969Y020926D01*
X017043Y020895D01*
X016472Y020325D01*
X016472Y019632D01*
X016126Y019632D01*
X016050Y019555D01*
X016050Y018739D01*
X016126Y018663D01*
X017179Y018663D01*
X017255Y018739D01*
X017255Y019555D01*
X017179Y019632D01*
X016832Y019632D01*
X016832Y020175D01*
X017327Y020670D01*
X017432Y020775D01*
X017432Y020883D01*
X017536Y020926D01*
X017676Y021067D01*
X017752Y021251D01*
X017752Y021449D01*
X017676Y021633D01*
X017536Y021774D01*
X017352Y021850D01*
X017153Y021850D01*
X017366Y021844D02*
X018139Y021844D01*
X018153Y021850D02*
X017969Y021774D01*
X017828Y021633D01*
X017752Y021449D01*
X017752Y021251D01*
X017828Y021067D01*
X017969Y020926D01*
X018043Y020895D01*
X017772Y020625D01*
X017772Y019632D01*
X017426Y019632D01*
X017350Y019555D01*
X017350Y018739D01*
X017426Y018663D01*
X018479Y018663D01*
X018555Y018739D01*
X018555Y019555D01*
X018479Y019632D01*
X018132Y019632D01*
X018132Y020475D01*
X018327Y020670D01*
X018432Y020775D01*
X018432Y020883D01*
X018536Y020926D01*
X018676Y021067D01*
X018752Y021251D01*
X018752Y021449D01*
X018676Y021633D01*
X018536Y021774D01*
X018352Y021850D01*
X018153Y021850D01*
X018366Y021844D02*
X019139Y021844D01*
X019153Y021850D02*
X018969Y021774D01*
X018828Y021633D01*
X018752Y021449D01*
X018752Y021251D01*
X018828Y021067D01*
X018969Y020926D01*
X019072Y020883D01*
X019072Y019632D01*
X018726Y019632D01*
X018650Y019555D01*
X018650Y018739D01*
X018726Y018663D01*
X019779Y018663D01*
X019855Y018739D01*
X019855Y019555D01*
X019779Y019632D01*
X019432Y019632D01*
X019432Y020883D01*
X019536Y020926D01*
X019676Y021067D01*
X019752Y021251D01*
X019752Y021449D01*
X019676Y021633D01*
X019536Y021774D01*
X019352Y021850D01*
X019153Y021850D01*
X019366Y021844D02*
X020639Y021844D01*
X020441Y021746D02*
X019564Y021746D01*
X019662Y021647D02*
X020342Y021647D01*
X020293Y021549D02*
X019711Y021549D01*
X019752Y021450D02*
X020253Y021450D01*
X020252Y021352D02*
X019752Y021352D01*
X019752Y021253D02*
X020252Y021253D01*
X020292Y021155D02*
X019713Y021155D01*
X019666Y021056D02*
X020339Y021056D01*
X020438Y020958D02*
X019567Y020958D01*
X019432Y020859D02*
X020631Y020859D01*
X020874Y020859D02*
X021631Y020859D01*
X021438Y020958D02*
X021067Y020958D01*
X021166Y021056D02*
X021339Y021056D01*
X021292Y021155D02*
X021213Y021155D01*
X021252Y021253D02*
X021252Y021253D01*
X021252Y021352D02*
X021252Y021352D01*
X021252Y021450D02*
X021253Y021450D01*
X021293Y021549D02*
X021211Y021549D01*
X021162Y021647D02*
X021342Y021647D01*
X021441Y021746D02*
X021064Y021746D01*
X020866Y021844D02*
X021639Y021844D01*
X021866Y021844D02*
X022639Y021844D01*
X022441Y021746D02*
X022064Y021746D01*
X022162Y021647D02*
X022342Y021647D01*
X022293Y021549D02*
X022211Y021549D01*
X022252Y021450D02*
X022253Y021450D01*
X022252Y021352D02*
X022252Y021352D01*
X022252Y021253D02*
X022252Y021253D01*
X022213Y021155D02*
X022292Y021155D01*
X022339Y021056D02*
X022166Y021056D01*
X022067Y020958D02*
X022438Y020958D01*
X022631Y020859D02*
X021874Y020859D01*
X022874Y020859D02*
X023631Y020859D01*
X023438Y020958D02*
X023067Y020958D01*
X023166Y021056D02*
X023339Y021056D01*
X023292Y021155D02*
X023213Y021155D01*
X023252Y021253D02*
X023252Y021253D01*
X023252Y021352D02*
X023252Y021352D01*
X023252Y021450D02*
X023253Y021450D01*
X023293Y021549D02*
X023211Y021549D01*
X023162Y021647D02*
X023342Y021647D01*
X023441Y021746D02*
X023064Y021746D01*
X022866Y021844D02*
X023639Y021844D01*
X023866Y021844D02*
X024639Y021844D01*
X024441Y021746D02*
X024064Y021746D01*
X024162Y021647D02*
X024342Y021647D01*
X024293Y021549D02*
X024211Y021549D01*
X024252Y021450D02*
X024253Y021450D01*
X024252Y021352D02*
X024252Y021352D01*
X024252Y021253D02*
X024252Y021253D01*
X024213Y021155D02*
X024292Y021155D01*
X024339Y021056D02*
X024166Y021056D01*
X024067Y020958D02*
X024438Y020958D01*
X024631Y020859D02*
X023874Y020859D01*
X024874Y020859D02*
X025572Y020859D01*
X025572Y020761D02*
X019432Y020761D01*
X019432Y020662D02*
X025572Y020662D01*
X025572Y020564D02*
X019432Y020564D01*
X019432Y020465D02*
X025572Y020465D01*
X025572Y020367D02*
X019432Y020367D01*
X019432Y020268D02*
X025572Y020268D01*
X025572Y020170D02*
X019432Y020170D01*
X019432Y020071D02*
X025572Y020071D01*
X025572Y019973D02*
X019432Y019973D01*
X019432Y019874D02*
X025572Y019874D01*
X025572Y019776D02*
X019432Y019776D01*
X019432Y019677D02*
X025572Y019677D01*
X025572Y019579D02*
X019832Y019579D01*
X019855Y019480D02*
X025572Y019480D01*
X025572Y019382D02*
X019855Y019382D01*
X019855Y019283D02*
X025572Y019283D01*
X025572Y019185D02*
X019855Y019185D01*
X019855Y019086D02*
X025572Y019086D01*
X025572Y018988D02*
X019855Y018988D01*
X019855Y018889D02*
X025572Y018889D01*
X025572Y018791D02*
X019855Y018791D01*
X019808Y018692D02*
X025656Y018692D01*
X025752Y018850D02*
X032087Y018850D01*
X032614Y018101D02*
X025532Y018101D01*
X025532Y018003D02*
X032693Y018003D01*
X032822Y017904D02*
X025532Y017904D01*
X025532Y017806D02*
X033352Y017806D01*
X033352Y017904D02*
X033282Y017904D01*
X033352Y017707D02*
X025532Y017707D01*
X025532Y017609D02*
X033352Y017609D01*
X033352Y017510D02*
X025532Y017510D01*
X025532Y017412D02*
X033352Y017412D01*
X033352Y017313D02*
X025532Y017313D01*
X025532Y017215D02*
X033352Y017215D01*
X033352Y017116D02*
X025532Y017116D01*
X025532Y017018D02*
X033352Y017018D01*
X033352Y016919D02*
X025532Y016919D01*
X025532Y016821D02*
X033352Y016821D01*
X033052Y015300D02*
X024652Y015300D01*
X024652Y015350D01*
X024344Y015343D02*
X024283Y015343D01*
X024312Y015245D02*
X024362Y015245D01*
X024312Y015146D02*
X024420Y015146D01*
X024312Y015048D02*
X024577Y015048D01*
X024728Y015048D02*
X032616Y015048D01*
X032696Y014949D02*
X024312Y014949D01*
X024312Y014851D02*
X032831Y014851D01*
X032837Y014752D02*
X024312Y014752D01*
X024312Y014654D02*
X032699Y014654D01*
X032617Y014555D02*
X024312Y014555D01*
X024312Y014457D02*
X024454Y014457D01*
X024372Y014358D02*
X024264Y014358D01*
X024372Y014260D02*
X023732Y014260D01*
X023732Y014161D02*
X024372Y014161D01*
X024552Y014300D02*
X024552Y013950D01*
X023552Y013950D01*
X023552Y014860D01*
X023052Y014860D02*
X023052Y017150D01*
X021452Y017150D01*
X019852Y015550D01*
X018087Y015550D01*
X018087Y017553D01*
X017952Y017553D01*
X017350Y017510D02*
X017255Y017510D01*
X017255Y017412D02*
X017350Y017412D01*
X017350Y017313D02*
X017255Y017313D01*
X017255Y017215D02*
X017350Y017215D01*
X017378Y017116D02*
X017226Y017116D01*
X017292Y017018D02*
X016967Y017018D01*
X016967Y016919D02*
X017189Y016919D01*
X017148Y016821D02*
X016967Y016821D01*
X016967Y016722D02*
X017144Y016722D01*
X017171Y016624D02*
X016967Y016624D01*
X016967Y016525D02*
X017241Y016525D01*
X017272Y016427D02*
X016967Y016427D01*
X016967Y016328D02*
X017272Y016328D01*
X017272Y016230D02*
X016967Y016230D01*
X016967Y016131D02*
X017272Y016131D01*
X017272Y016033D02*
X016967Y016033D01*
X016967Y015934D02*
X017272Y015934D01*
X017106Y015836D02*
X016967Y015836D01*
X016967Y015737D02*
X017071Y015737D01*
X017071Y015639D02*
X016967Y015639D01*
X016967Y015540D02*
X017071Y015540D01*
X017071Y015442D02*
X016967Y015442D01*
X016967Y015343D02*
X017071Y015343D01*
X017126Y015245D02*
X016967Y015245D01*
X016967Y015146D02*
X019794Y015146D01*
X019892Y015245D02*
X018379Y015245D01*
X018434Y015343D02*
X019991Y015343D01*
X019998Y015442D02*
X020089Y015442D01*
X020097Y015540D02*
X020188Y015540D01*
X020195Y015639D02*
X020286Y015639D01*
X020294Y015737D02*
X020385Y015737D01*
X020392Y015836D02*
X020483Y015836D01*
X020491Y015934D02*
X020582Y015934D01*
X020589Y016033D02*
X020680Y016033D01*
X020688Y016131D02*
X020779Y016131D01*
X020786Y016230D02*
X020877Y016230D01*
X020885Y016328D02*
X020976Y016328D01*
X020983Y016427D02*
X021074Y016427D01*
X021082Y016525D02*
X021173Y016525D01*
X021180Y016624D02*
X021271Y016624D01*
X021279Y016722D02*
X021370Y016722D01*
X021377Y016821D02*
X021468Y016821D01*
X021476Y016919D02*
X022872Y016919D01*
X022872Y016821D02*
X022136Y016821D01*
X022232Y016722D02*
X022403Y016722D01*
X022290Y016624D02*
X022232Y016624D01*
X022232Y016525D02*
X022250Y016525D01*
X022244Y016427D02*
X022232Y016427D01*
X022232Y016328D02*
X022269Y016328D01*
X022232Y016230D02*
X022337Y016230D01*
X022372Y016131D02*
X022232Y016131D01*
X022232Y016033D02*
X022372Y016033D01*
X022372Y015934D02*
X022232Y015934D01*
X022232Y015836D02*
X022372Y015836D01*
X022372Y015737D02*
X022232Y015737D01*
X022232Y015639D02*
X022372Y015639D01*
X022372Y015540D02*
X022232Y015540D01*
X022232Y015442D02*
X022372Y015442D01*
X022322Y015343D02*
X022283Y015343D01*
X022732Y015442D02*
X022872Y015442D01*
X022872Y015540D02*
X022732Y015540D01*
X022732Y015639D02*
X022872Y015639D01*
X022872Y015737D02*
X022732Y015737D01*
X022732Y015836D02*
X022872Y015836D01*
X022872Y015934D02*
X022732Y015934D01*
X022732Y016033D02*
X022872Y016033D01*
X022872Y016131D02*
X022732Y016131D01*
X022768Y016230D02*
X022872Y016230D01*
X022872Y016328D02*
X022836Y016328D01*
X022861Y016427D02*
X022872Y016427D01*
X022872Y016525D02*
X022855Y016525D01*
X022872Y016624D02*
X022814Y016624D01*
X022872Y016722D02*
X022702Y016722D01*
X022552Y016450D02*
X022552Y014860D01*
X022052Y014860D02*
X022052Y016650D01*
X021552Y016650D01*
X019602Y014700D01*
X016787Y014700D01*
X016787Y017553D01*
X016652Y017553D01*
X017255Y017609D02*
X017350Y017609D01*
X017350Y017707D02*
X017255Y017707D01*
X017255Y017806D02*
X017350Y017806D01*
X017350Y017904D02*
X017255Y017904D01*
X017213Y018003D02*
X017392Y018003D01*
X017397Y018692D02*
X017208Y018692D01*
X017255Y018791D02*
X017350Y018791D01*
X017350Y018889D02*
X017255Y018889D01*
X017255Y018988D02*
X017350Y018988D01*
X017350Y019086D02*
X017255Y019086D01*
X017255Y019185D02*
X017350Y019185D01*
X017350Y019283D02*
X017255Y019283D01*
X017255Y019382D02*
X017350Y019382D01*
X017350Y019480D02*
X017255Y019480D01*
X017232Y019579D02*
X017373Y019579D01*
X017772Y019677D02*
X016832Y019677D01*
X016832Y019776D02*
X017772Y019776D01*
X017772Y019874D02*
X016832Y019874D01*
X016832Y019973D02*
X017772Y019973D01*
X017772Y020071D02*
X016832Y020071D01*
X016832Y020170D02*
X017772Y020170D01*
X017772Y020268D02*
X016925Y020268D01*
X017023Y020367D02*
X017772Y020367D01*
X017772Y020465D02*
X017122Y020465D01*
X017220Y020564D02*
X017772Y020564D01*
X017810Y020662D02*
X017319Y020662D01*
X017417Y020761D02*
X017908Y020761D01*
X018007Y020859D02*
X017432Y020859D01*
X017567Y020958D02*
X017938Y020958D01*
X017839Y021056D02*
X017666Y021056D01*
X017713Y021155D02*
X017792Y021155D01*
X017752Y021253D02*
X017752Y021253D01*
X017752Y021352D02*
X017752Y021352D01*
X017752Y021450D02*
X017753Y021450D01*
X017793Y021549D02*
X017711Y021549D01*
X017662Y021647D02*
X017842Y021647D01*
X017941Y021746D02*
X017564Y021746D01*
X016941Y021746D02*
X016564Y021746D01*
X016662Y021647D02*
X016842Y021647D01*
X016793Y021549D02*
X016711Y021549D01*
X016752Y021450D02*
X016753Y021450D01*
X016752Y021352D02*
X016752Y021352D01*
X016752Y021253D02*
X016752Y021253D01*
X016713Y021155D02*
X016792Y021155D01*
X016839Y021056D02*
X016666Y021056D01*
X016567Y020958D02*
X016938Y020958D01*
X017007Y020859D02*
X016432Y020859D01*
X016417Y020761D02*
X016908Y020761D01*
X016810Y020662D02*
X016319Y020662D01*
X016220Y020564D02*
X016711Y020564D01*
X016613Y020465D02*
X016122Y020465D01*
X016023Y020367D02*
X016514Y020367D01*
X016472Y020268D02*
X015925Y020268D01*
X015826Y020170D02*
X016472Y020170D01*
X016472Y020071D02*
X015728Y020071D01*
X015629Y019973D02*
X016472Y019973D01*
X016472Y019874D02*
X015532Y019874D01*
X015532Y019776D02*
X016472Y019776D01*
X016472Y019677D02*
X015532Y019677D01*
X015352Y019950D02*
X016252Y020850D01*
X016252Y021350D01*
X015752Y021352D02*
X015752Y021352D01*
X015752Y021450D02*
X015753Y021450D01*
X015793Y021549D02*
X015711Y021549D01*
X015662Y021647D02*
X015842Y021647D01*
X015941Y021746D02*
X015564Y021746D01*
X015252Y021350D02*
X015252Y020850D01*
X014052Y019650D01*
X014052Y019147D01*
X013450Y019185D02*
X013255Y019185D01*
X013255Y019283D02*
X013450Y019283D01*
X013450Y019382D02*
X013255Y019382D01*
X013255Y019480D02*
X013450Y019480D01*
X013473Y019579D02*
X013235Y019579D01*
X013334Y019677D02*
X013872Y019677D01*
X013923Y019776D02*
X013432Y019776D01*
X013531Y019874D02*
X014022Y019874D01*
X014120Y019973D02*
X013629Y019973D01*
X013728Y020071D02*
X014219Y020071D01*
X014317Y020170D02*
X013826Y020170D01*
X014531Y019874D02*
X015172Y019874D01*
X015172Y019776D02*
X014432Y019776D01*
X014334Y019677D02*
X015172Y019677D01*
X015172Y019973D02*
X014629Y019973D01*
X014728Y020071D02*
X015219Y020071D01*
X015317Y020170D02*
X014826Y020170D01*
X014925Y020268D02*
X015416Y020268D01*
X015514Y020367D02*
X015023Y020367D01*
X015122Y020465D02*
X015613Y020465D01*
X015711Y020564D02*
X015220Y020564D01*
X015319Y020662D02*
X015810Y020662D01*
X015908Y020761D02*
X015417Y020761D01*
X015432Y020859D02*
X016007Y020859D01*
X015938Y020958D02*
X015567Y020958D01*
X015666Y021056D02*
X015839Y021056D01*
X015792Y021155D02*
X015713Y021155D01*
X015752Y021253D02*
X015752Y021253D01*
X016652Y020250D02*
X017252Y020850D01*
X017252Y021350D01*
X018252Y021350D02*
X018252Y020850D01*
X017952Y020550D01*
X017952Y019147D01*
X018132Y019677D02*
X019072Y019677D01*
X019072Y019776D02*
X018132Y019776D01*
X018132Y019874D02*
X019072Y019874D01*
X019072Y019973D02*
X018132Y019973D01*
X018132Y020071D02*
X019072Y020071D01*
X019072Y020170D02*
X018132Y020170D01*
X018132Y020268D02*
X019072Y020268D01*
X019072Y020367D02*
X018132Y020367D01*
X018132Y020465D02*
X019072Y020465D01*
X019072Y020564D02*
X018220Y020564D01*
X018319Y020662D02*
X019072Y020662D01*
X019072Y020761D02*
X018417Y020761D01*
X018432Y020859D02*
X019072Y020859D01*
X018938Y020958D02*
X018567Y020958D01*
X018666Y021056D02*
X018839Y021056D01*
X018792Y021155D02*
X018713Y021155D01*
X018752Y021253D02*
X018752Y021253D01*
X018752Y021352D02*
X018752Y021352D01*
X018752Y021450D02*
X018753Y021450D01*
X018793Y021549D02*
X018711Y021549D01*
X018662Y021647D02*
X018842Y021647D01*
X018941Y021746D02*
X018564Y021746D01*
X019252Y021350D02*
X019252Y019147D01*
X018650Y019185D02*
X018555Y019185D01*
X018555Y019283D02*
X018650Y019283D01*
X018650Y019382D02*
X018555Y019382D01*
X018555Y019480D02*
X018650Y019480D01*
X018673Y019579D02*
X018532Y019579D01*
X018555Y019086D02*
X018650Y019086D01*
X018650Y018988D02*
X018555Y018988D01*
X018555Y018889D02*
X018650Y018889D01*
X018650Y018791D02*
X018555Y018791D01*
X018508Y018692D02*
X018697Y018692D01*
X018692Y018003D02*
X018513Y018003D01*
X018555Y017904D02*
X018650Y017904D01*
X018650Y017806D02*
X018555Y017806D01*
X018555Y017707D02*
X018650Y017707D01*
X018650Y017609D02*
X018555Y017609D01*
X018555Y017510D02*
X018650Y017510D01*
X018650Y017412D02*
X018555Y017412D01*
X018555Y017313D02*
X018650Y017313D01*
X018650Y017215D02*
X018555Y017215D01*
X018526Y017116D02*
X018678Y017116D01*
X018491Y016821D02*
X018267Y016821D01*
X018267Y016919D02*
X019257Y016919D01*
X019257Y017018D02*
X018267Y017018D01*
X018267Y016722D02*
X018421Y016722D01*
X018421Y016624D02*
X018267Y016624D01*
X018267Y016525D02*
X018421Y016525D01*
X018421Y016427D02*
X018267Y016427D01*
X018267Y016328D02*
X018421Y016328D01*
X018441Y016230D02*
X018267Y016230D01*
X018267Y016131D02*
X018497Y016131D01*
X018453Y016033D02*
X018267Y016033D01*
X018267Y015934D02*
X018444Y015934D01*
X018466Y015836D02*
X018399Y015836D01*
X018434Y015737D02*
X018529Y015737D01*
X018752Y015950D02*
X018752Y016500D01*
X018768Y016500D01*
X018965Y016173D02*
X019038Y016173D01*
X019102Y016237D01*
X019167Y016173D01*
X019707Y016173D01*
X019784Y016249D01*
X019784Y016320D01*
X020277Y016320D01*
X020382Y016425D01*
X020382Y016425D01*
X021427Y017470D01*
X023872Y017470D01*
X023872Y015390D01*
X023869Y015390D01*
X023802Y015324D01*
X023736Y015390D01*
X023369Y015390D01*
X023302Y015324D01*
X023236Y015390D01*
X023232Y015390D01*
X023232Y017225D01*
X023127Y017330D01*
X021378Y017330D01*
X021272Y017225D01*
X019778Y015730D01*
X018969Y015730D01*
X019014Y015775D01*
X019061Y015889D01*
X019061Y016011D01*
X019014Y016125D01*
X018965Y016173D01*
X019008Y016131D02*
X020179Y016131D01*
X020277Y016230D02*
X019764Y016230D01*
X019982Y015934D02*
X019061Y015934D01*
X019052Y016033D02*
X020080Y016033D01*
X019883Y015836D02*
X019039Y015836D01*
X018976Y015737D02*
X019785Y015737D01*
X019695Y015048D02*
X016967Y015048D01*
X017134Y014949D02*
X019597Y014949D01*
X019810Y014654D02*
X020020Y014654D01*
X019962Y014555D02*
X019712Y014555D01*
X019944Y014457D02*
X017134Y014457D01*
X016152Y014700D02*
X016152Y016750D01*
X015871Y016624D02*
X015767Y016624D01*
X015767Y016722D02*
X015844Y016722D01*
X015848Y016821D02*
X015767Y016821D01*
X015767Y016919D02*
X015889Y016919D01*
X015992Y017018D02*
X015767Y017018D01*
X015926Y017116D02*
X016078Y017116D01*
X016050Y017215D02*
X015955Y017215D01*
X015955Y017313D02*
X016050Y017313D01*
X016050Y017412D02*
X015955Y017412D01*
X015955Y017510D02*
X016050Y017510D01*
X016050Y017609D02*
X015955Y017609D01*
X015955Y017707D02*
X016050Y017707D01*
X016050Y017806D02*
X015955Y017806D01*
X015955Y017904D02*
X016050Y017904D01*
X016092Y018003D02*
X015913Y018003D01*
X015587Y017553D02*
X015352Y017553D01*
X015587Y017553D02*
X015587Y013850D01*
X015587Y010850D01*
X021652Y010850D01*
X021652Y012465D01*
X021552Y012440D01*
X022052Y012440D02*
X022052Y013350D01*
X025652Y013350D01*
X025652Y010150D01*
X033052Y010150D01*
X033052Y010300D01*
X032720Y009926D02*
X025632Y009926D01*
X025632Y009970D02*
X032675Y009970D01*
X032769Y009876D01*
X032953Y009800D01*
X032769Y009724D01*
X032628Y009583D01*
X032606Y009530D01*
X025632Y009530D01*
X025632Y009970D01*
X025632Y009827D02*
X032888Y009827D01*
X032953Y009800D02*
X033152Y009800D01*
X032953Y009800D01*
X032780Y009729D02*
X025632Y009729D01*
X025632Y009630D02*
X032675Y009630D01*
X032607Y009532D02*
X025632Y009532D01*
X025452Y009350D02*
X033052Y009350D01*
X033052Y009300D01*
X032705Y008941D02*
X018532Y008941D01*
X018532Y009039D02*
X032619Y009039D01*
X032628Y009017D02*
X032769Y008876D01*
X032953Y008800D01*
X033152Y008800D01*
X033336Y008876D01*
X033352Y008893D01*
X033352Y007750D01*
X032629Y007750D01*
X032552Y007674D01*
X032552Y006826D01*
X032629Y006750D01*
X033352Y006750D01*
X033352Y006657D01*
X033336Y006674D01*
X033152Y006750D01*
X032953Y006750D01*
X032769Y006674D01*
X032628Y006533D01*
X032552Y006349D01*
X032552Y006151D01*
X032628Y005967D01*
X032769Y005826D01*
X032934Y005758D01*
X032931Y005757D01*
X032853Y005732D01*
X032780Y005695D01*
X032714Y005647D01*
X032656Y005589D01*
X032608Y005523D01*
X032570Y005450D01*
X032545Y005372D01*
X032534Y005300D01*
X033002Y005300D01*
X033002Y005200D01*
X032534Y005200D01*
X032545Y005128D01*
X032570Y005050D01*
X032608Y004977D01*
X032656Y004911D01*
X032714Y004853D01*
X032780Y004805D01*
X032853Y004768D01*
X032931Y004743D01*
X032934Y004742D01*
X032769Y004674D01*
X032628Y004533D01*
X032552Y004349D01*
X032552Y004330D01*
X031732Y004330D01*
X031732Y004725D01*
X031627Y004830D01*
X025532Y004830D01*
X025532Y008094D01*
X025614Y008175D01*
X025661Y008289D01*
X025661Y008411D01*
X025614Y008525D01*
X025527Y008611D01*
X025414Y008658D01*
X025291Y008658D01*
X025178Y008611D01*
X025091Y008525D01*
X025044Y008411D01*
X025044Y008289D01*
X025091Y008175D01*
X025172Y008094D01*
X025172Y004830D01*
X017844Y004830D01*
X017844Y005838D01*
X017954Y005838D01*
X018030Y005914D01*
X018030Y006238D01*
X018006Y006263D01*
X018013Y006270D01*
X018986Y006270D01*
X018986Y005893D01*
X019062Y005817D01*
X019642Y005817D01*
X019719Y005893D01*
X019719Y006316D01*
X019642Y006392D01*
X019532Y006392D01*
X019532Y006525D01*
X019427Y006630D01*
X018532Y006630D01*
X018532Y009525D01*
X018427Y009630D01*
X012323Y009630D01*
X025272Y009630D01*
X025272Y009532D02*
X018525Y009532D01*
X018532Y009433D02*
X025272Y009433D01*
X025272Y009335D02*
X018532Y009335D01*
X018532Y009236D02*
X025312Y009236D01*
X025272Y009275D02*
X025378Y009170D01*
X032565Y009170D01*
X032628Y009017D01*
X032578Y009138D02*
X018532Y009138D01*
X018532Y008842D02*
X032851Y008842D01*
X033253Y008842D02*
X033352Y008842D01*
X033352Y008744D02*
X018532Y008744D01*
X018532Y008645D02*
X025259Y008645D01*
X025113Y008547D02*
X018532Y008547D01*
X018532Y008448D02*
X025059Y008448D01*
X025044Y008350D02*
X018532Y008350D01*
X018532Y008251D02*
X025060Y008251D01*
X025114Y008153D02*
X018532Y008153D01*
X018532Y008054D02*
X025172Y008054D01*
X025172Y007956D02*
X018532Y007956D01*
X018532Y007857D02*
X025172Y007857D01*
X025172Y007759D02*
X018532Y007759D01*
X018532Y007660D02*
X025172Y007660D01*
X025172Y007562D02*
X018532Y007562D01*
X018532Y007463D02*
X025172Y007463D01*
X025172Y007365D02*
X018532Y007365D01*
X018532Y007266D02*
X025172Y007266D01*
X025172Y007168D02*
X018532Y007168D01*
X018532Y007069D02*
X025172Y007069D01*
X025172Y006971D02*
X018532Y006971D01*
X018532Y006872D02*
X025172Y006872D01*
X025172Y006774D02*
X018532Y006774D01*
X018532Y006675D02*
X025172Y006675D01*
X025172Y006577D02*
X019480Y006577D01*
X019532Y006478D02*
X025172Y006478D01*
X025172Y006380D02*
X019655Y006380D01*
X019719Y006281D02*
X025172Y006281D01*
X025172Y006183D02*
X019719Y006183D01*
X019719Y006084D02*
X025172Y006084D01*
X025172Y005986D02*
X019719Y005986D01*
X019713Y005887D02*
X025172Y005887D01*
X025172Y005789D02*
X017844Y005789D01*
X017844Y005690D02*
X019053Y005690D01*
X019058Y005693D02*
X019024Y005673D01*
X018996Y005645D01*
X018976Y005611D01*
X018966Y005573D01*
X018966Y005424D01*
X019324Y005424D01*
X019324Y005367D01*
X019381Y005367D01*
X019381Y005088D01*
X019608Y005088D01*
X019646Y005098D01*
X019681Y005118D01*
X019709Y005146D01*
X019728Y005180D01*
X019739Y005218D01*
X019739Y005367D01*
X019381Y005367D01*
X019381Y005424D01*
X019739Y005424D01*
X019739Y005573D01*
X019728Y005611D01*
X019709Y005645D01*
X019681Y005673D01*
X019646Y005693D01*
X019608Y005703D01*
X019381Y005703D01*
X019381Y005424D01*
X019324Y005424D01*
X019324Y005703D01*
X019096Y005703D01*
X019058Y005693D01*
X018971Y005592D02*
X017844Y005592D01*
X017844Y005493D02*
X018966Y005493D01*
X018966Y005367D02*
X018966Y005218D01*
X018976Y005180D01*
X018996Y005146D01*
X019024Y005118D01*
X019058Y005098D01*
X019096Y005088D01*
X019324Y005088D01*
X019324Y005367D01*
X018966Y005367D01*
X018966Y005296D02*
X017844Y005296D01*
X017844Y005198D02*
X018972Y005198D01*
X019057Y005099D02*
X017844Y005099D01*
X017844Y005001D02*
X025172Y005001D01*
X025172Y005099D02*
X019648Y005099D01*
X019733Y005198D02*
X025172Y005198D01*
X025172Y005296D02*
X019739Y005296D01*
X019739Y005493D02*
X025172Y005493D01*
X025172Y005395D02*
X019381Y005395D01*
X019324Y005395D02*
X017844Y005395D01*
X017484Y005395D02*
X016039Y005395D01*
X016039Y005324D02*
X016039Y005473D01*
X016028Y005511D01*
X016009Y005545D01*
X015981Y005573D01*
X015946Y005593D01*
X015908Y005603D01*
X015681Y005603D01*
X015681Y005324D01*
X016039Y005324D01*
X016039Y005267D02*
X015681Y005267D01*
X015681Y004988D01*
X015908Y004988D01*
X015946Y004998D01*
X015981Y005018D01*
X016009Y005046D01*
X016028Y005080D01*
X016039Y005118D01*
X016039Y005267D01*
X016039Y005198D02*
X017484Y005198D01*
X017484Y005296D02*
X015681Y005296D01*
X015681Y005324D02*
X015681Y005267D01*
X015624Y005267D01*
X015624Y004988D01*
X015396Y004988D01*
X015358Y004998D01*
X015324Y005018D01*
X015296Y005046D01*
X015276Y005080D01*
X015266Y005118D01*
X015266Y005267D01*
X015624Y005267D01*
X015624Y005324D01*
X015266Y005324D01*
X015266Y005473D01*
X015276Y005511D01*
X015296Y005545D01*
X015324Y005573D01*
X015358Y005593D01*
X015396Y005603D01*
X015624Y005603D01*
X015624Y005324D01*
X015681Y005324D01*
X015624Y005296D02*
X009232Y005296D01*
X009232Y005198D02*
X015266Y005198D01*
X015271Y005099D02*
X009232Y005099D01*
X009232Y005001D02*
X015355Y005001D01*
X015624Y005001D02*
X015681Y005001D01*
X015681Y005099D02*
X015624Y005099D01*
X015624Y005198D02*
X015681Y005198D01*
X015681Y005395D02*
X015624Y005395D01*
X015624Y005493D02*
X015681Y005493D01*
X015681Y005592D02*
X015624Y005592D01*
X015356Y005592D02*
X009232Y005592D01*
X009232Y005690D02*
X013680Y005690D01*
X013671Y005699D02*
X013671Y005770D01*
X009232Y005770D01*
X009232Y002717D01*
X009336Y002674D01*
X009476Y002533D01*
X009545Y002368D01*
X009545Y002372D01*
X009570Y002450D01*
X009608Y002523D01*
X009656Y002589D01*
X009714Y002647D01*
X009780Y002695D01*
X009853Y002732D01*
X009931Y002757D01*
X010002Y002769D01*
X010002Y002300D01*
X010102Y002300D01*
X010102Y002769D01*
X010174Y002757D01*
X010252Y002732D01*
X010325Y002695D01*
X010391Y002647D01*
X010449Y002589D01*
X010497Y002523D01*
X010534Y002450D01*
X010552Y002394D01*
X010570Y002450D01*
X010608Y002523D01*
X010656Y002589D01*
X010714Y002647D01*
X010780Y002695D01*
X010853Y002732D01*
X010931Y002757D01*
X011002Y002769D01*
X011002Y002300D01*
X011002Y002200D01*
X010534Y002200D01*
X010102Y002200D01*
X010102Y001731D01*
X010174Y001743D01*
X010252Y001768D01*
X010325Y001805D01*
X010391Y001853D01*
X010449Y001911D01*
X010497Y001977D01*
X010534Y002050D01*
X010552Y002106D01*
X010570Y002050D01*
X010608Y001977D01*
X010656Y001911D01*
X010714Y001853D01*
X010780Y001805D01*
X010853Y001768D01*
X010931Y001743D01*
X011002Y001731D01*
X011002Y002200D01*
X011102Y002200D01*
X011102Y001731D01*
X011174Y001743D01*
X011252Y001768D01*
X011325Y001805D01*
X011391Y001853D01*
X011449Y001911D01*
X011497Y001977D01*
X011534Y002050D01*
X011560Y002128D01*
X011560Y002132D01*
X011628Y001967D01*
X011769Y001826D01*
X011953Y001750D01*
X011196Y001750D01*
X011102Y001750D02*
X011002Y001750D01*
X010908Y001750D02*
X010196Y001750D01*
X010102Y001750D02*
X010002Y001750D01*
X010002Y001731D02*
X010002Y002200D01*
X010102Y002200D01*
X010102Y002300D01*
X011002Y002300D01*
X011102Y002300D01*
X011102Y002769D01*
X011174Y002757D01*
X011252Y002732D01*
X011325Y002695D01*
X011391Y002647D01*
X011449Y002589D01*
X011497Y002523D01*
X011534Y002450D01*
X011560Y002372D01*
X011560Y002368D01*
X011628Y002533D01*
X011769Y002674D01*
X011872Y002717D01*
X011872Y003783D01*
X011769Y003826D01*
X011628Y003967D01*
X011552Y004151D01*
X011552Y004349D01*
X011628Y004533D01*
X011769Y004674D01*
X011953Y004750D01*
X012152Y004750D01*
X012336Y004674D01*
X012476Y004533D01*
X012552Y004349D01*
X012552Y004151D01*
X012476Y003967D01*
X012336Y003826D01*
X012232Y003783D01*
X012232Y002717D01*
X012336Y002674D01*
X012476Y002533D01*
X012552Y002349D01*
X012552Y002151D01*
X012476Y001967D01*
X012336Y001826D01*
X012152Y001750D01*
X030908Y001750D01*
X030931Y001743D02*
X030853Y001768D01*
X030780Y001805D01*
X030714Y001853D01*
X030656Y001911D01*
X030608Y001977D01*
X030570Y002050D01*
X030545Y002128D01*
X030534Y002200D01*
X031002Y002200D01*
X031002Y002300D01*
X030534Y002300D01*
X030545Y002372D01*
X030570Y002450D01*
X030608Y002523D01*
X030656Y002589D01*
X030714Y002647D01*
X030780Y002695D01*
X030853Y002732D01*
X030931Y002757D01*
X031002Y002769D01*
X031002Y002300D01*
X031102Y002300D01*
X031102Y002769D01*
X031174Y002757D01*
X031252Y002732D01*
X031325Y002695D01*
X031391Y002647D01*
X031449Y002589D01*
X031497Y002523D01*
X031534Y002450D01*
X031560Y002372D01*
X031560Y002368D01*
X031628Y002533D01*
X031769Y002674D01*
X031953Y002750D01*
X032152Y002750D01*
X032336Y002674D01*
X032476Y002533D01*
X032552Y002349D01*
X032552Y002151D01*
X032476Y001967D01*
X032336Y001826D01*
X032152Y001750D01*
X032953Y001750D01*
X033152Y001750D01*
X033352Y001750D01*
X033352Y001700D02*
X009002Y001700D01*
X009002Y001750D01*
X009152Y001750D01*
X009908Y001750D01*
X009931Y001743D02*
X010002Y001731D01*
X009931Y001743D02*
X009853Y001768D01*
X009780Y001805D01*
X009714Y001853D01*
X009656Y001911D01*
X009608Y001977D01*
X009570Y002050D01*
X009545Y002128D01*
X009545Y002132D01*
X009476Y001967D01*
X009336Y001826D01*
X009152Y001750D01*
X009358Y001849D02*
X009720Y001849D01*
X009630Y001947D02*
X009456Y001947D01*
X009509Y002046D02*
X009573Y002046D01*
X009567Y002440D02*
X009515Y002440D01*
X009471Y002538D02*
X009619Y002538D01*
X009703Y002637D02*
X009373Y002637D01*
X009232Y002735D02*
X009862Y002735D01*
X010002Y002735D02*
X010102Y002735D01*
X010102Y002637D02*
X010002Y002637D01*
X010002Y002538D02*
X010102Y002538D01*
X010102Y002440D02*
X010002Y002440D01*
X010002Y002341D02*
X010102Y002341D01*
X010102Y002243D02*
X011002Y002243D01*
X011052Y002250D02*
X010052Y002250D01*
X010002Y002144D02*
X010102Y002144D01*
X010102Y002046D02*
X010002Y002046D01*
X010002Y001947D02*
X010102Y001947D01*
X010102Y001849D02*
X010002Y001849D01*
X010384Y001849D02*
X010720Y001849D01*
X010630Y001947D02*
X010475Y001947D01*
X010532Y002046D02*
X010573Y002046D01*
X010567Y002440D02*
X010538Y002440D01*
X010486Y002538D02*
X010619Y002538D01*
X010703Y002637D02*
X010401Y002637D01*
X010242Y002735D02*
X010862Y002735D01*
X011002Y002735D02*
X011102Y002735D01*
X011102Y002637D02*
X011002Y002637D01*
X011002Y002538D02*
X011102Y002538D01*
X011102Y002440D02*
X011002Y002440D01*
X011002Y002341D02*
X011102Y002341D01*
X011102Y002144D02*
X011002Y002144D01*
X011002Y002046D02*
X011102Y002046D01*
X011102Y001947D02*
X011002Y001947D01*
X011002Y001849D02*
X011102Y001849D01*
X011384Y001849D02*
X011747Y001849D01*
X011648Y001947D02*
X011475Y001947D01*
X011532Y002046D02*
X011596Y002046D01*
X011590Y002440D02*
X011538Y002440D01*
X011486Y002538D02*
X011633Y002538D01*
X011732Y002637D02*
X011401Y002637D01*
X011242Y002735D02*
X011872Y002735D01*
X011872Y002834D02*
X009232Y002834D01*
X009232Y002932D02*
X011872Y002932D01*
X011872Y003031D02*
X009232Y003031D01*
X009232Y003129D02*
X011872Y003129D01*
X011872Y003228D02*
X009232Y003228D01*
X009232Y003326D02*
X011872Y003326D01*
X011872Y003425D02*
X009232Y003425D01*
X009232Y003523D02*
X011872Y003523D01*
X011872Y003622D02*
X009232Y003622D01*
X009232Y003720D02*
X011872Y003720D01*
X011788Y003819D02*
X009232Y003819D01*
X009232Y003917D02*
X011678Y003917D01*
X011608Y004016D02*
X009232Y004016D01*
X009232Y004114D02*
X011567Y004114D01*
X011552Y004213D02*
X009232Y004213D01*
X009232Y004311D02*
X011552Y004311D01*
X011577Y004410D02*
X009232Y004410D01*
X009232Y004508D02*
X011618Y004508D01*
X011702Y004607D02*
X009232Y004607D01*
X009232Y004705D02*
X011844Y004705D01*
X012260Y004705D02*
X012844Y004705D01*
X012769Y004674D02*
X012628Y004533D01*
X012552Y004349D01*
X012552Y004151D01*
X012628Y003967D01*
X012769Y003826D01*
X012953Y003750D01*
X013152Y003750D01*
X013336Y003826D01*
X013476Y003967D01*
X013552Y004151D01*
X013552Y004349D01*
X013476Y004533D01*
X013336Y004674D01*
X013152Y004750D01*
X012953Y004750D01*
X012769Y004674D01*
X012702Y004607D02*
X012403Y004607D01*
X012487Y004508D02*
X012618Y004508D01*
X012577Y004410D02*
X012527Y004410D01*
X012552Y004311D02*
X012552Y004311D01*
X012552Y004213D02*
X012552Y004213D01*
X012537Y004114D02*
X012567Y004114D01*
X012608Y004016D02*
X012496Y004016D01*
X012426Y003917D02*
X012678Y003917D01*
X012788Y003819D02*
X012317Y003819D01*
X012232Y003720D02*
X017484Y003720D01*
X017484Y003622D02*
X012232Y003622D01*
X012232Y003523D02*
X017484Y003523D01*
X017484Y003425D02*
X012232Y003425D01*
X012232Y003326D02*
X017484Y003326D01*
X017484Y003228D02*
X012232Y003228D01*
X012232Y003129D02*
X017484Y003129D01*
X017484Y003031D02*
X012232Y003031D01*
X012232Y002932D02*
X017484Y002932D01*
X017484Y002834D02*
X016892Y002834D01*
X016852Y002850D02*
X016653Y002850D01*
X016469Y002774D01*
X016328Y002633D01*
X016252Y002449D01*
X016176Y002633D01*
X016036Y002774D01*
X015852Y002850D01*
X015653Y002850D01*
X015469Y002774D01*
X015328Y002633D01*
X015252Y002449D01*
X015176Y002633D01*
X015036Y002774D01*
X014852Y002850D01*
X014653Y002850D01*
X014469Y002774D01*
X014328Y002633D01*
X014252Y002449D01*
X014176Y002633D01*
X014036Y002774D01*
X013852Y002850D01*
X013653Y002850D01*
X013469Y002774D01*
X013328Y002633D01*
X013252Y002449D01*
X013252Y002251D01*
X013328Y002067D01*
X013469Y001926D01*
X013653Y001850D01*
X013852Y001850D01*
X014036Y001926D01*
X014176Y002067D01*
X014252Y002251D01*
X014252Y002449D01*
X014252Y002251D01*
X014328Y002067D01*
X014469Y001926D01*
X014653Y001850D01*
X014852Y001850D01*
X015036Y001926D01*
X015176Y002067D01*
X015252Y002251D01*
X015252Y002449D01*
X015252Y002251D01*
X015328Y002067D01*
X015469Y001926D01*
X015653Y001850D01*
X015852Y001850D01*
X016036Y001926D01*
X016176Y002067D01*
X016252Y002251D01*
X016252Y002449D01*
X016252Y002251D01*
X016328Y002067D01*
X016469Y001926D01*
X016653Y001850D01*
X016852Y001850D01*
X017036Y001926D01*
X017176Y002067D01*
X017252Y002251D01*
X017252Y002449D01*
X017176Y002633D01*
X017036Y002774D01*
X016852Y002850D01*
X016613Y002834D02*
X015892Y002834D01*
X016074Y002735D02*
X016430Y002735D01*
X016332Y002637D02*
X016173Y002637D01*
X016216Y002538D02*
X016289Y002538D01*
X016252Y002440D02*
X016252Y002440D01*
X016252Y002341D02*
X016252Y002341D01*
X016249Y002243D02*
X016256Y002243D01*
X016296Y002144D02*
X016208Y002144D01*
X016155Y002046D02*
X016350Y002046D01*
X016448Y001947D02*
X016056Y001947D01*
X015448Y001947D02*
X015056Y001947D01*
X015155Y002046D02*
X015350Y002046D01*
X015296Y002144D02*
X015208Y002144D01*
X015249Y002243D02*
X015256Y002243D01*
X015252Y002341D02*
X015252Y002341D01*
X015252Y002440D02*
X015252Y002440D01*
X015216Y002538D02*
X015289Y002538D01*
X015332Y002637D02*
X015173Y002637D01*
X015074Y002735D02*
X015430Y002735D01*
X015613Y002834D02*
X014892Y002834D01*
X014613Y002834D02*
X013892Y002834D01*
X014074Y002735D02*
X014430Y002735D01*
X014332Y002637D02*
X014173Y002637D01*
X014216Y002538D02*
X014289Y002538D01*
X014252Y002440D02*
X014252Y002440D01*
X014252Y002341D02*
X014252Y002341D01*
X014249Y002243D02*
X014256Y002243D01*
X014296Y002144D02*
X014208Y002144D01*
X014155Y002046D02*
X014350Y002046D01*
X014448Y001947D02*
X014056Y001947D01*
X013448Y001947D02*
X012456Y001947D01*
X012509Y002046D02*
X013350Y002046D01*
X013296Y002144D02*
X012550Y002144D01*
X012552Y002243D02*
X013256Y002243D01*
X013252Y002341D02*
X012552Y002341D01*
X012515Y002440D02*
X013252Y002440D01*
X013289Y002538D02*
X012471Y002538D01*
X012373Y002637D02*
X013332Y002637D01*
X013430Y002735D02*
X012232Y002735D01*
X012232Y002834D02*
X013613Y002834D01*
X013317Y003819D02*
X017484Y003819D01*
X017484Y003917D02*
X013426Y003917D01*
X013496Y004016D02*
X017484Y004016D01*
X017484Y004114D02*
X013537Y004114D01*
X013552Y004213D02*
X017484Y004213D01*
X017484Y004311D02*
X013552Y004311D01*
X013527Y004410D02*
X017484Y004410D01*
X017484Y004508D02*
X013487Y004508D01*
X013403Y004607D02*
X017484Y004607D01*
X017484Y004705D02*
X013260Y004705D01*
X012052Y004250D02*
X012052Y002250D01*
X012358Y001849D02*
X018613Y001849D01*
X018631Y001843D02*
X018702Y001831D01*
X018702Y002300D01*
X018802Y002300D01*
X018802Y001831D01*
X018874Y001843D01*
X018952Y001868D01*
X019025Y001905D01*
X019091Y001953D01*
X019149Y002011D01*
X019197Y002077D01*
X019234Y002150D01*
X019252Y002206D01*
X019270Y002150D01*
X019308Y002077D01*
X019356Y002011D01*
X019414Y001953D01*
X019480Y001905D01*
X019553Y001868D01*
X019631Y001843D01*
X019702Y001831D01*
X019702Y002300D01*
X019234Y002300D01*
X018802Y002300D01*
X018802Y002400D01*
X018702Y002400D01*
X018702Y002869D01*
X018631Y002857D01*
X018553Y002832D01*
X018480Y002795D01*
X018414Y002747D01*
X018356Y002689D01*
X018308Y002623D01*
X018270Y002550D01*
X018245Y002472D01*
X018245Y002468D01*
X018176Y002633D01*
X018036Y002774D01*
X017852Y002850D01*
X017844Y002850D01*
X017844Y004470D01*
X031372Y004470D01*
X031372Y004075D01*
X031478Y003970D01*
X032627Y003970D01*
X032628Y003967D01*
X032769Y003826D01*
X032953Y003750D01*
X033152Y003750D01*
X033336Y003826D01*
X033352Y003843D01*
X033352Y002657D01*
X033336Y002674D01*
X033152Y002750D01*
X032953Y002750D01*
X032769Y002674D01*
X032628Y002533D01*
X032552Y002349D01*
X032552Y002151D01*
X032628Y001967D01*
X032769Y001826D01*
X032953Y001750D01*
X033152Y001750D02*
X033336Y001826D01*
X033352Y001843D01*
X033352Y001700D01*
X032747Y001849D02*
X032358Y001849D01*
X032456Y001947D02*
X032648Y001947D01*
X032596Y002046D02*
X032509Y002046D01*
X032550Y002144D02*
X032555Y002144D01*
X032552Y002243D02*
X032552Y002243D01*
X032552Y002341D02*
X032552Y002341D01*
X032515Y002440D02*
X032590Y002440D01*
X032633Y002538D02*
X032471Y002538D01*
X032373Y002637D02*
X032732Y002637D01*
X032917Y002735D02*
X032188Y002735D01*
X031917Y002735D02*
X031242Y002735D01*
X031102Y002735D02*
X031002Y002735D01*
X031002Y002637D02*
X031102Y002637D01*
X031102Y002538D02*
X031002Y002538D01*
X031002Y002440D02*
X031102Y002440D01*
X031102Y002341D02*
X031002Y002341D01*
X031002Y002243D02*
X028249Y002243D01*
X028252Y002251D02*
X028176Y002067D01*
X028036Y001926D01*
X027852Y001850D01*
X027653Y001850D01*
X027469Y001926D01*
X027328Y002067D01*
X027252Y002251D01*
X027176Y002067D01*
X027036Y001926D01*
X026852Y001850D01*
X026653Y001850D01*
X026469Y001926D01*
X026328Y002067D01*
X026252Y002251D01*
X026176Y002067D01*
X026036Y001926D01*
X025852Y001850D01*
X025653Y001850D01*
X025469Y001926D01*
X025328Y002067D01*
X025252Y002251D01*
X025176Y002067D01*
X025036Y001926D01*
X024852Y001850D01*
X024653Y001850D01*
X024469Y001926D01*
X024328Y002067D01*
X024252Y002251D01*
X024176Y002067D01*
X024036Y001926D01*
X023852Y001850D01*
X023653Y001850D01*
X023469Y001926D01*
X023328Y002067D01*
X023252Y002251D01*
X023176Y002067D01*
X023036Y001926D01*
X022852Y001850D01*
X022653Y001850D01*
X022469Y001926D01*
X022328Y002067D01*
X022252Y002251D01*
X022252Y002449D01*
X022328Y002633D01*
X022469Y002774D01*
X022653Y002850D01*
X022852Y002850D01*
X023036Y002774D01*
X023176Y002633D01*
X023252Y002449D01*
X023252Y002251D01*
X023252Y002449D01*
X023328Y002633D01*
X023469Y002774D01*
X023653Y002850D01*
X023852Y002850D01*
X024036Y002774D01*
X024176Y002633D01*
X024252Y002449D01*
X024252Y002251D01*
X024252Y002449D01*
X024328Y002633D01*
X024469Y002774D01*
X024653Y002850D01*
X024852Y002850D01*
X025036Y002774D01*
X025176Y002633D01*
X025252Y002449D01*
X025252Y002251D01*
X025252Y002449D01*
X025328Y002633D01*
X025469Y002774D01*
X025653Y002850D01*
X025852Y002850D01*
X026036Y002774D01*
X026176Y002633D01*
X026252Y002449D01*
X026252Y002251D01*
X026252Y002449D01*
X026328Y002633D01*
X026469Y002774D01*
X026653Y002850D01*
X026852Y002850D01*
X027036Y002774D01*
X027176Y002633D01*
X027252Y002449D01*
X027252Y002251D01*
X027252Y002449D01*
X027328Y002633D01*
X027469Y002774D01*
X027653Y002850D01*
X027852Y002850D01*
X028036Y002774D01*
X028176Y002633D01*
X028252Y002449D01*
X028252Y002251D01*
X028252Y002341D02*
X030540Y002341D01*
X030567Y002440D02*
X028252Y002440D01*
X028216Y002538D02*
X030619Y002538D01*
X030703Y002637D02*
X028173Y002637D01*
X028074Y002735D02*
X030862Y002735D01*
X031401Y002637D02*
X031732Y002637D01*
X031633Y002538D02*
X031486Y002538D01*
X031538Y002440D02*
X031590Y002440D01*
X031560Y002132D02*
X031628Y001967D01*
X031769Y001826D01*
X031953Y001750D01*
X031196Y001750D01*
X031174Y001743D02*
X031252Y001768D01*
X031325Y001805D01*
X031391Y001853D01*
X031449Y001911D01*
X031497Y001977D01*
X031534Y002050D01*
X031560Y002128D01*
X031560Y002132D01*
X031532Y002046D02*
X031596Y002046D01*
X031648Y001947D02*
X031475Y001947D01*
X031384Y001849D02*
X031747Y001849D01*
X031953Y001750D02*
X032152Y001750D01*
X031174Y001743D02*
X031102Y001731D01*
X031102Y002200D01*
X031002Y002200D01*
X031002Y001731D01*
X030931Y001743D01*
X031002Y001750D02*
X031102Y001750D01*
X031102Y001849D02*
X031002Y001849D01*
X031002Y001947D02*
X031102Y001947D01*
X031102Y002046D02*
X031002Y002046D01*
X031002Y002144D02*
X031102Y002144D01*
X030720Y001849D02*
X019892Y001849D01*
X019874Y001843D02*
X019952Y001868D01*
X020025Y001905D01*
X020091Y001953D01*
X020149Y002011D01*
X020197Y002077D01*
X020234Y002150D01*
X020260Y002228D01*
X020260Y002232D01*
X020328Y002067D01*
X020469Y001926D01*
X020653Y001850D01*
X020852Y001850D01*
X021036Y001926D01*
X021176Y002067D01*
X021252Y002251D01*
X021252Y002449D01*
X021176Y002633D01*
X021036Y002774D01*
X020852Y002850D01*
X020653Y002850D01*
X020469Y002774D01*
X020328Y002633D01*
X020260Y002468D01*
X020260Y002472D01*
X020234Y002550D01*
X020197Y002623D01*
X020149Y002689D01*
X020091Y002747D01*
X020025Y002795D01*
X019952Y002832D01*
X019874Y002857D01*
X019802Y002869D01*
X019802Y002400D01*
X019702Y002400D01*
X019702Y002300D01*
X019802Y002300D01*
X019802Y001831D01*
X019874Y001843D01*
X019802Y001849D02*
X019702Y001849D01*
X019613Y001849D02*
X018892Y001849D01*
X018802Y001849D02*
X018702Y001849D01*
X018631Y001843D02*
X018553Y001868D01*
X018480Y001905D01*
X018414Y001953D01*
X018356Y002011D01*
X018308Y002077D01*
X018270Y002150D01*
X018245Y002228D01*
X018245Y002232D01*
X018176Y002067D01*
X018036Y001926D01*
X017852Y001850D01*
X017653Y001850D01*
X017469Y001926D01*
X017328Y002067D01*
X017252Y002251D01*
X017252Y002449D01*
X017328Y002633D01*
X017469Y002774D01*
X017484Y002780D01*
X017484Y005838D01*
X017374Y005838D01*
X017316Y005896D01*
X016989Y005896D01*
X016931Y005838D01*
X016728Y005838D01*
X016715Y005824D01*
X016019Y005824D01*
X016019Y005793D01*
X015942Y005717D01*
X015362Y005717D01*
X015309Y005770D01*
X015034Y005770D01*
X015034Y005699D01*
X014957Y005623D01*
X014417Y005623D01*
X014352Y005687D01*
X014288Y005623D01*
X013747Y005623D01*
X013671Y005699D01*
X014018Y005950D02*
X009052Y005950D01*
X009052Y002250D01*
X011953Y001750D02*
X012152Y001750D01*
X009232Y004804D02*
X017484Y004804D01*
X017484Y004902D02*
X009232Y004902D01*
X009232Y005395D02*
X015266Y005395D01*
X015272Y005493D02*
X009232Y005493D01*
X009002Y006183D02*
X013671Y006183D01*
X014687Y005950D02*
X015652Y005950D01*
X015652Y006004D01*
X016641Y006004D01*
X016641Y006076D01*
X017664Y006076D01*
X017664Y004650D01*
X025352Y004650D01*
X031552Y004650D01*
X031552Y004150D01*
X033052Y004150D01*
X033052Y004250D01*
X032678Y003917D02*
X017844Y003917D01*
X017844Y003819D02*
X032788Y003819D01*
X033317Y003819D02*
X033352Y003819D01*
X033352Y003720D02*
X017844Y003720D01*
X017844Y003622D02*
X033352Y003622D01*
X033352Y003523D02*
X017844Y003523D01*
X017844Y003425D02*
X033352Y003425D01*
X033352Y003326D02*
X017844Y003326D01*
X017844Y003228D02*
X033352Y003228D01*
X033352Y003129D02*
X017844Y003129D01*
X017844Y003031D02*
X033352Y003031D01*
X033352Y002932D02*
X017844Y002932D01*
X017892Y002834D02*
X018558Y002834D01*
X018702Y002834D02*
X018802Y002834D01*
X018802Y002869D02*
X018802Y002400D01*
X019702Y002400D01*
X019702Y002869D01*
X019631Y002857D01*
X019553Y002832D01*
X019480Y002795D01*
X019414Y002747D01*
X019356Y002689D01*
X019308Y002623D01*
X019270Y002550D01*
X019252Y002494D01*
X019234Y002550D01*
X019197Y002623D01*
X019149Y002689D01*
X019091Y002747D01*
X019025Y002795D01*
X018952Y002832D01*
X018874Y002857D01*
X018802Y002869D01*
X018802Y002735D02*
X018702Y002735D01*
X018702Y002637D02*
X018802Y002637D01*
X018802Y002538D02*
X018702Y002538D01*
X018702Y002440D02*
X018802Y002440D01*
X018802Y002341D02*
X019702Y002341D01*
X019702Y002243D02*
X019802Y002243D01*
X019802Y002144D02*
X019702Y002144D01*
X019702Y002046D02*
X019802Y002046D01*
X019802Y001947D02*
X019702Y001947D01*
X019422Y001947D02*
X019082Y001947D01*
X019174Y002046D02*
X019331Y002046D01*
X019274Y002144D02*
X019231Y002144D01*
X019238Y002538D02*
X019267Y002538D01*
X019318Y002637D02*
X019187Y002637D01*
X019103Y002735D02*
X019402Y002735D01*
X019558Y002834D02*
X018947Y002834D01*
X018402Y002735D02*
X018074Y002735D01*
X018173Y002637D02*
X018318Y002637D01*
X018267Y002538D02*
X018216Y002538D01*
X018208Y002144D02*
X018274Y002144D01*
X018331Y002046D02*
X018155Y002046D01*
X018056Y001947D02*
X018422Y001947D01*
X018702Y001947D02*
X018802Y001947D01*
X018802Y002046D02*
X018702Y002046D01*
X018702Y002144D02*
X018802Y002144D01*
X018802Y002243D02*
X018702Y002243D01*
X017752Y002350D02*
X017664Y002350D01*
X017664Y004650D01*
X017844Y004410D02*
X031372Y004410D01*
X031372Y004311D02*
X017844Y004311D01*
X017844Y004213D02*
X031372Y004213D01*
X031372Y004114D02*
X017844Y004114D01*
X017844Y004016D02*
X031432Y004016D01*
X031732Y004410D02*
X032577Y004410D01*
X032618Y004508D02*
X031732Y004508D01*
X031732Y004607D02*
X032702Y004607D01*
X032844Y004705D02*
X031732Y004705D01*
X031653Y004804D02*
X032783Y004804D01*
X032665Y004902D02*
X025532Y004902D01*
X025532Y005001D02*
X032596Y005001D01*
X032555Y005099D02*
X025532Y005099D01*
X025532Y005198D02*
X032534Y005198D01*
X032553Y005395D02*
X025532Y005395D01*
X025532Y005493D02*
X032593Y005493D01*
X032658Y005592D02*
X025532Y005592D01*
X025532Y005690D02*
X032773Y005690D01*
X032860Y005789D02*
X025532Y005789D01*
X025532Y005887D02*
X032708Y005887D01*
X032621Y005986D02*
X025532Y005986D01*
X025532Y006084D02*
X032580Y006084D01*
X032552Y006183D02*
X025532Y006183D01*
X025532Y006281D02*
X032552Y006281D01*
X032565Y006380D02*
X025532Y006380D01*
X025532Y006478D02*
X032606Y006478D01*
X032672Y006577D02*
X025532Y006577D01*
X025532Y006675D02*
X032772Y006675D01*
X032605Y006774D02*
X025532Y006774D01*
X025532Y006872D02*
X032552Y006872D01*
X032552Y006971D02*
X025532Y006971D01*
X025532Y007069D02*
X032552Y007069D01*
X032552Y007168D02*
X025532Y007168D01*
X025532Y007266D02*
X032552Y007266D01*
X032552Y007365D02*
X025532Y007365D01*
X025532Y007463D02*
X032552Y007463D01*
X032552Y007562D02*
X025532Y007562D01*
X025532Y007660D02*
X032552Y007660D01*
X033352Y007759D02*
X025532Y007759D01*
X025532Y007857D02*
X033352Y007857D01*
X033352Y007956D02*
X025532Y007956D01*
X025532Y008054D02*
X033352Y008054D01*
X033352Y008153D02*
X025591Y008153D01*
X025645Y008251D02*
X033352Y008251D01*
X033352Y008350D02*
X025661Y008350D01*
X025646Y008448D02*
X033352Y008448D01*
X033352Y008547D02*
X025592Y008547D01*
X025446Y008645D02*
X033352Y008645D01*
X033352Y009707D02*
X033336Y009724D01*
X033152Y009800D01*
X033336Y009876D01*
X033352Y009893D01*
X033352Y009707D01*
X033352Y009729D02*
X033324Y009729D01*
X033352Y009827D02*
X033217Y009827D01*
X032552Y010330D02*
X025832Y010330D01*
X025832Y011165D01*
X025878Y011120D01*
X032586Y011120D01*
X032628Y011017D01*
X032769Y010876D01*
X032953Y010800D01*
X032769Y010724D01*
X032628Y010583D01*
X032552Y010399D01*
X032552Y010330D01*
X032560Y010418D02*
X025832Y010418D01*
X025832Y010517D02*
X032601Y010517D01*
X032660Y010615D02*
X025832Y010615D01*
X025832Y010714D02*
X032759Y010714D01*
X032924Y010812D02*
X025832Y010812D01*
X025832Y010911D02*
X032735Y010911D01*
X032636Y011009D02*
X025832Y011009D01*
X025832Y011108D02*
X032591Y011108D01*
X032953Y010800D02*
X033152Y010800D01*
X032953Y010800D01*
X033152Y010800D02*
X033336Y010724D01*
X033352Y010707D01*
X033352Y010893D01*
X033336Y010876D01*
X033152Y010800D01*
X033181Y010812D02*
X033352Y010812D01*
X033346Y010714D02*
X033352Y010714D01*
X033052Y011300D02*
X025952Y011300D01*
X025952Y013650D01*
X021052Y013650D01*
X021052Y012440D01*
X020792Y012487D02*
X015767Y012487D01*
X015767Y012585D02*
X020792Y012585D01*
X020792Y012684D02*
X015767Y012684D01*
X015767Y012782D02*
X020792Y012782D01*
X020792Y012881D02*
X015767Y012881D01*
X015767Y012979D02*
X020872Y012979D01*
X020872Y013078D02*
X015767Y013078D01*
X015767Y013176D02*
X020872Y013176D01*
X020872Y013275D02*
X015767Y013275D01*
X015767Y013373D02*
X020872Y013373D01*
X020872Y013472D02*
X015767Y013472D01*
X015904Y013570D02*
X020872Y013570D01*
X020872Y013669D02*
X015934Y013669D01*
X015934Y013767D02*
X020915Y013767D01*
X020361Y014161D02*
X023372Y014161D01*
X023372Y014063D02*
X015934Y014063D01*
X015934Y013964D02*
X023372Y013964D01*
X023382Y013866D02*
X015934Y013866D01*
X015873Y014161D02*
X020144Y014161D01*
X020007Y014260D02*
X015767Y014260D01*
X015767Y014358D02*
X019957Y014358D01*
X020252Y014450D02*
X021052Y014450D01*
X021052Y014860D01*
X020792Y014851D02*
X020007Y014851D01*
X020106Y014949D02*
X020792Y014949D01*
X020792Y015048D02*
X020204Y015048D01*
X020303Y015146D02*
X020792Y015146D01*
X020792Y015245D02*
X020401Y015245D01*
X020500Y015343D02*
X020822Y015343D01*
X020697Y015540D02*
X021372Y015540D01*
X021372Y015442D02*
X020598Y015442D01*
X020795Y015639D02*
X021372Y015639D01*
X021329Y015737D02*
X020894Y015737D01*
X020992Y015836D02*
X021266Y015836D01*
X021244Y015934D02*
X021091Y015934D01*
X021189Y016033D02*
X021253Y016033D01*
X021288Y016131D02*
X021297Y016131D01*
X021386Y016230D02*
X021421Y016230D01*
X021485Y016328D02*
X021872Y016328D01*
X021872Y016230D02*
X021683Y016230D01*
X021808Y016131D02*
X021872Y016131D01*
X021872Y016033D02*
X021852Y016033D01*
X021861Y015934D02*
X021872Y015934D01*
X021872Y015836D02*
X021839Y015836D01*
X021872Y015737D02*
X021776Y015737D01*
X021732Y015639D02*
X021872Y015639D01*
X021872Y015540D02*
X021732Y015540D01*
X021732Y015442D02*
X021872Y015442D01*
X021822Y015343D02*
X021783Y015343D01*
X021322Y015343D02*
X021283Y015343D01*
X021552Y014860D02*
X021552Y015950D01*
X021583Y016427D02*
X021872Y016427D01*
X021065Y017018D02*
X020974Y017018D01*
X020967Y016919D02*
X020876Y016919D01*
X020868Y016821D02*
X020777Y016821D01*
X020770Y016722D02*
X020679Y016722D01*
X020671Y016624D02*
X020580Y016624D01*
X020573Y016525D02*
X020482Y016525D01*
X020474Y016427D02*
X020383Y016427D01*
X020376Y016328D02*
X020285Y016328D01*
X020202Y016500D02*
X021352Y017650D01*
X024052Y017650D01*
X024052Y014860D01*
X023822Y015343D02*
X023783Y015343D01*
X023872Y015442D02*
X023232Y015442D01*
X023232Y015540D02*
X023872Y015540D01*
X023872Y015639D02*
X023232Y015639D01*
X023232Y015737D02*
X023872Y015737D01*
X023872Y015836D02*
X023232Y015836D01*
X023232Y015934D02*
X023872Y015934D01*
X023872Y016033D02*
X023232Y016033D01*
X023232Y016131D02*
X023872Y016131D01*
X023872Y016230D02*
X023232Y016230D01*
X023232Y016328D02*
X023872Y016328D01*
X023872Y016427D02*
X023232Y016427D01*
X023232Y016525D02*
X023872Y016525D01*
X023872Y016624D02*
X023232Y016624D01*
X023232Y016722D02*
X023872Y016722D01*
X023872Y016821D02*
X023232Y016821D01*
X023232Y016919D02*
X023872Y016919D01*
X023872Y017018D02*
X023232Y017018D01*
X023232Y017116D02*
X023872Y017116D01*
X023872Y017215D02*
X023232Y017215D01*
X023144Y017313D02*
X023872Y017313D01*
X023872Y017412D02*
X021368Y017412D01*
X021361Y017313D02*
X021270Y017313D01*
X021262Y017215D02*
X021171Y017215D01*
X021164Y017116D02*
X021073Y017116D01*
X020859Y017412D02*
X019855Y017412D01*
X019855Y017510D02*
X020958Y017510D01*
X021056Y017609D02*
X019855Y017609D01*
X019855Y017707D02*
X021155Y017707D01*
X021172Y017725D02*
X021172Y017725D01*
X021253Y017806D02*
X019855Y017806D01*
X019855Y017904D02*
X025172Y017904D01*
X025172Y017806D02*
X024151Y017806D01*
X024232Y017707D02*
X025172Y017707D01*
X025172Y017609D02*
X024232Y017609D01*
X024232Y017510D02*
X025172Y017510D01*
X025172Y017412D02*
X024232Y017412D01*
X024232Y017313D02*
X025172Y017313D01*
X025172Y017215D02*
X024232Y017215D01*
X024232Y017116D02*
X025172Y017116D01*
X025172Y017018D02*
X024232Y017018D01*
X024232Y016919D02*
X025172Y016919D01*
X025172Y016821D02*
X024232Y016821D01*
X024232Y016722D02*
X025172Y016722D01*
X025172Y016624D02*
X024232Y016624D01*
X024232Y016525D02*
X025172Y016525D01*
X025172Y016427D02*
X024232Y016427D01*
X024232Y016328D02*
X025172Y016328D01*
X025172Y016230D02*
X024232Y016230D01*
X024232Y016131D02*
X025172Y016131D01*
X025172Y016033D02*
X024232Y016033D01*
X024232Y015934D02*
X025172Y015934D01*
X025102Y015836D02*
X024232Y015836D01*
X024232Y015737D02*
X025055Y015737D01*
X025044Y015639D02*
X024762Y015639D01*
X024899Y015540D02*
X025064Y015540D01*
X024543Y015639D02*
X024232Y015639D01*
X024232Y015540D02*
X024406Y015540D01*
X024356Y015442D02*
X024232Y015442D01*
X023322Y015343D02*
X023283Y015343D01*
X022822Y015343D02*
X022783Y015343D01*
X022764Y014358D02*
X022840Y014358D01*
X023264Y014358D02*
X023340Y014358D01*
X023372Y014260D02*
X020498Y014260D01*
X020485Y014654D02*
X020792Y014654D01*
X020792Y014752D02*
X020329Y014752D01*
X020176Y014752D02*
X019909Y014752D01*
X021264Y014358D02*
X021340Y014358D01*
X021764Y014358D02*
X021840Y014358D01*
X022264Y014358D02*
X022340Y014358D01*
X023764Y014358D02*
X023840Y014358D01*
X024552Y014300D02*
X033052Y014300D01*
X033268Y014752D02*
X033352Y014752D01*
X033336Y014724D02*
X033152Y014800D01*
X032953Y014800D01*
X033152Y014800D01*
X033336Y014876D01*
X033352Y014893D01*
X033352Y014707D01*
X033336Y014724D01*
X033352Y014851D02*
X033274Y014851D01*
X032586Y014120D02*
X032628Y014017D01*
X032769Y013876D01*
X032953Y013800D01*
X032769Y013724D01*
X032628Y013583D01*
X032552Y013399D01*
X032552Y013201D01*
X032628Y013017D01*
X032769Y012876D01*
X032953Y012800D01*
X032769Y012724D01*
X032628Y012583D01*
X032552Y012399D01*
X032552Y012201D01*
X032628Y012017D01*
X032769Y011876D01*
X032953Y011800D01*
X032769Y011724D01*
X032628Y011583D01*
X032586Y011480D01*
X026132Y011480D01*
X026132Y013725D01*
X026027Y013830D01*
X024687Y013830D01*
X024732Y013875D01*
X024732Y014120D01*
X032586Y014120D01*
X032610Y014063D02*
X024732Y014063D01*
X024732Y013964D02*
X032681Y013964D01*
X032795Y013866D02*
X024722Y013866D01*
X025452Y013150D02*
X025452Y009350D01*
X025272Y009275D02*
X025272Y012970D01*
X024257Y012970D01*
X024274Y012960D01*
X024302Y012932D01*
X024322Y012898D01*
X024332Y012860D01*
X024332Y012455D01*
X024067Y012455D01*
X024067Y012425D01*
X024067Y011890D01*
X024202Y011890D01*
X024240Y011900D01*
X024274Y011920D01*
X024302Y011948D01*
X024322Y011982D01*
X024332Y012020D01*
X024332Y012425D01*
X024067Y012425D01*
X024037Y012425D01*
X024037Y011890D01*
X023903Y011890D01*
X023864Y011900D01*
X023830Y011920D01*
X023802Y011948D01*
X023792Y011966D01*
X023736Y011910D01*
X023732Y011910D01*
X023732Y010375D01*
X023627Y010270D01*
X012778Y010270D01*
X012672Y010375D01*
X012672Y011848D01*
X012542Y011848D01*
X012477Y011912D01*
X012413Y011848D01*
X012323Y011848D01*
X012323Y009630D01*
X012323Y009729D02*
X025272Y009729D01*
X025272Y009827D02*
X012323Y009827D01*
X012323Y009926D02*
X025272Y009926D01*
X025272Y010024D02*
X012323Y010024D01*
X012323Y010123D02*
X025272Y010123D01*
X025272Y010221D02*
X012323Y010221D01*
X012323Y010320D02*
X012728Y010320D01*
X012672Y010418D02*
X012323Y010418D01*
X012323Y010517D02*
X012672Y010517D01*
X012672Y010615D02*
X012323Y010615D01*
X012323Y010714D02*
X012672Y010714D01*
X012672Y010812D02*
X012323Y010812D01*
X012323Y010911D02*
X012672Y010911D01*
X012672Y011009D02*
X012323Y011009D01*
X012323Y011108D02*
X012672Y011108D01*
X012672Y011206D02*
X012323Y011206D01*
X012323Y011305D02*
X012672Y011305D01*
X012672Y011403D02*
X012323Y011403D01*
X012323Y011502D02*
X012672Y011502D01*
X012672Y011600D02*
X012323Y011600D01*
X012323Y011699D02*
X012672Y011699D01*
X012672Y011797D02*
X012323Y011797D01*
X012460Y011896D02*
X012494Y011896D01*
X012812Y012175D02*
X012852Y012175D01*
X012852Y010450D01*
X023552Y010450D01*
X023552Y012440D01*
X024037Y012388D02*
X024067Y012388D01*
X024067Y012290D02*
X024037Y012290D01*
X024037Y012191D02*
X024067Y012191D01*
X024067Y012093D02*
X024037Y012093D01*
X024037Y011994D02*
X024067Y011994D01*
X024067Y011896D02*
X024037Y011896D01*
X023882Y011896D02*
X023732Y011896D01*
X023732Y011797D02*
X025272Y011797D01*
X025272Y011699D02*
X023732Y011699D01*
X023732Y011600D02*
X025272Y011600D01*
X025272Y011502D02*
X023732Y011502D01*
X023732Y011403D02*
X025272Y011403D01*
X025272Y011305D02*
X023732Y011305D01*
X023732Y011206D02*
X025272Y011206D01*
X025272Y011108D02*
X023732Y011108D01*
X023732Y011009D02*
X025272Y011009D01*
X025272Y010911D02*
X023732Y010911D01*
X023732Y010812D02*
X025272Y010812D01*
X025272Y010714D02*
X023732Y010714D01*
X023732Y010615D02*
X025272Y010615D01*
X025272Y010517D02*
X023732Y010517D01*
X023732Y010418D02*
X025272Y010418D01*
X025272Y010320D02*
X023676Y010320D01*
X023372Y010630D02*
X022732Y010630D01*
X022732Y011910D01*
X022736Y011910D01*
X022802Y011976D01*
X022869Y011910D01*
X023236Y011910D01*
X023302Y011976D01*
X023369Y011910D01*
X023372Y011910D01*
X023372Y010630D01*
X023372Y010714D02*
X022732Y010714D01*
X022732Y010812D02*
X023372Y010812D01*
X023372Y010911D02*
X022732Y010911D01*
X022732Y011009D02*
X023372Y011009D01*
X023372Y011108D02*
X022732Y011108D01*
X022732Y011206D02*
X023372Y011206D01*
X023372Y011305D02*
X022732Y011305D01*
X022732Y011403D02*
X023372Y011403D01*
X023372Y011502D02*
X022732Y011502D01*
X022732Y011600D02*
X023372Y011600D01*
X023372Y011699D02*
X022732Y011699D01*
X022732Y011797D02*
X023372Y011797D01*
X023372Y011896D02*
X022732Y011896D01*
X022372Y011896D02*
X021832Y011896D01*
X021869Y011910D02*
X022236Y011910D01*
X022302Y011976D01*
X022369Y011910D01*
X022372Y011910D01*
X022372Y010830D01*
X021832Y010830D01*
X021832Y011946D01*
X021869Y011910D01*
X021832Y011797D02*
X022372Y011797D01*
X022372Y011699D02*
X021832Y011699D01*
X021832Y011600D02*
X022372Y011600D01*
X022372Y011502D02*
X021832Y011502D01*
X021832Y011403D02*
X022372Y011403D01*
X022372Y011305D02*
X021832Y011305D01*
X021832Y011206D02*
X022372Y011206D01*
X022372Y011108D02*
X021832Y011108D01*
X021832Y011009D02*
X022372Y011009D01*
X022372Y010911D02*
X021832Y010911D01*
X021472Y011108D02*
X015767Y011108D01*
X015767Y011206D02*
X021472Y011206D01*
X021472Y011305D02*
X015767Y011305D01*
X015767Y011403D02*
X021472Y011403D01*
X021472Y011502D02*
X015767Y011502D01*
X015767Y011600D02*
X021472Y011600D01*
X021472Y011699D02*
X015767Y011699D01*
X015767Y011797D02*
X021472Y011797D01*
X021472Y011896D02*
X015767Y011896D01*
X015767Y011994D02*
X020792Y011994D01*
X020792Y012093D02*
X015767Y012093D01*
X015767Y012191D02*
X020792Y012191D01*
X020792Y012290D02*
X015767Y012290D01*
X015767Y012388D02*
X020792Y012388D01*
X022552Y012440D02*
X022552Y010650D01*
X014152Y010650D01*
X014152Y013100D01*
X014087Y013100D01*
X014052Y013100D01*
X014052Y017553D01*
X013450Y017510D02*
X013255Y017510D01*
X013255Y017412D02*
X013450Y017412D01*
X013450Y017313D02*
X013255Y017313D01*
X013255Y017215D02*
X013450Y017215D01*
X013478Y017116D02*
X013226Y017116D01*
X013192Y017018D02*
X012992Y017018D01*
X012992Y016919D02*
X013089Y016919D01*
X013048Y016821D02*
X012992Y016821D01*
X012992Y016722D02*
X013044Y016722D01*
X013071Y016624D02*
X012992Y016624D01*
X012992Y016525D02*
X013141Y016525D01*
X013172Y016427D02*
X012992Y016427D01*
X012992Y016328D02*
X013172Y016328D01*
X013172Y016230D02*
X012992Y016230D01*
X012992Y016131D02*
X013172Y016131D01*
X013172Y016033D02*
X012992Y016033D01*
X012992Y015934D02*
X013172Y015934D01*
X013172Y015836D02*
X012992Y015836D01*
X012992Y015737D02*
X013172Y015737D01*
X013172Y015639D02*
X012992Y015639D01*
X012992Y015540D02*
X013172Y015540D01*
X013172Y015442D02*
X012992Y015442D01*
X012992Y015343D02*
X013172Y015343D01*
X013172Y015245D02*
X012992Y015245D01*
X012992Y015146D02*
X013172Y015146D01*
X013172Y015048D02*
X012992Y015048D01*
X012992Y014949D02*
X013172Y014949D01*
X013172Y014851D02*
X012992Y014851D01*
X012992Y014752D02*
X013172Y014752D01*
X013172Y014654D02*
X012992Y014654D01*
X012992Y014555D02*
X013172Y014555D01*
X013172Y014457D02*
X012992Y014457D01*
X012992Y014358D02*
X013172Y014358D01*
X013172Y014260D02*
X012992Y014260D01*
X012992Y014161D02*
X013172Y014161D01*
X013172Y014063D02*
X012992Y014063D01*
X012992Y013964D02*
X013172Y013964D01*
X013172Y013866D02*
X012992Y013866D01*
X012992Y013767D02*
X013172Y013767D01*
X013172Y013669D02*
X012992Y013669D01*
X012992Y013570D02*
X013172Y013570D01*
X013172Y013472D02*
X012992Y013472D01*
X012992Y013373D02*
X013094Y013373D01*
X013071Y013275D02*
X012992Y013275D01*
X012992Y013176D02*
X013071Y013176D01*
X013071Y013078D02*
X012992Y013078D01*
X012992Y012979D02*
X013071Y012979D01*
X013071Y012881D02*
X012992Y012881D01*
X012992Y012782D02*
X013138Y012782D01*
X012992Y012684D02*
X013972Y012684D01*
X013972Y012585D02*
X012992Y012585D01*
X013098Y012487D02*
X013972Y012487D01*
X013972Y012388D02*
X013159Y012388D01*
X013159Y012290D02*
X013972Y012290D01*
X013972Y012191D02*
X013159Y012191D01*
X013159Y012093D02*
X013972Y012093D01*
X013972Y011994D02*
X013159Y011994D01*
X013130Y011896D02*
X013972Y011896D01*
X013972Y011797D02*
X013032Y011797D01*
X013032Y011699D02*
X013972Y011699D01*
X013972Y011600D02*
X013032Y011600D01*
X013032Y011502D02*
X013972Y011502D01*
X013972Y011403D02*
X013032Y011403D01*
X013032Y011305D02*
X013972Y011305D01*
X013972Y011206D02*
X013032Y011206D01*
X013032Y011108D02*
X013972Y011108D01*
X013972Y011009D02*
X013032Y011009D01*
X013032Y010911D02*
X013972Y010911D01*
X013972Y010812D02*
X013032Y010812D01*
X013032Y010714D02*
X013972Y010714D01*
X014332Y010911D02*
X015407Y010911D01*
X015407Y011009D02*
X014332Y011009D01*
X014332Y011108D02*
X015407Y011108D01*
X015407Y011206D02*
X014332Y011206D01*
X014332Y011305D02*
X015407Y011305D01*
X015407Y011403D02*
X014332Y011403D01*
X014332Y011502D02*
X015407Y011502D01*
X015407Y011600D02*
X014332Y011600D01*
X014332Y011699D02*
X015407Y011699D01*
X015407Y011797D02*
X014332Y011797D01*
X014332Y011896D02*
X015407Y011896D01*
X015407Y011994D02*
X014332Y011994D01*
X014332Y012093D02*
X015407Y012093D01*
X015407Y012191D02*
X014332Y012191D01*
X014332Y012290D02*
X015407Y012290D01*
X015407Y012388D02*
X014332Y012388D01*
X014332Y012487D02*
X015407Y012487D01*
X015407Y012585D02*
X014332Y012585D01*
X014332Y012684D02*
X015407Y012684D01*
X015407Y012782D02*
X014366Y012782D01*
X014434Y012881D02*
X015407Y012881D01*
X015407Y012979D02*
X014434Y012979D01*
X014434Y013078D02*
X015407Y013078D01*
X015407Y013176D02*
X014434Y013176D01*
X014434Y013275D02*
X015407Y013275D01*
X015407Y013373D02*
X014411Y013373D01*
X014232Y013472D02*
X015407Y013472D01*
X015270Y013570D02*
X015235Y013570D01*
X014918Y013850D02*
X014752Y013850D01*
X014752Y016750D01*
X014471Y016624D02*
X014232Y016624D01*
X014232Y016722D02*
X014444Y016722D01*
X014448Y016821D02*
X014232Y016821D01*
X014232Y016919D02*
X014489Y016919D01*
X014592Y017018D02*
X014232Y017018D01*
X013872Y017018D02*
X013512Y017018D01*
X013616Y016919D02*
X013872Y016919D01*
X013872Y016821D02*
X013657Y016821D01*
X013661Y016722D02*
X013872Y016722D01*
X013872Y016624D02*
X013634Y016624D01*
X013564Y016525D02*
X013872Y016525D01*
X013872Y016427D02*
X013532Y016427D01*
X013532Y016328D02*
X013872Y016328D01*
X013872Y016230D02*
X013532Y016230D01*
X013532Y016131D02*
X013872Y016131D01*
X013872Y016033D02*
X013532Y016033D01*
X013532Y015934D02*
X013872Y015934D01*
X013872Y015836D02*
X013532Y015836D01*
X013532Y015737D02*
X013872Y015737D01*
X013872Y015639D02*
X013532Y015639D01*
X013532Y015540D02*
X013872Y015540D01*
X013872Y015442D02*
X013532Y015442D01*
X013532Y015343D02*
X013872Y015343D01*
X013872Y015245D02*
X013532Y015245D01*
X013532Y015146D02*
X013872Y015146D01*
X013872Y015048D02*
X013532Y015048D01*
X013532Y014949D02*
X013872Y014949D01*
X013872Y014851D02*
X013532Y014851D01*
X013532Y014752D02*
X013872Y014752D01*
X013872Y014654D02*
X013532Y014654D01*
X013532Y014555D02*
X013872Y014555D01*
X013872Y014457D02*
X013532Y014457D01*
X013532Y014358D02*
X013872Y014358D01*
X013872Y014260D02*
X013532Y014260D01*
X013532Y014161D02*
X013872Y014161D01*
X013872Y014063D02*
X013532Y014063D01*
X013532Y013964D02*
X013872Y013964D01*
X013872Y013866D02*
X013532Y013866D01*
X013532Y013767D02*
X013872Y013767D01*
X013872Y013669D02*
X013532Y013669D01*
X013532Y013570D02*
X013872Y013570D01*
X013872Y013472D02*
X013532Y013472D01*
X013742Y013373D02*
X013763Y013373D01*
X013418Y013100D02*
X013352Y013100D01*
X013352Y016750D01*
X012632Y016722D02*
X012261Y016722D01*
X012257Y016821D02*
X012632Y016821D01*
X012632Y016919D02*
X012216Y016919D01*
X012112Y017018D02*
X012632Y017018D01*
X012632Y016624D02*
X012234Y016624D01*
X012164Y016525D02*
X012632Y016525D01*
X012632Y016427D02*
X012132Y016427D01*
X012132Y016328D02*
X012632Y016328D01*
X012632Y016230D02*
X012132Y016230D01*
X012132Y016131D02*
X012632Y016131D01*
X012632Y016033D02*
X012132Y016033D01*
X012132Y015934D02*
X012632Y015934D01*
X012632Y015836D02*
X012132Y015836D01*
X012132Y015737D02*
X012632Y015737D01*
X012632Y015639D02*
X012132Y015639D01*
X012132Y015540D02*
X012632Y015540D01*
X012632Y015442D02*
X012132Y015442D01*
X012132Y015343D02*
X012632Y015343D01*
X012632Y015245D02*
X012132Y015245D01*
X012132Y015146D02*
X012632Y015146D01*
X012632Y015048D02*
X012132Y015048D01*
X012132Y014949D02*
X012632Y014949D01*
X012632Y014851D02*
X012132Y014851D01*
X012132Y014752D02*
X012632Y014752D01*
X012632Y014654D02*
X012132Y014654D01*
X012132Y014555D02*
X012632Y014555D01*
X012632Y014457D02*
X012132Y014457D01*
X012132Y014358D02*
X012632Y014358D01*
X012632Y014260D02*
X012132Y014260D01*
X012132Y014161D02*
X012632Y014161D01*
X012632Y014063D02*
X012132Y014063D01*
X012132Y013964D02*
X012632Y013964D01*
X012632Y013866D02*
X012132Y013866D01*
X012132Y013767D02*
X012632Y013767D01*
X012632Y013669D02*
X012132Y013669D01*
X012132Y013570D02*
X012632Y013570D01*
X012632Y013472D02*
X012132Y013472D01*
X012132Y013373D02*
X012632Y013373D01*
X012632Y013275D02*
X012132Y013275D01*
X012132Y013176D02*
X012632Y013176D01*
X012632Y013078D02*
X012132Y013078D01*
X012132Y012979D02*
X012632Y012979D01*
X012632Y012881D02*
X012132Y012881D01*
X012132Y012782D02*
X012632Y012782D01*
X012632Y012684D02*
X012132Y012684D01*
X012132Y012585D02*
X012632Y012585D01*
X012526Y012487D02*
X012428Y012487D01*
X012143Y012175D02*
X012143Y009450D01*
X018352Y009450D01*
X018352Y006450D01*
X017664Y006450D01*
X019352Y006450D01*
X019352Y006104D01*
X018986Y006084D02*
X018030Y006084D01*
X018030Y005986D02*
X018986Y005986D01*
X018992Y005887D02*
X018004Y005887D01*
X018030Y006183D02*
X018986Y006183D01*
X019324Y005690D02*
X019381Y005690D01*
X019381Y005592D02*
X019324Y005592D01*
X019324Y005493D02*
X019381Y005493D01*
X019381Y005296D02*
X019324Y005296D01*
X019324Y005198D02*
X019381Y005198D01*
X019381Y005099D02*
X019324Y005099D01*
X019734Y005592D02*
X025172Y005592D01*
X025172Y005690D02*
X019652Y005690D01*
X018172Y006675D02*
X018030Y006675D01*
X018030Y006774D02*
X018172Y006774D01*
X018172Y006872D02*
X018030Y006872D01*
X018030Y006971D02*
X018172Y006971D01*
X018172Y007069D02*
X017844Y007069D01*
X017844Y007168D02*
X018172Y007168D01*
X018172Y007266D02*
X017844Y007266D01*
X017844Y007365D02*
X018172Y007365D01*
X018172Y007463D02*
X017844Y007463D01*
X017844Y007562D02*
X018172Y007562D01*
X018172Y007660D02*
X017844Y007660D01*
X017844Y007759D02*
X018172Y007759D01*
X018172Y007857D02*
X017812Y007857D01*
X017794Y007956D02*
X018172Y007956D01*
X018172Y008054D02*
X017780Y008054D01*
X017664Y007750D02*
X017664Y006824D01*
X017484Y007069D02*
X016732Y007069D01*
X016732Y007168D02*
X017484Y007168D01*
X017484Y007266D02*
X016732Y007266D01*
X016732Y007365D02*
X017484Y007365D01*
X017219Y007463D02*
X017086Y007463D01*
X017086Y007562D02*
X017219Y007562D01*
X017219Y007660D02*
X017086Y007660D01*
X017086Y007759D02*
X017219Y007759D01*
X017219Y007857D02*
X017086Y007857D01*
X017086Y007956D02*
X017219Y007956D01*
X017233Y008054D02*
X017072Y008054D01*
X016798Y007750D02*
X016552Y007750D01*
X016552Y006824D01*
X016641Y006824D01*
X016372Y007069D02*
X009002Y007069D01*
X009002Y006971D02*
X016274Y006971D01*
X016274Y006872D02*
X009002Y006872D01*
X009002Y006774D02*
X016274Y006774D01*
X016274Y006675D02*
X009002Y006675D01*
X009002Y006577D02*
X016254Y006577D01*
X016254Y006478D02*
X009002Y006478D01*
X009002Y006380D02*
X016254Y006380D01*
X016266Y006281D02*
X015953Y006281D01*
X016014Y005789D02*
X017484Y005789D01*
X017484Y005690D02*
X015024Y005690D01*
X015034Y006183D02*
X015286Y006183D01*
X015351Y006281D02*
X009002Y006281D01*
X009002Y007168D02*
X016372Y007168D01*
X016372Y007266D02*
X009002Y007266D01*
X009002Y007365D02*
X016372Y007365D01*
X016372Y007463D02*
X009002Y007463D01*
X009002Y007562D02*
X016372Y007562D01*
X016372Y007660D02*
X009002Y007660D01*
X009002Y007759D02*
X016372Y007759D01*
X016405Y007857D02*
X009002Y007857D01*
X009002Y007956D02*
X016511Y007956D01*
X016524Y008054D02*
X009002Y008054D01*
X009002Y008153D02*
X018172Y008153D01*
X018172Y008251D02*
X009002Y008251D01*
X009002Y008350D02*
X018172Y008350D01*
X018172Y008448D02*
X009002Y008448D01*
X009002Y008547D02*
X018172Y008547D01*
X018172Y008645D02*
X009002Y008645D01*
X009002Y008744D02*
X018172Y008744D01*
X018172Y008842D02*
X009002Y008842D01*
X009002Y008941D02*
X018172Y008941D01*
X018172Y009039D02*
X009002Y009039D01*
X009002Y009138D02*
X018172Y009138D01*
X018172Y009236D02*
X009002Y009236D01*
X009002Y009335D02*
X012004Y009335D01*
X011963Y009433D02*
X009002Y009433D01*
X009002Y009532D02*
X011963Y009532D01*
X011963Y009630D02*
X009002Y009630D01*
X009002Y009729D02*
X011963Y009729D01*
X011963Y009827D02*
X009002Y009827D01*
X009002Y009926D02*
X011963Y009926D01*
X011963Y010024D02*
X009002Y010024D01*
X009002Y010123D02*
X011963Y010123D01*
X011963Y010221D02*
X009002Y010221D01*
X009002Y010320D02*
X011963Y010320D01*
X011963Y010418D02*
X009002Y010418D01*
X009002Y010517D02*
X011963Y010517D01*
X011963Y010615D02*
X009002Y010615D01*
X009002Y010714D02*
X011963Y010714D01*
X011963Y010812D02*
X009002Y010812D01*
X009002Y010911D02*
X011963Y010911D01*
X011963Y011009D02*
X009002Y011009D01*
X009002Y011108D02*
X011963Y011108D01*
X011963Y011206D02*
X009002Y011206D01*
X009002Y011305D02*
X011963Y011305D01*
X011963Y011403D02*
X009002Y011403D01*
X009002Y011502D02*
X011963Y011502D01*
X011963Y011600D02*
X009002Y011600D01*
X009002Y011699D02*
X011963Y011699D01*
X011963Y011797D02*
X009002Y011797D01*
X009002Y011896D02*
X011825Y011896D01*
X011796Y011994D02*
X009002Y011994D01*
X009002Y012093D02*
X011772Y012093D01*
X011772Y012191D02*
X009002Y012191D01*
X009002Y012290D02*
X011772Y012290D01*
X011772Y012388D02*
X009002Y012388D01*
X009002Y012487D02*
X011772Y012487D01*
X011772Y012585D02*
X009002Y012585D01*
X009002Y012684D02*
X011772Y012684D01*
X011772Y012782D02*
X009002Y012782D01*
X009002Y012881D02*
X011772Y012881D01*
X011772Y012979D02*
X009002Y012979D01*
X009002Y013078D02*
X011772Y013078D01*
X011772Y013176D02*
X009002Y013176D01*
X009002Y013275D02*
X011772Y013275D01*
X011772Y013373D02*
X009002Y013373D01*
X009002Y013472D02*
X011772Y013472D01*
X011772Y013570D02*
X009002Y013570D01*
X009002Y013669D02*
X011772Y013669D01*
X011772Y013767D02*
X009002Y013767D01*
X009002Y013866D02*
X011772Y013866D01*
X011772Y013964D02*
X009002Y013964D01*
X009002Y014063D02*
X011772Y014063D01*
X011772Y014161D02*
X009002Y014161D01*
X009002Y014260D02*
X011772Y014260D01*
X011772Y014358D02*
X009002Y014358D01*
X009002Y014457D02*
X011772Y014457D01*
X011772Y014555D02*
X009002Y014555D01*
X009002Y014654D02*
X011772Y014654D01*
X011772Y014752D02*
X009002Y014752D01*
X009002Y014851D02*
X011772Y014851D01*
X011772Y014949D02*
X009002Y014949D01*
X009002Y015048D02*
X011772Y015048D01*
X011772Y015146D02*
X009002Y015146D01*
X009002Y015245D02*
X011772Y015245D01*
X011772Y015343D02*
X009002Y015343D01*
X009002Y015442D02*
X011772Y015442D01*
X011772Y015540D02*
X009002Y015540D01*
X009002Y015639D02*
X011772Y015639D01*
X011772Y015737D02*
X009002Y015737D01*
X009002Y015836D02*
X011772Y015836D01*
X011772Y015934D02*
X009002Y015934D01*
X009002Y016033D02*
X011772Y016033D01*
X011772Y016131D02*
X009002Y016131D01*
X009002Y016230D02*
X011772Y016230D01*
X011772Y016328D02*
X009002Y016328D01*
X009002Y016427D02*
X011772Y016427D01*
X011741Y016525D02*
X009002Y016525D01*
X009002Y016624D02*
X011671Y016624D01*
X011644Y016722D02*
X009002Y016722D01*
X009002Y016821D02*
X011648Y016821D01*
X011689Y016919D02*
X009002Y016919D01*
X009002Y017018D02*
X011792Y017018D01*
X012078Y017116D02*
X009002Y017116D01*
X009002Y017215D02*
X012050Y017215D01*
X012050Y017313D02*
X009002Y017313D01*
X009002Y017412D02*
X012050Y017412D01*
X012050Y017510D02*
X009002Y017510D01*
X009002Y017609D02*
X012050Y017609D01*
X012050Y017707D02*
X009002Y017707D01*
X009002Y017806D02*
X012050Y017806D01*
X012050Y017904D02*
X009002Y017904D01*
X009002Y018003D02*
X012092Y018003D01*
X012652Y017553D02*
X012812Y017553D01*
X012812Y012175D01*
X012143Y012150D02*
X012143Y012175D01*
X012143Y012150D02*
X011952Y012150D01*
X011952Y016750D01*
X013255Y017609D02*
X013450Y017609D01*
X013450Y017707D02*
X013255Y017707D01*
X013255Y017806D02*
X013450Y017806D01*
X013450Y017904D02*
X013255Y017904D01*
X013213Y018003D02*
X013492Y018003D01*
X013497Y018692D02*
X013208Y018692D01*
X013255Y018791D02*
X013450Y018791D01*
X013450Y018889D02*
X013255Y018889D01*
X013255Y018988D02*
X013450Y018988D01*
X013450Y019086D02*
X013255Y019086D01*
X012652Y019147D02*
X012652Y019250D01*
X014252Y020850D01*
X014252Y021350D01*
X015352Y019950D02*
X015352Y019147D01*
X014750Y019185D02*
X014655Y019185D01*
X014655Y019283D02*
X014750Y019283D01*
X014750Y019382D02*
X014655Y019382D01*
X014655Y019480D02*
X014750Y019480D01*
X014773Y019579D02*
X014632Y019579D01*
X014655Y019086D02*
X014750Y019086D01*
X014750Y018988D02*
X014655Y018988D01*
X014655Y018889D02*
X014750Y018889D01*
X014750Y018791D02*
X014655Y018791D01*
X014608Y018692D02*
X014797Y018692D01*
X014792Y018003D02*
X014613Y018003D01*
X014655Y017904D02*
X014750Y017904D01*
X014750Y017806D02*
X014655Y017806D01*
X014655Y017707D02*
X014750Y017707D01*
X014750Y017609D02*
X014655Y017609D01*
X014655Y017510D02*
X014750Y017510D01*
X014750Y017412D02*
X014655Y017412D01*
X014655Y017313D02*
X014750Y017313D01*
X014750Y017215D02*
X014655Y017215D01*
X014626Y017116D02*
X014778Y017116D01*
X014912Y017018D02*
X015407Y017018D01*
X015407Y016919D02*
X015016Y016919D01*
X015057Y016821D02*
X015407Y016821D01*
X015407Y016722D02*
X015061Y016722D01*
X015034Y016624D02*
X015407Y016624D01*
X015407Y016525D02*
X014964Y016525D01*
X014932Y016427D02*
X015407Y016427D01*
X015407Y016328D02*
X014932Y016328D01*
X014932Y016230D02*
X015407Y016230D01*
X015407Y016131D02*
X014932Y016131D01*
X014932Y016033D02*
X015407Y016033D01*
X015407Y015934D02*
X014932Y015934D01*
X014932Y015836D02*
X015407Y015836D01*
X015407Y015737D02*
X014932Y015737D01*
X014932Y015639D02*
X015407Y015639D01*
X015407Y015540D02*
X014932Y015540D01*
X014932Y015442D02*
X015407Y015442D01*
X015407Y015343D02*
X014932Y015343D01*
X014932Y015245D02*
X015407Y015245D01*
X015407Y015146D02*
X014932Y015146D01*
X014932Y015048D02*
X015407Y015048D01*
X015407Y014949D02*
X014932Y014949D01*
X014932Y014851D02*
X015407Y014851D01*
X015407Y014752D02*
X014932Y014752D01*
X014932Y014654D02*
X015407Y014654D01*
X015407Y014555D02*
X014932Y014555D01*
X014932Y014457D02*
X015407Y014457D01*
X015407Y014358D02*
X014932Y014358D01*
X014932Y014260D02*
X015407Y014260D01*
X015301Y014161D02*
X015204Y014161D01*
X014572Y014161D02*
X014232Y014161D01*
X014232Y014063D02*
X014571Y014063D01*
X014571Y013964D02*
X014232Y013964D01*
X014232Y013866D02*
X014571Y013866D01*
X014571Y013767D02*
X014232Y013767D01*
X014232Y013669D02*
X014571Y013669D01*
X014600Y013570D02*
X014232Y013570D01*
X014232Y014260D02*
X014572Y014260D01*
X014572Y014358D02*
X014232Y014358D01*
X014232Y014457D02*
X014572Y014457D01*
X014572Y014555D02*
X014232Y014555D01*
X014232Y014654D02*
X014572Y014654D01*
X014572Y014752D02*
X014232Y014752D01*
X014232Y014851D02*
X014572Y014851D01*
X014572Y014949D02*
X014232Y014949D01*
X014232Y015048D02*
X014572Y015048D01*
X014572Y015146D02*
X014232Y015146D01*
X014232Y015245D02*
X014572Y015245D01*
X014572Y015343D02*
X014232Y015343D01*
X014232Y015442D02*
X014572Y015442D01*
X014572Y015540D02*
X014232Y015540D01*
X014232Y015639D02*
X014572Y015639D01*
X014572Y015737D02*
X014232Y015737D01*
X014232Y015836D02*
X014572Y015836D01*
X014572Y015934D02*
X014232Y015934D01*
X014232Y016033D02*
X014572Y016033D01*
X014572Y016131D02*
X014232Y016131D01*
X014232Y016230D02*
X014572Y016230D01*
X014572Y016328D02*
X014232Y016328D01*
X014232Y016427D02*
X014572Y016427D01*
X014541Y016525D02*
X014232Y016525D01*
X015767Y016525D02*
X015941Y016525D01*
X015972Y016427D02*
X015767Y016427D01*
X015767Y016328D02*
X015972Y016328D01*
X015972Y016230D02*
X015767Y016230D01*
X015767Y016131D02*
X015972Y016131D01*
X015972Y016033D02*
X015767Y016033D01*
X015767Y015934D02*
X015972Y015934D01*
X015972Y015836D02*
X015767Y015836D01*
X015767Y015737D02*
X015972Y015737D01*
X015972Y015639D02*
X015767Y015639D01*
X015767Y015540D02*
X015972Y015540D01*
X015972Y015442D02*
X015767Y015442D01*
X015767Y015343D02*
X015972Y015343D01*
X015972Y015245D02*
X015767Y015245D01*
X015767Y015146D02*
X015972Y015146D01*
X015972Y015048D02*
X015767Y015048D01*
X015767Y014949D02*
X015771Y014949D01*
X015767Y014851D02*
X015771Y014851D01*
X015767Y014752D02*
X015771Y014752D01*
X015767Y014654D02*
X015771Y014654D01*
X015767Y014555D02*
X015771Y014555D01*
X015767Y014457D02*
X015771Y014457D01*
X016118Y014700D02*
X016152Y014700D01*
X016332Y015048D02*
X016607Y015048D01*
X016607Y015146D02*
X016332Y015146D01*
X016332Y015245D02*
X016607Y015245D01*
X016607Y015343D02*
X016332Y015343D01*
X016332Y015442D02*
X016607Y015442D01*
X016607Y015540D02*
X016332Y015540D01*
X016332Y015639D02*
X016607Y015639D01*
X016607Y015737D02*
X016332Y015737D01*
X016332Y015836D02*
X016607Y015836D01*
X016607Y015934D02*
X016332Y015934D01*
X016332Y016033D02*
X016607Y016033D01*
X016607Y016131D02*
X016332Y016131D01*
X016332Y016230D02*
X016607Y016230D01*
X016607Y016328D02*
X016332Y016328D01*
X016332Y016427D02*
X016607Y016427D01*
X016607Y016525D02*
X016364Y016525D01*
X016434Y016624D02*
X016607Y016624D01*
X016607Y016722D02*
X016461Y016722D01*
X016457Y016821D02*
X016607Y016821D01*
X016607Y016919D02*
X016416Y016919D01*
X016312Y017018D02*
X016607Y017018D01*
X017452Y016750D02*
X017452Y015550D01*
X017418Y015550D01*
X017729Y015836D02*
X017775Y015836D01*
X017907Y015934D02*
X017632Y015934D01*
X017632Y016033D02*
X017907Y016033D01*
X017907Y016131D02*
X017632Y016131D01*
X017632Y016230D02*
X017907Y016230D01*
X017907Y016328D02*
X017632Y016328D01*
X017632Y016427D02*
X017907Y016427D01*
X017907Y016525D02*
X017664Y016525D01*
X017734Y016624D02*
X017907Y016624D01*
X017907Y016722D02*
X017761Y016722D01*
X017757Y016821D02*
X017907Y016821D01*
X017907Y016919D02*
X017716Y016919D01*
X017612Y017018D02*
X017907Y017018D01*
X019044Y016821D02*
X019160Y016821D01*
X019437Y016500D02*
X020202Y016500D01*
X020170Y016722D02*
X019784Y016722D01*
X019714Y016821D02*
X020268Y016821D01*
X020367Y016919D02*
X019617Y016919D01*
X019617Y017018D02*
X020465Y017018D01*
X020564Y017116D02*
X019826Y017116D01*
X019855Y017215D02*
X020662Y017215D01*
X020761Y017313D02*
X019855Y017313D01*
X019437Y017553D02*
X019437Y016500D01*
X019110Y016230D02*
X019094Y016230D01*
X017795Y015245D02*
X017709Y015245D01*
X019252Y017553D02*
X019437Y017553D01*
X019813Y018003D02*
X025172Y018003D01*
X025172Y018101D02*
X009002Y018101D01*
X009002Y018200D02*
X025172Y018200D01*
X025172Y018298D02*
X009002Y018298D01*
X009002Y018397D02*
X025172Y018397D01*
X025243Y018495D02*
X009002Y018495D01*
X015908Y018692D02*
X016097Y018692D01*
X016050Y018791D02*
X015955Y018791D01*
X015955Y018889D02*
X016050Y018889D01*
X016050Y018988D02*
X015955Y018988D01*
X015955Y019086D02*
X016050Y019086D01*
X016050Y019185D02*
X015955Y019185D01*
X015955Y019283D02*
X016050Y019283D01*
X016050Y019382D02*
X015955Y019382D01*
X015955Y019480D02*
X016050Y019480D01*
X016073Y019579D02*
X015932Y019579D01*
X016652Y019147D02*
X016652Y020250D01*
X024866Y021844D02*
X025639Y021844D01*
X025441Y021746D02*
X025064Y021746D01*
X025162Y021647D02*
X025342Y021647D01*
X025293Y021549D02*
X025211Y021549D01*
X025252Y021450D02*
X025253Y021450D01*
X025252Y021352D02*
X025252Y021352D01*
X025252Y021253D02*
X025252Y021253D01*
X025213Y021155D02*
X025292Y021155D01*
X025339Y021056D02*
X025166Y021056D01*
X025067Y020958D02*
X025438Y020958D01*
X025752Y021350D02*
X025752Y018850D01*
X025932Y019086D02*
X031067Y019086D01*
X031051Y019185D02*
X025932Y019185D01*
X025932Y019283D02*
X031051Y019283D01*
X027438Y020958D02*
X027067Y020958D01*
X027166Y021056D02*
X027339Y021056D01*
X027292Y021155D02*
X027213Y021155D01*
X027252Y021253D02*
X027252Y021253D01*
X027252Y021352D02*
X027252Y021352D01*
X027252Y021450D02*
X027253Y021450D01*
X027293Y021549D02*
X027211Y021549D01*
X027162Y021647D02*
X027342Y021647D01*
X027441Y021746D02*
X027064Y021746D01*
X026866Y021844D02*
X027639Y021844D01*
X026639Y021844D02*
X025866Y021844D01*
X026064Y021746D02*
X026441Y021746D01*
X026342Y021647D02*
X026162Y021647D01*
X026211Y021549D02*
X026293Y021549D01*
X026253Y021450D02*
X026252Y021450D01*
X026252Y021352D02*
X026252Y021352D01*
X026252Y021253D02*
X026252Y021253D01*
X026213Y021155D02*
X026292Y021155D01*
X026339Y021056D02*
X026166Y021056D01*
X026067Y020958D02*
X026438Y020958D01*
X026090Y013767D02*
X032873Y013767D01*
X032953Y013800D02*
X033152Y013800D01*
X033336Y013724D01*
X033352Y013707D01*
X033352Y013893D01*
X033336Y013876D01*
X033152Y013800D01*
X032953Y013800D01*
X032714Y013669D02*
X026132Y013669D01*
X026132Y013570D02*
X032623Y013570D01*
X032582Y013472D02*
X026132Y013472D01*
X026132Y013373D02*
X032552Y013373D01*
X032552Y013275D02*
X026132Y013275D01*
X026132Y013176D02*
X032563Y013176D01*
X032603Y013078D02*
X026132Y013078D01*
X026132Y012979D02*
X032666Y012979D01*
X032765Y012881D02*
X026132Y012881D01*
X026132Y012782D02*
X032910Y012782D01*
X032953Y012800D02*
X033152Y012800D01*
X033336Y012724D01*
X033352Y012707D01*
X033352Y012893D01*
X033336Y012876D01*
X033152Y012800D01*
X032953Y012800D01*
X033195Y012782D02*
X033352Y012782D01*
X033340Y012881D02*
X033352Y012881D01*
X032729Y012684D02*
X026132Y012684D01*
X026132Y012585D02*
X032630Y012585D01*
X032588Y012487D02*
X026132Y012487D01*
X026132Y012388D02*
X032552Y012388D01*
X032552Y012290D02*
X026132Y012290D01*
X026132Y012191D02*
X032556Y012191D01*
X032597Y012093D02*
X026132Y012093D01*
X026132Y011994D02*
X032651Y011994D01*
X032750Y011896D02*
X026132Y011896D01*
X026132Y011797D02*
X032946Y011797D01*
X032953Y011800D02*
X033152Y011800D01*
X033336Y011724D01*
X033352Y011707D01*
X033352Y011893D01*
X033336Y011876D01*
X033152Y011800D01*
X032953Y011800D01*
X033159Y011797D02*
X033352Y011797D01*
X032744Y011699D02*
X026132Y011699D01*
X026132Y011600D02*
X032645Y011600D01*
X032595Y011502D02*
X026132Y011502D01*
X025272Y011896D02*
X024223Y011896D01*
X024325Y011994D02*
X025272Y011994D01*
X025272Y012093D02*
X024332Y012093D01*
X024332Y012191D02*
X025272Y012191D01*
X025272Y012290D02*
X024332Y012290D01*
X024332Y012388D02*
X025272Y012388D01*
X025272Y012487D02*
X024332Y012487D01*
X024332Y012585D02*
X025272Y012585D01*
X025272Y012684D02*
X024332Y012684D01*
X024332Y012782D02*
X025272Y012782D01*
X025272Y012881D02*
X024327Y012881D01*
X025452Y013150D02*
X023052Y013150D01*
X023052Y012440D01*
X025352Y008350D02*
X025352Y004650D01*
X025172Y004902D02*
X017844Y004902D01*
X017484Y005001D02*
X015950Y005001D01*
X016033Y005099D02*
X017484Y005099D01*
X017484Y005493D02*
X016033Y005493D01*
X015949Y005592D02*
X017484Y005592D01*
X017325Y005887D02*
X016980Y005887D01*
X017015Y006281D02*
X017305Y006281D01*
X017298Y006380D02*
X017027Y006380D01*
X017027Y006478D02*
X017298Y006478D01*
X017298Y006577D02*
X017027Y006577D01*
X017007Y006675D02*
X017298Y006675D01*
X017298Y006774D02*
X017007Y006774D01*
X017007Y006872D02*
X017298Y006872D01*
X017298Y006971D02*
X017007Y006971D01*
X017507Y007750D02*
X017664Y007750D01*
X019702Y002834D02*
X019802Y002834D01*
X019802Y002735D02*
X019702Y002735D01*
X019702Y002637D02*
X019802Y002637D01*
X019802Y002538D02*
X019702Y002538D01*
X019702Y002440D02*
X019802Y002440D01*
X020103Y002735D02*
X020430Y002735D01*
X020332Y002637D02*
X020187Y002637D01*
X020238Y002538D02*
X020289Y002538D01*
X020296Y002144D02*
X020231Y002144D01*
X020174Y002046D02*
X020350Y002046D01*
X020448Y001947D02*
X020082Y001947D01*
X021056Y001947D02*
X022448Y001947D01*
X022350Y002046D02*
X021155Y002046D01*
X021208Y002144D02*
X022296Y002144D01*
X022256Y002243D02*
X021249Y002243D01*
X021252Y002341D02*
X022252Y002341D01*
X022252Y002440D02*
X021252Y002440D01*
X021216Y002538D02*
X022289Y002538D01*
X022332Y002637D02*
X021173Y002637D01*
X021074Y002735D02*
X022430Y002735D01*
X022613Y002834D02*
X020892Y002834D01*
X020613Y002834D02*
X019947Y002834D01*
X017430Y002735D02*
X017074Y002735D01*
X017173Y002637D02*
X017332Y002637D01*
X017289Y002538D02*
X017216Y002538D01*
X017252Y002440D02*
X017252Y002440D01*
X017252Y002341D02*
X017252Y002341D01*
X017249Y002243D02*
X017256Y002243D01*
X017296Y002144D02*
X017208Y002144D01*
X017155Y002046D02*
X017350Y002046D01*
X017448Y001947D02*
X017056Y001947D01*
X022892Y002834D02*
X023613Y002834D01*
X023430Y002735D02*
X023074Y002735D01*
X023173Y002637D02*
X023332Y002637D01*
X023289Y002538D02*
X023216Y002538D01*
X023252Y002440D02*
X023252Y002440D01*
X023252Y002341D02*
X023252Y002341D01*
X023249Y002243D02*
X023256Y002243D01*
X023296Y002144D02*
X023208Y002144D01*
X023155Y002046D02*
X023350Y002046D01*
X023448Y001947D02*
X023056Y001947D01*
X024056Y001947D02*
X024448Y001947D01*
X024350Y002046D02*
X024155Y002046D01*
X024208Y002144D02*
X024296Y002144D01*
X024256Y002243D02*
X024249Y002243D01*
X024252Y002341D02*
X024252Y002341D01*
X024252Y002440D02*
X024252Y002440D01*
X024216Y002538D02*
X024289Y002538D01*
X024332Y002637D02*
X024173Y002637D01*
X024074Y002735D02*
X024430Y002735D01*
X024613Y002834D02*
X023892Y002834D01*
X024892Y002834D02*
X025613Y002834D01*
X025430Y002735D02*
X025074Y002735D01*
X025173Y002637D02*
X025332Y002637D01*
X025289Y002538D02*
X025216Y002538D01*
X025252Y002440D02*
X025252Y002440D01*
X025252Y002341D02*
X025252Y002341D01*
X025249Y002243D02*
X025256Y002243D01*
X025296Y002144D02*
X025208Y002144D01*
X025155Y002046D02*
X025350Y002046D01*
X025448Y001947D02*
X025056Y001947D01*
X026056Y001947D02*
X026448Y001947D01*
X026350Y002046D02*
X026155Y002046D01*
X026208Y002144D02*
X026296Y002144D01*
X026256Y002243D02*
X026249Y002243D01*
X026252Y002341D02*
X026252Y002341D01*
X026252Y002440D02*
X026252Y002440D01*
X026216Y002538D02*
X026289Y002538D01*
X026332Y002637D02*
X026173Y002637D01*
X026074Y002735D02*
X026430Y002735D01*
X026613Y002834D02*
X025892Y002834D01*
X026892Y002834D02*
X027613Y002834D01*
X027430Y002735D02*
X027074Y002735D01*
X027173Y002637D02*
X027332Y002637D01*
X027289Y002538D02*
X027216Y002538D01*
X027252Y002440D02*
X027252Y002440D01*
X027252Y002341D02*
X027252Y002341D01*
X027249Y002243D02*
X027256Y002243D01*
X027296Y002144D02*
X027208Y002144D01*
X027155Y002046D02*
X027350Y002046D01*
X027448Y001947D02*
X027056Y001947D01*
X028056Y001947D02*
X030630Y001947D01*
X030573Y002046D02*
X028155Y002046D01*
X028208Y002144D02*
X030543Y002144D01*
X033188Y002735D02*
X033352Y002735D01*
X033352Y002834D02*
X027892Y002834D01*
X025532Y005296D02*
X033002Y005296D01*
X033333Y006675D02*
X033352Y006675D01*
X033352Y013767D02*
X033231Y013767D01*
X033310Y013866D02*
X033352Y013866D01*
X013808Y012782D02*
X013697Y012782D01*
D20*
X018752Y015950D03*
X017452Y016750D03*
X016152Y016750D03*
X014752Y016750D03*
X013352Y016750D03*
X011952Y016750D03*
X020252Y014450D03*
X021552Y015950D03*
X022552Y016450D03*
X023552Y016950D03*
X025352Y015650D03*
X024652Y015350D03*
X027052Y013950D03*
X027052Y012850D03*
X027052Y011750D03*
X027052Y010650D03*
X027052Y009750D03*
X025352Y008350D03*
X027052Y006750D03*
X023052Y011350D03*
X022052Y011350D03*
D21*
X032087Y019350D02*
X033052Y019350D01*
M02*
